<svg width="18" height="22" viewBox="0 0 18 22" fill="none" xmlns="http://www.w3.org/2000/svg">
<path d="M2.47363 17.5229C1.99219 17.0498 2.00879 16.2114 2.45703 15.7632L7.20508 11.0151L2.45703 6.28369C2.00879 5.82715 1.99219 4.99707 2.47363 4.51562C2.95508 4.02588 3.79346 4.04248 4.2417 4.49902L8.98145 9.23877L13.7212 4.49902C14.186 4.03418 14.9995 4.03418 15.481 4.51562C15.9707 4.99707 15.9707 5.81055 15.4976 6.28369L10.7661 11.0151L15.4976 15.7549C15.9707 16.228 15.9624 17.0332 15.481 17.5229C15.0078 18.0044 14.186 18.0044 13.7212 17.5396L8.98145 12.7998L4.2417 17.5396C3.79346 17.9961 2.96338 18.0044 2.47363 17.5229Z" fill="white"/>
</svg>
