<svg width="27" height="26" viewBox="0 0 27 26" fill="none" xmlns="http://www.w3.org/2000/svg">
<path d="M13.0195 24.3408C6.9502 24.3408 1.92285 19.3242 1.92285 13.2441C1.92285 7.1748 6.93945 2.14746 13.0088 2.14746C19.0889 2.14746 24.1162 7.1748 24.1162 13.2441C24.1162 19.3242 19.0889 24.3408 13.0195 24.3408ZM7.7666 13.2549C7.7666 13.8672 8.20703 14.2969 8.83008 14.2969H11.9668V17.4443C11.9668 18.0566 12.3965 18.4971 13.0088 18.4971C13.6318 18.4971 14.0723 18.0566 14.0723 17.4443V14.2969H17.2197C17.832 14.2969 18.2725 13.8672 18.2725 13.2549C18.2725 12.6318 17.832 12.1914 17.2197 12.1914H14.0723V9.04395C14.0723 8.43164 13.6318 7.98047 13.0088 7.98047C12.3965 7.98047 11.9668 8.43164 11.9668 9.04395V12.1914H8.83008C8.20703 12.1914 7.7666 12.6318 7.7666 13.2549Z" fill="white" style="fill:white;fill:white;fill-opacity:1;"/>
</svg>
