<svg width="31" height="23" viewBox="0 0 31 23" fill="none" xmlns="http://www.w3.org/2000/svg">
    <path d="M4.29395 20.2773C1.97363 20.2773 0.770508 19.085 0.770508 16.7969V3.71289C0.770508 1.41406 1.97363 0.232422 4.29395 0.232422H22.6953C25.0156 0.232422 26.2188 1.4248 26.2188 3.71289V9.76074C25.875 9.70703 25.5205 9.66406 25.166 9.66406C24.8115 9.66406 24.457 9.70703 24.1133 9.76074V3.89551C24.1133 2.85352 23.5547 2.32715 22.5664 2.32715H4.42285C3.42383 2.32715 2.87598 2.85352 2.87598 3.89551V15.4004L5.84082 12.7256C6.29199 12.3174 6.73242 12.124 7.22656 12.124C7.73145 12.124 8.22559 12.3389 8.67676 12.7363L10.6641 14.5303L15.5088 10.1904C16.0029 9.76074 16.5293 9.55664 17.1201 9.55664C17.6895 9.55664 18.2588 9.77148 18.7314 10.2119L20.2891 11.6729C18.9463 12.9404 18.1191 14.7344 18.1191 16.7217C18.1191 18.0107 18.4844 19.2354 19.1074 20.2773H4.29395ZM9.0957 10.4482C7.66699 10.4482 6.51758 9.28809 6.51758 7.87012C6.51758 6.46289 7.66699 5.29199 9.0957 5.29199C10.5029 5.29199 11.6631 6.46289 11.6631 7.87012C11.6631 9.28809 10.5029 10.4482 9.0957 10.4482ZM25.1768 22.2432C22.1475 22.2432 19.6445 19.751 19.6445 16.7217C19.6445 13.6924 22.1475 11.1895 25.1768 11.1895C28.2061 11.1895 30.6982 13.6924 30.6982 16.7217C30.6982 19.7402 28.1738 22.2432 25.1768 22.2432ZM25.1768 20.2236C25.6172 20.2236 25.9072 19.9336 25.9072 19.4932V17.4521H27.9482C28.3779 17.4521 28.668 17.1621 28.668 16.7217C28.668 16.2812 28.3779 15.9912 27.9482 15.9912H25.9072V13.9502C25.9072 13.5205 25.6172 13.2197 25.1768 13.2197C24.7256 13.2197 24.4463 13.5205 24.4463 13.9502V15.9912H22.4053C21.9648 15.9912 21.6748 16.2812 21.6748 16.7217C21.6748 17.1621 21.9756 17.4521 22.4053 17.4521H24.4463V19.4932C24.4463 19.9336 24.7256 20.2236 25.1768 20.2236Z" fill="white" fill-opacity="0.38"/>
</svg>
