<svg width="38" height="38" viewBox="0 0 38 38" fill="none" xmlns="http://www.w3.org/2000/svg">
    <rect x="0.5" y="0.5" width="37" height="37" rx="18.5" stroke="white" stroke-opacity="0.08"/>
    <path d="M14.0723 25.0664C12.5957 25.0664 11.8301 24.3145 11.8301 22.8516V15.2979C11.8301 13.835 12.5957 13.0762 13.9014 13.0762H24.9209C26.3975 13.0762 27.1631 13.8418 27.1631 15.2979V22.8516C27.1631 24.3076 26.4043 25.0664 25.0986 25.0664H14.0723ZM18.7207 19.3174C19.0078 19.5977 19.2539 19.7207 19.5068 19.7207C19.7598 19.7207 20.0059 19.6045 20.293 19.3174L25.2832 14.3887C25.1738 14.3613 25.0576 14.3477 24.9209 14.3477H14.0723C13.9492 14.3477 13.833 14.3613 13.7305 14.3818L18.7207 19.3174ZM13.0879 15.3799V22.749L16.8203 19.0508L13.0879 15.3799ZM22.1934 19.0508L25.9121 22.7354V15.4004L22.1934 19.0508ZM14.0723 23.8018H24.9209C25.0576 23.8018 25.1807 23.7881 25.29 23.7539L21.3662 19.8643L20.9902 20.2402C20.498 20.7256 20.0127 20.9307 19.5068 20.9307C19.001 20.9307 18.5156 20.7256 18.0234 20.2402L17.6475 19.8643L13.7168 23.7607C13.8262 23.7881 13.9424 23.8018 14.0723 23.8018Z" fill="white"/>
</svg>