<svg width="12" height="12" viewBox="0 0 12 12" fill="none" xmlns="http://www.w3.org/2000/svg">
<path d="M0.494141 3.41992V2.21289C0.494141 0.958984 1.15039 0.308594 2.41602 0.308594H3.58789V1.45703H2.48633C1.94141 1.45703 1.64258 1.73828 1.64258 2.30664V3.41992H0.494141ZM4.44336 1.45703V0.308594H7.48438V1.45703H4.44336ZM10.2852 3.41992V2.30664C10.2852 1.73828 9.98047 1.45703 9.44141 1.45703H8.33984V0.308594H9.51172C10.7715 0.308594 11.4336 0.958984 11.4336 2.21289V3.41992H10.2852ZM3.25977 5.76953C3.25977 5.44141 3.48242 5.21289 3.81055 5.21289H5.41602V3.60742C5.41602 3.2793 5.64453 3.05664 5.96094 3.05664C6.2832 3.05664 6.51758 3.2793 6.51758 3.60742V5.21289H8.12891C8.45117 5.21289 8.67383 5.44141 8.67383 5.76953C8.67383 6.08594 8.44531 6.30859 8.12891 6.30859H6.51758V7.91992C6.51758 8.24219 6.2832 8.4707 5.96094 8.4707C5.64453 8.4707 5.41602 8.24219 5.41602 7.91992V6.30859H3.81055C3.48828 6.30859 3.25977 6.08594 3.25977 5.76953ZM10.2852 7.28125V4.27539H11.4336V7.28125H10.2852ZM0.494141 7.28125V4.27539H1.64258V7.28125H0.494141ZM8.33984 11.248V10.0996H9.44141C9.98047 10.0996 10.2852 9.8125 10.2852 9.24414V8.13086H11.4336V9.34375C11.4336 10.5918 10.7715 11.248 9.51172 11.248H8.33984ZM2.41602 11.248C1.15039 11.248 0.494141 10.5977 0.494141 9.34375V8.13086H1.64258V9.24414C1.64258 9.8125 1.94141 10.0996 2.48633 10.0996H3.58789V11.248H2.41602ZM4.44336 11.248V10.0996H7.48438V11.248H4.44336Z" fill="white"/>
</svg>
