<svg width="24" height="26" viewBox="0 0 24 26" fill="none" xmlns="http://www.w3.org/2000/svg">
<path d="M2.73926 13.2441C2.73926 12.5889 3.28711 12.041 3.94238 12.041H10.5273V5.45605C10.5273 4.80078 11.0752 4.25293 11.7305 4.25293C12.3857 4.25293 12.9336 4.80078 12.9336 5.45605V12.041H19.5186C20.1738 12.041 20.7217 12.5889 20.7217 13.2441C20.7217 13.9102 20.1738 14.4473 19.5186 14.4473H12.9336V21.0322C12.9336 21.6875 12.3857 22.2354 11.7305 22.2354C11.0752 22.2354 10.5273 21.6875 10.5273 21.0322V14.4473H3.94238C3.28711 14.4473 2.73926 13.9102 2.73926 13.2441Z" fill="black" style="fill:black;fill:black;fill-opacity:1;"/>
</svg>
