<svg width="20" height="19" viewBox="0 0 20 19" fill="none" xmlns="http://www.w3.org/2000/svg">
    <path d="M10 18.2334C5.03418 18.2334 0.920898 14.1289 0.920898 9.1543C0.920898 4.18848 5.02539 0.0751953 9.99121 0.0751953C14.9658 0.0751953 19.0791 4.18848 19.0791 9.1543C19.0791 14.1289 14.9658 18.2334 10 18.2334ZM5.70215 9.16309C5.70215 9.66406 6.0625 10.0156 6.57227 10.0156H9.13867V12.5908C9.13867 13.0918 9.49023 13.4521 9.99121 13.4521C10.501 13.4521 10.8613 13.0918 10.8613 12.5908V10.0156H13.4365C13.9375 10.0156 14.2979 9.66406 14.2979 9.16309C14.2979 8.65332 13.9375 8.29297 13.4365 8.29297H10.8613V5.71777C10.8613 5.2168 10.501 4.84766 9.99121 4.84766C9.49023 4.84766 9.13867 5.2168 9.13867 5.71777V8.29297H6.57227C6.0625 8.29297 5.70215 8.65332 5.70215 9.16309Z" fill="white" fill-opacity="0.6"/>
</svg>