<svg width="14" height="15" viewBox="0 0 14 15" fill="none" xmlns="http://www.w3.org/2000/svg">
    <path d="M6.32227 3.41602C6.24023 3.41602 6.19336 3.36328 6.18164 3.28711C6.01172 2.34375 6.02344 2.30273 5.01562 2.12109C4.93359 2.10938 4.88086 2.05664 4.88086 1.98047C4.88086 1.89844 4.93359 1.85156 5.00977 1.83398C6.0293 1.64648 6.01172 1.61133 6.18164 0.667969C6.19336 0.591797 6.24023 0.539062 6.32227 0.539062C6.4043 0.539062 6.45117 0.591797 6.46875 0.667969C6.63281 1.61719 6.62109 1.6582 7.63477 1.83398C7.71094 1.8457 7.76367 1.89844 7.76367 1.98047C7.76367 2.05664 7.71094 2.10938 7.63477 2.12109C6.62109 2.30859 6.63281 2.34961 6.46875 3.28711C6.45117 3.36328 6.4043 3.41602 6.32227 3.41602ZM3.48633 7.51172C3.36328 7.51172 3.27539 7.42969 3.26367 7.30078C3.07031 5.74805 3.00586 5.70117 1.41797 5.44922C1.27734 5.43164 1.19531 5.35547 1.19531 5.23242C1.19531 5.10938 1.27734 5.02734 1.39453 5.00977C3 4.71094 3.07031 4.71094 3.26367 3.1582C3.27539 3.0293 3.36328 2.94727 3.48633 2.94727C3.60352 2.94727 3.69141 3.0293 3.70312 3.15234C3.9082 4.73438 3.96094 4.78711 5.57227 5.00977C5.68359 5.02148 5.77148 5.10938 5.77148 5.23242C5.77148 5.34961 5.68945 5.43164 5.57227 5.44922C3.95508 5.75391 3.9082 5.75977 3.70312 7.3125C3.69141 7.42969 3.60352 7.51172 3.48633 7.51172ZM7.53516 14.0098C7.35938 14.0098 7.21875 13.8809 7.18945 13.6934C6.73828 10.5176 6.31055 10.1074 3.19336 9.69141C3 9.66797 2.86523 9.52148 2.86523 9.33984C2.86523 9.1582 3 9.01758 3.19922 8.99414C6.32227 8.64844 6.76758 8.16797 7.18945 4.99219C7.21875 4.80469 7.35352 4.67578 7.53516 4.67578C7.7168 4.67578 7.85156 4.80469 7.88086 4.99219C8.32031 8.16797 8.75391 8.63086 11.877 8.99414C12.0703 9.01758 12.2051 9.1582 12.2051 9.33984C12.2051 9.52734 12.0703 9.66797 11.877 9.69141C8.74805 10.0371 8.30273 10.5176 7.88086 13.6934C7.85156 13.8809 7.7168 14.0098 7.53516 14.0098Z" fill="white"/>
</svg>