<svg width="26" height="20" viewBox="0 0 26 20" fill="none" xmlns="http://www.w3.org/2000/svg">
<path d="M3.7627 19.6328C1.44238 19.6328 0.239258 18.4404 0.239258 16.1416V10.1367C0.239258 8.96582 0.411133 8.4502 0.948242 7.73047L4.49316 3.00391C5.73926 1.34961 6.39453 0.887695 8.33887 0.887695H17.5879C19.5322 0.887695 20.1875 1.34961 21.4336 3.00391L24.9678 7.73047C25.5156 8.4502 25.6875 8.96582 25.6875 10.1367V16.1416C25.6875 18.4404 24.4844 19.6328 22.1641 19.6328H3.7627ZM12.958 13.0586C14.5908 13.0586 15.6113 11.7588 15.6113 10.416V10.3301C15.6113 9.84668 15.9014 9.37402 16.5137 9.37402H23.0234C23.4102 9.37402 23.4746 9.05176 23.292 8.79395L19.3818 3.51953C18.9199 2.88574 18.3398 2.64941 17.6094 2.64941H8.30664C7.57617 2.64941 7.00684 2.88574 6.54492 3.51953L2.62402 8.79395C2.44141 9.05176 2.50586 9.37402 2.89258 9.37402H9.40234C10.0146 9.37402 10.3154 9.84668 10.3154 10.3301V10.416C10.3154 11.7588 11.3359 13.0586 12.958 13.0586ZM17.4268 4.15332C17.7275 4.15332 17.9424 4.37891 17.9424 4.67969C17.9424 4.96973 17.7275 5.20605 17.4268 5.20605H8.5C8.19922 5.20605 7.97363 4.96973 7.97363 4.67969C7.97363 4.37891 8.19922 4.15332 8.5 4.15332H17.4268ZM18.8232 6.5166C19.1348 6.5166 19.3711 6.77441 19.3711 7.0752C19.3711 7.37598 19.1348 7.62305 18.8232 7.62305H7.09277C6.79199 7.62305 6.55566 7.37598 6.55566 7.0752C6.55566 6.77441 6.79199 6.5166 7.09277 6.5166H18.8232Z" fill="white"/>
</svg>
