<svg width="24" height="22" viewBox="0 0 24 22" fill="none" xmlns="http://www.w3.org/2000/svg">
<path d="M12.0664 21.1348C6.48047 21.1348 1.88086 16.5352 1.88086 10.9492C1.88086 5.37305 6.48047 0.763672 12.0566 0.763672C17.6426 0.763672 22.252 5.37305 22.252 10.9492C22.252 16.5352 17.6523 21.1348 12.0664 21.1348ZM9.77148 15.9688C10.0938 16.2812 10.748 16.2617 11.0898 15.9395L15.1816 12.1016C15.8262 11.4961 15.8262 10.4316 15.1816 9.82617L11.0898 5.98828C10.709 5.63672 10.1426 5.62695 9.79102 5.95898C9.40039 6.32031 9.39062 6.93555 9.77148 7.28711L13.6973 10.959L9.77148 14.6406C9.40039 14.9922 9.38086 15.5781 9.77148 15.9688Z" fill="white" fill-opacity="0.6"/>
</svg>
