<svg width="20" height="22" viewBox="0 0 20 22" fill="none" xmlns="http://www.w3.org/2000/svg">
<path d="M10 2.81348C10.5713 2.81348 10.958 3.20898 10.958 3.78906V14.7051L10.8877 16.5947L13.208 14.0107L15.2031 12.042C15.3789 11.875 15.6162 11.7607 15.8887 11.7607C16.416 11.7607 16.8027 12.165 16.8027 12.7012C16.8027 12.9561 16.7061 13.1846 16.5039 13.3955L10.7119 19.1963C10.5186 19.3896 10.2637 19.5039 10 19.5039C9.73633 19.5039 9.48145 19.3896 9.28809 19.1963L3.49609 13.3955C3.29395 13.1846 3.19727 12.9561 3.19727 12.7012C3.19727 12.165 3.59277 11.7607 4.12012 11.7607C4.38379 11.7607 4.62988 11.875 4.79688 12.042L6.79199 14.0107L9.1123 16.6035L9.04199 14.7051V3.78906C9.04199 3.20898 9.4375 2.81348 10 2.81348Z" fill="white"/>
</svg>
