<svg width="23" height="22" viewBox="0 0 23 22" fill="none" xmlns="http://www.w3.org/2000/svg">
<path d="M11.1523 20.2334C6.18652 20.2334 2.07324 16.1289 2.07324 11.1543C2.07324 6.18848 6.17773 2.0752 11.1436 2.0752C16.1182 2.0752 20.2314 6.18848 20.2314 11.1543C20.2314 16.1289 16.1182 20.2334 11.1523 20.2334ZM6.66113 13.3076C6.97754 13.6328 7.46973 13.6328 7.75977 13.3164L11.1611 9.71289L14.5537 13.3164C14.8438 13.6328 15.3359 13.6328 15.6611 13.3076C15.9424 13.0352 15.9336 12.543 15.626 12.2266L12.1279 8.5C11.5391 7.86719 10.7744 7.87598 10.1855 8.5L6.6875 12.2266C6.37988 12.5518 6.37988 13.0352 6.66113 13.3076Z" fill="white"/>
</svg>
