<svg width="23" height="22" viewBox="0 0 23 22" fill="none" xmlns="http://www.w3.org/2000/svg">
<path d="M11.1523 20.2334C6.18652 20.2334 2.07324 16.1289 2.07324 11.1543C2.07324 6.18848 6.17773 2.0752 11.1436 2.0752C16.1182 2.0752 20.2314 6.18848 20.2314 11.1543C20.2314 16.1289 16.1182 20.2334 11.1523 20.2334ZM9.07812 15.6631C9.35059 15.918 9.88672 15.9004 10.168 15.6279L13.8945 12.1387C14.4482 11.6201 14.4482 10.7148 13.8945 10.1963L10.168 6.70703C9.86035 6.4082 9.38574 6.39941 9.0957 6.67188C8.77051 6.9707 8.77051 7.48047 9.07812 7.77051L12.6904 11.1631L9.07812 14.5645C8.7793 14.8545 8.76172 15.3379 9.07812 15.6631Z" fill="white" style="fill:white;fill-opacity:1;"/>
</svg>