<svg width="19" height="18" viewBox="0 0 19 18" fill="none" xmlns="http://www.w3.org/2000/svg">
<path d="M9.25146 17.7808C4.44531 17.7808 0.48584 13.8213 0.48584 9.00684C0.48584 4.20068 4.43701 0.241211 9.25146 0.241211C14.0576 0.241211 18.0171 4.20068 18.0171 9.00684C18.0171 13.8213 14.0659 17.7808 9.25146 17.7808ZM10.9946 13.2153C11.3516 12.8584 11.3267 12.3022 10.9946 11.9785L7.82373 9.01514L10.9946 6.05176C11.335 5.72803 11.335 5.14697 10.9697 4.81494C10.646 4.51611 10.123 4.50781 9.77441 4.83984L6.4043 7.99414C5.82324 8.54199 5.82324 9.49658 6.4043 10.0444L9.77441 13.1987C10.0898 13.4976 10.6958 13.5059 10.9946 13.2153Z" fill="white" />
</svg>
