<svg width="20" height="22" viewBox="0 0 20 22" fill="none" xmlns="http://www.w3.org/2000/svg">
    <path d="M2.24121 11.1543C2.24121 10.6182 2.68945 10.1699 3.22559 10.1699H8.61328V4.78223C8.61328 4.24609 9.06152 3.79785 9.59766 3.79785C10.1338 3.79785 10.582 4.24609 10.582 4.78223V10.1699H15.9697C16.5059 10.1699 16.9541 10.6182 16.9541 11.1543C16.9541 11.6992 16.5059 12.1387 15.9697 12.1387H10.582V17.5264C10.582 18.0625 10.1338 18.5107 9.59766 18.5107C9.06152 18.5107 8.61328 18.0625 8.61328 17.5264V12.1387H3.22559C2.68945 12.1387 2.24121 11.6992 2.24121 11.1543Z" fill="black"/>
</svg>
