<svg width="16" height="21" viewBox="0 0 16 21" fill="none" xmlns="http://www.w3.org/2000/svg">
    <path d="M13.21 6.01367C13.21 6.34766 12.9902 6.61133 12.6562 6.68164L8.61328 7.56934C8.22656 7.64844 8.17383 7.70996 8.17383 8.13184V16.1826C8.17383 18.6963 6.28418 19.7773 4.84277 19.7773C3.31348 19.7773 2.24121 18.793 2.24121 17.3867C2.24121 15.9893 3.11133 15.0576 4.92188 14.6797L6.32812 14.3896C6.66211 14.3193 6.84668 14.0732 6.81152 13.6865L6.79395 3.94824C6.79395 3.40332 7.12793 3.06934 7.74316 2.9375L12.2695 1.95312C12.7793 1.84766 13.21 2.19043 13.21 2.71777V6.01367Z" fill="black" style="fill:black;fill:black;fill-opacity:1;"/>
</svg>