<svg width="32" height="29" viewBox="0 0 32 29" fill="none" xmlns="http://www.w3.org/2000/svg">
<path d="M23.7234 8.05373C23.7234 8.61392 23.3659 9.05491 22.8057 9.1741L17.2634 10.3898C16.8224 10.4852 16.8343 10.4852 16.8343 10.9619V21.9035C16.8343 25.205 14.3671 26.9571 12.0549 26.9571C9.82602 26.9571 8.26465 25.5387 8.26465 23.4648C8.26465 21.4267 9.55189 20.0799 12.1144 19.5435L14.0453 19.1383C14.4029 19.0668 14.5936 18.8165 14.5578 18.3874L14.5459 5.26471C14.5459 4.43039 15.0584 3.89404 16.0119 3.69142L22.174 2.34459C23.0083 2.1658 23.7234 2.74983 23.7234 3.60799V8.05373Z" fill="white"/>
</svg>
