<svg width="19" height="13" viewBox="0 0 19 13" fill="none" xmlns="http://www.w3.org/2000/svg">
<path d="M14.6211 12.5947H5.11914C2.64453 12.5947 0.723633 10.7764 0.723633 8.58203C0.723633 6.81152 1.70117 5.3623 3.29395 5.03418C3.41016 3.08594 5.21484 1.77344 7.0332 2.19043C7.95605 0.884766 9.38477 0.0234375 11.1553 0.0234375C14.1289 0.0234375 16.4121 2.2998 16.4189 5.45801C17.8066 6.03223 18.6338 7.39258 18.6338 8.87598C18.6338 10.9404 16.8564 12.5947 14.6211 12.5947ZM7.42285 9.49121C7.42285 9.99707 7.6416 10.2158 8.10645 10.2158H11.251C11.7158 10.2158 11.9414 9.99707 11.9414 9.49121V7.08496C11.9414 6.66797 11.7773 6.43555 11.4492 6.3877V5.72461C11.4492 4.54883 10.7383 3.75586 9.67871 3.75586C8.63281 3.75586 7.9082 4.54883 7.9082 5.72461V6.38086C7.58691 6.43555 7.42285 6.66797 7.42285 7.08496V9.49121ZM8.81055 6.36035V5.66992C8.81055 5.04785 9.15234 4.63086 9.67871 4.63086C10.2051 4.63086 10.5537 5.04102 10.5537 5.66992V6.36035H8.81055Z" fill="#5DD525"/>
</svg>
