<svg width="27" height="23" viewBox="0 0 27 23" fill="none" xmlns="http://www.w3.org/2000/svg">
<path d="M22.5078 22.7539H12.4414C10.5195 22.7539 9.45312 22.2852 8.22266 20.8906L2.05859 14.0938C1.0625 12.957 0.757812 12.3008 0.757812 11.5391C0.757812 10.7891 1.05078 10.1562 2.05859 9.00781L8.22266 2.17578C9.42969 0.792969 10.5195 0.347656 12.4414 0.347656H22.5078C25.1797 0.347656 26.6445 1.80078 26.6445 4.46094V18.8984C26.6445 21.5586 25.1797 22.7539 22.5078 22.7539ZM22.168 19.7305C23.1172 19.7305 23.6211 19.2734 23.6211 18.2773V4.83594C23.6211 3.83984 23.1172 3.37109 22.168 3.37109H12.2305C11.5391 3.37109 11.0586 3.52344 10.5664 4.07422L4.4375 10.8477C4.17969 11.1289 4.09766 11.3164 4.09766 11.5391C4.09766 11.7617 4.17969 11.9727 4.4375 12.2422L10.5664 18.9805C11.0703 19.5312 11.5391 19.7305 12.2422 19.7305H22.168ZM12.2891 16.4258C11.5859 16.4258 11.0352 15.8633 11.0352 15.1484C11.0352 14.8203 11.1641 14.5156 11.4102 14.2812L14.1055 11.5742L11.4102 8.87891C11.1641 8.63281 11.0352 8.32812 11.0352 8C11.0352 7.28516 11.5859 6.74609 12.2891 6.74609C12.6758 6.74609 12.9688 6.86328 13.2148 7.10938L15.8984 9.79297L18.5938 7.10938C18.8633 6.83984 19.1445 6.72266 19.5195 6.72266C20.2227 6.72266 20.7734 7.27344 20.7734 8C20.7734 8.31641 20.6445 8.62109 20.3984 8.86719L17.7031 11.5742L20.3867 14.2695C20.6328 14.5156 20.7734 14.8203 20.7734 15.1484C20.7734 15.8633 20.2227 16.4258 19.5078 16.4258C19.1328 16.4258 18.8281 16.2969 18.582 16.0508L15.8984 13.3789L13.2266 16.0508C12.9805 16.2969 12.6758 16.4258 12.2891 16.4258Z" fill="white"/>
</svg>
