<svg width="18" height="14" viewBox="0 0 18 14" fill="none" xmlns="http://www.w3.org/2000/svg">
<path d="M12.75 11.4336L4.65234 11.4277C2.60742 11.4277 1.04883 9.94531 1.04883 8.16406C1.04883 6.69922 1.875 5.49805 3.2168 5.26367C3.26953 3.61133 4.83398 2.50391 6.31641 2.90234C7.05469 1.8418 8.21484 1.0332 9.7793 1.0332C12.2344 1.0332 14.1387 2.94336 14.1328 5.5918C15.293 6.07812 16.002 7.17969 16.002 8.42188C16.002 10.0918 14.5664 11.4336 12.75 11.4336ZM6.58008 8.89062C6.58008 9.30078 6.76172 9.49414 7.14258 9.49414H9.9082C10.2949 9.49414 10.4824 9.30078 10.4824 8.89062V6.76953C10.4824 6.39453 10.3301 6.20117 10.0254 6.17188V5.5625C10.0254 4.55469 9.42188 3.88672 8.52539 3.88672C7.64062 3.88672 7.03125 4.55469 7.03125 5.5625V6.17188C6.73242 6.20117 6.58008 6.39453 6.58008 6.76953V8.89062ZM7.67578 6.16016V5.50391C7.67578 4.90625 8.01562 4.50781 8.52539 4.50781C9.04102 4.50781 9.38086 4.90625 9.38086 5.50391V6.16016H7.67578Z" fill="white" fill-opacity="0.38"/>
</svg>
