<svg width="16" height="14" viewBox="0 0 16 14" fill="none" xmlns="http://www.w3.org/2000/svg">
<path d="M7.60156 12.8223C4.29102 12.8223 1.54883 10.0859 1.54883 6.76953C1.54883 3.45898 4.28516 0.716797 7.5957 0.716797C10.9121 0.716797 13.6543 3.45898 13.6543 6.76953C13.6543 10.0859 10.9121 12.8223 7.60156 12.8223ZM4.52539 7.28516L7.08008 9.8457C7.41406 10.1738 7.77734 10.1855 8.10547 9.85742L10.6836 7.2793C11.0117 6.95117 11 6.58203 10.6719 6.25391L8.11133 3.69336C7.7832 3.36523 7.41992 3.35938 7.0918 3.68164L4.51367 6.25977C4.19141 6.58203 4.20312 6.95703 4.52539 7.28516Z" fill="white"/>
</svg>
