<svg width="21" height="21" viewBox="0 0 21 21" fill="none" xmlns="http://www.w3.org/2000/svg">
<path d="M3.28711 16.4023C2.38184 16.4023 1.83691 15.9102 1.83691 15.1807C1.83691 14.2578 2.68066 13.458 3.47168 12.6934C4.08691 12.0957 4.23633 10.8389 4.3418 9.6875C4.46484 6.45312 5.40527 4.17676 7.69043 3.35059C8.05078 2.19043 9 1.30273 10.3008 1.30273C11.6016 1.30273 12.5508 2.19043 12.9111 3.35059C15.1963 4.17676 16.1367 6.45312 16.2598 9.6875C16.374 10.8389 16.5146 12.0957 17.1299 12.6934C17.9209 13.458 18.7734 14.2578 18.7734 15.1807C18.7734 15.9102 18.2197 16.4023 17.3232 16.4023H3.28711ZM10.3008 20.0146C8.75391 20.0146 7.62012 18.9072 7.50586 17.624H13.1045C12.9814 18.9072 11.8564 20.0146 10.3008 20.0146Z" fill="white" style="fill:white;fill:white;fill-opacity:1;"/>
</svg>
