<svg width="36" height="29" viewBox="0 0 36 29" fill="none" xmlns="http://www.w3.org/2000/svg">
    <path d="M14.3672 26.6797C12.7969 26.6797 11.8008 26.1289 10.9219 25.1211L6.45703 20.0586C5.56641 19.0508 5.34375 18.4062 5.34375 17.0469V12.0312C5.34375 10.6719 5.56641 10.0391 6.45703 9.01953L10.9219 3.95703C11.8008 2.96094 12.7969 2.39844 14.3672 2.39844H21.6328C23.2031 2.39844 24.2227 2.9375 25.0898 3.95703L29.4141 9.01953C30.3281 10.1211 30.6562 10.6719 30.6562 12.0312V17.0469C30.6562 18.4062 30.4336 19.0508 29.5547 20.0586L25.0898 25.1211C24.2109 26.1289 23.2031 26.6797 21.6328 26.6797H14.3672ZM18.0117 16.2969C18.8203 16.2969 19.3008 15.8398 19.3359 14.9961L19.5352 9.94531C19.5703 9.06641 18.9375 8.45703 18 8.45703C17.0625 8.45703 16.4414 9.05469 16.4766 9.94531L16.6641 15.0078C16.7109 15.8398 17.1914 16.2969 18.0117 16.2969ZM18.0117 20.5273C18.9492 20.5273 19.6641 19.9414 19.6641 19.0391C19.6641 18.1602 18.9492 17.5625 18.0117 17.5625C17.0742 17.5625 16.3594 18.1602 16.3594 19.0391C16.3594 19.9414 17.0859 20.5273 18.0117 20.5273Z" fill="white"/>
</svg>