<svg width="13" height="14" viewBox="0 0 13 14" fill="none" xmlns="http://www.w3.org/2000/svg">
<path d="M11.9648 12.4473L1.0957 1.57812C0.919922 1.40234 0.919922 1.09766 1.0957 0.921875C1.27734 0.734375 1.57617 0.740234 1.75781 0.921875L12.6211 11.7852C12.8086 11.9668 12.8027 12.2598 12.6211 12.4414C12.4453 12.6289 12.1465 12.6289 11.9648 12.4473ZM8.8125 4.00977C8.8125 4.83008 8.47266 5.54492 7.94531 6.01367L4.51172 2.58008C4.93945 1.91211 5.66016 1.47266 6.44531 1.47266C7.72266 1.47266 8.8125 2.56836 8.8125 4.00977ZM1.49414 11.2344C1.49414 9.79297 3.25195 7.81836 6.08789 7.66602L10.4766 12.0547C10.4355 12.0605 10.3945 12.0605 10.3477 12.0605H2.54297C1.88672 12.0605 1.49414 11.75 1.49414 11.2344Z" fill="white"/>
</svg>
