<svg width="28" height="26" viewBox="0 0 28 26" fill="none" xmlns="http://www.w3.org/2000/svg">
    <path d="M4.29199 9.77441C3.61523 9.77441 3.23926 9.39844 3.23926 8.71094V6.10059C3.23926 3.8125 4.44238 2.62012 6.7627 2.62012H9.37305C10.0605 2.62012 10.4365 2.99609 10.4365 3.67285C10.4365 4.34961 10.0605 4.72559 9.37305 4.72559H6.8916C5.89258 4.72559 5.34473 5.24121 5.34473 6.2832V8.71094C5.34473 9.39844 4.97949 9.77441 4.29199 9.77441ZM23.4668 9.77441C22.79 9.77441 22.4141 9.39844 22.4141 8.71094V6.2832C22.4141 5.24121 21.8555 4.72559 20.8672 4.72559H18.3857C17.6982 4.72559 17.3223 4.34961 17.3223 3.67285C17.3223 2.99609 17.6982 2.62012 18.3857 2.62012H20.9961C23.3164 2.62012 24.5195 3.8125 24.5195 6.10059V8.71094C24.5195 9.39844 24.1543 9.77441 23.4668 9.77441ZM9.20117 18.0674C8.0625 18.0674 7.46094 17.4873 7.46094 16.3594V10.7842C7.46094 9.64551 8.0625 9.05469 9.20117 9.05469H10.4688C10.877 9.05469 11.0059 8.97949 11.2637 8.71094L11.6934 8.25977C11.9619 7.96973 12.2412 7.83008 12.7783 7.83008H14.959C15.4961 7.83008 15.7754 7.96973 16.0547 8.25977L16.4736 8.71094C16.7314 8.99023 16.8604 9.05469 17.2793 9.05469H18.5684C19.707 9.05469 20.3086 9.64551 20.3086 10.7842V16.3594C20.3086 17.4873 19.707 18.0674 18.5684 18.0674H9.20117ZM13.8955 16.6494C15.6357 16.6494 17.0215 15.2852 17.0215 13.5127C17.0215 11.7832 15.6357 10.3867 13.8955 10.3867C12.1553 10.3867 10.7588 11.7832 10.7588 13.5127C10.7588 15.2637 12.1553 16.6494 13.8955 16.6494ZM18.1172 12.084C18.5254 12.084 18.8477 11.7725 18.8477 11.3535C18.8477 10.9453 18.5254 10.6123 18.1172 10.6123C17.7197 10.6123 17.3867 10.9453 17.3867 11.3535C17.3867 11.7725 17.7197 12.084 18.1172 12.084ZM13.8848 15.6074C12.7354 15.6074 11.8008 14.6836 11.8008 13.5127C11.8008 12.3633 12.7354 11.4287 13.8848 11.4287C15.0342 11.4287 15.9795 12.3633 15.9795 13.5127C15.9795 14.6836 15.0342 15.6074 13.8848 15.6074ZM6.7627 23.9004C4.44238 23.9004 3.23926 22.708 3.23926 20.4092V17.7988C3.23926 17.1113 3.60449 16.7354 4.29199 16.7354C4.96875 16.7354 5.34473 17.1113 5.34473 17.7988V20.2266C5.34473 21.2793 5.89258 21.7949 6.8916 21.7949H9.37305C10.0605 21.7949 10.4365 22.1709 10.4365 22.8477C10.4365 23.5244 10.0605 23.9004 9.37305 23.9004H6.7627ZM18.3857 23.9004C17.6982 23.9004 17.3223 23.5244 17.3223 22.8477C17.3223 22.1709 17.6982 21.7949 18.3857 21.7949H20.8672C21.8555 21.7949 22.4141 21.2793 22.4141 20.2266V17.7988C22.4141 17.1221 22.7793 16.7354 23.4668 16.7354C24.1436 16.7354 24.5195 17.1113 24.5195 17.7988V20.4092C24.5195 22.708 23.3164 23.9004 20.9961 23.9004H18.3857Z" fill="white" style="fill:white;fill:white;fill-opacity:1;"/>
</svg>