<svg width="21" height="22" viewBox="0 0 21 22" fill="none" xmlns="http://www.w3.org/2000/svg">
<path d="M3.60205 10.376C3.23682 10.2266 2.98779 9.90283 2.98779 9.5293C2.98779 8.92334 3.43604 8.4917 3.99219 8.4917C4.29932 8.4917 4.68115 8.65771 4.96338 8.77393L10.5 11.0151L16.0366 8.77393C16.3188 8.65771 16.709 8.4917 16.9995 8.4917C17.564 8.4917 18.0122 8.92334 18.0122 9.5293C18.0122 9.90283 17.7632 10.2266 17.3979 10.376L11.7949 12.6504C11.3633 12.833 10.915 13.0073 10.5 13.0073C10.085 13.0073 9.64502 12.833 9.20508 12.6504L3.60205 10.376Z" fill="white" fill-opacity="0.6"/>
</svg>
