<svg width="21" height="22" viewBox="0 0 21 22" fill="none" xmlns="http://www.w3.org/2000/svg">
<path d="M3.60205 11.624C3.23682 11.7734 2.98779 12.0972 2.98779 12.4707C2.98779 13.0767 3.43604 13.5083 3.99219 13.5083C4.29932 13.5083 4.68115 13.3423 4.96338 13.2261L10.5 10.9849L16.0366 13.2261C16.3188 13.3423 16.709 13.5083 16.9995 13.5083C17.564 13.5083 18.0122 13.0767 18.0122 12.4707C18.0122 12.0972 17.7632 11.7734 17.3979 11.624L11.7949 9.34961C11.3633 9.16699 10.915 8.99268 10.5 8.99268C10.085 8.99268 9.64502 9.16699 9.20508 9.34961L3.60205 11.624Z" fill="white" fill-opacity="0.6"/>
</svg>
