<svg width="23" height="21" viewBox="0 0 23 21" fill="none" xmlns="http://www.w3.org/2000/svg">
    <path d="M11.083 14.293C10.0635 14.0996 9.36914 13.7129 8.85059 13.2031C6.6709 11.0234 6.68848 7.96484 8.8418 5.81152L11.9004 2.74414C14.0537 0.59082 17.1123 0.573242 19.292 2.76172C21.4717 4.94141 21.4629 8 19.3008 10.1533L16.7783 12.667C16.9277 11.9902 16.8398 11.208 16.5586 10.5664L18.0703 9.05469C19.5469 7.57812 19.5557 5.48633 18.0615 3.9834C16.5762 2.49805 14.4756 2.49805 12.9902 3.9834L10.0723 6.90137C8.5957 8.37793 8.5957 10.4873 10.0811 11.9727C10.626 12.5176 11.3643 12.8516 12.4189 12.9482L11.083 14.293ZM11.8564 6.88379C12.8848 7.07715 13.5791 7.46387 14.0889 7.98242C16.2686 10.1533 16.2598 13.2119 14.0977 15.374L11.0479 18.4326C8.89453 20.5859 5.83594 20.6035 3.65625 18.4238C1.47656 16.2441 1.48535 13.1768 3.64746 11.0234L6.16113 8.50977C6.01172 9.19531 6.1084 9.96875 6.38086 10.6104L4.87793 12.1221C3.39258 13.5986 3.38379 15.6992 4.87793 17.1934C6.37207 18.6787 8.46387 18.6787 9.94922 17.1934L12.8672 14.2754C14.3525 12.7988 14.3525 10.6982 12.8584 9.2041C12.3223 8.66797 11.5752 8.3252 10.5293 8.22852L11.8564 6.88379Z" fill="black" style="fill:black;fill:black;fill-opacity:1;"/>
</svg>