<svg width="25" height="26" viewBox="0 0 25 26" fill="none" xmlns="http://www.w3.org/2000/svg">
    <path d="M10.001 22.8262C9.46387 22.8262 9.06641 22.6006 8.69043 22.1387L3.12598 15.1777C2.85742 14.8447 2.73926 14.5332 2.73926 14.2109C2.73926 13.4697 3.28711 12.9326 4.03906 12.9326C4.51172 12.9326 4.83398 13.1045 5.14551 13.5234L9.95801 19.7002L19.293 4.87598C19.6152 4.37109 19.9268 4.18848 20.4531 4.18848C21.2051 4.18848 21.7207 4.7041 21.7207 5.44531C21.7207 5.73535 21.6348 6.03613 21.4092 6.37988L11.3115 22.1279C11 22.5898 10.5703 22.8262 10.001 22.8262Z" fill="black" style="fill:black;fill:black;fill-opacity:1;"/>
</svg>