<svg width="20" height="21" viewBox="0 0 20 21" fill="none" xmlns="http://www.w3.org/2000/svg">
<g clip-path="url(#clip0_73_11912)">
<path d="M10.0391 20.4561C15.4883 20.4561 20 15.9346 20 10.4952C20 5.04593 15.4785 0.53421 10.0293 0.53421C4.58985 0.53421 0.078125 5.04593 0.078125 10.4952C0.078125 15.9346 4.59961 20.4561 10.0391 20.4561Z" fill="#FF8F50" style="fill:#FF8F50;fill:color(display-p3 1.0000 0.5600 0.3125);fill-opacity:1;"/>
<path d="M8.94531 15.2705C8.61328 15.2705 8.33984 15.1338 8.08593 14.792L5.63476 11.7842C5.48828 11.5889 5.40039 11.374 5.40039 11.1494C5.40039 10.71 5.74218 10.3487 6.18164 10.3487C6.46484 10.3487 6.67968 10.4365 6.92382 10.7588L8.90624 13.3174L13.0761 6.61819C13.2617 6.32523 13.5156 6.16898 13.7695 6.16898C14.1992 6.16898 14.5996 6.46194 14.5996 6.92093C14.5996 7.13577 14.4726 7.36038 14.3554 7.56546L9.76562 14.792C9.56054 15.1143 9.27734 15.2705 8.94531 15.2705Z" fill="black" fill-opacity="0.85" style="fill:black;fill:black;fill-opacity:0.85;"/>
</g>
<defs>
<clipPath id="clip0_73_11912">
<rect width="19.9219" height="19.9316" fill="white" style="fill:white;fill:white;fill-opacity:1;" transform="translate(0.078125 0.53421)"/>
</clipPath>
</defs>
</svg>
