<svg width="16" height="16" viewBox="0 0 16 16" fill="none" xmlns="http://www.w3.org/2000/svg">
<path d="M6.59326 15.5356C6.06201 15.5356 5.66357 15.3447 5.30664 14.9214L1.02344 9.7334C0.724609 9.39307 0.616699 9.08594 0.616699 8.7373C0.616699 7.95703 1.19775 7.38428 2.00293 7.38428C2.46777 7.38428 2.7998 7.55029 3.10693 7.91553L6.55176 12.1904L13.3418 1.48242C13.6738 0.959473 14.0142 0.760254 14.562 0.760254C15.3589 0.760254 15.9399 1.32471 15.9399 2.10498C15.9399 2.39551 15.8486 2.70264 15.6328 3.03467L7.89648 14.8633C7.59766 15.3198 7.15771 15.5356 6.59326 15.5356Z" fill="#75FA37"/>
</svg>
