<svg width="11" height="11" viewBox="0 0 11 11" fill="none" xmlns="http://www.w3.org/2000/svg">
    <path d="M5.91797 10.5186C3.15918 10.5186 0.874023 8.23828 0.874023 5.47461C0.874023 2.71582 3.1543 0.430664 5.91309 0.430664C8.67676 0.430664 10.9619 2.71582 10.9619 5.47461C10.9619 8.23828 8.67676 10.5186 5.91797 10.5186ZM5.37598 7.88672C5.55664 7.88672 5.71289 7.79395 5.8252 7.62793L8.11035 4.06348C8.17871 3.95605 8.2373 3.83398 8.2373 3.72168C8.2373 3.46777 8.01758 3.29688 7.77344 3.29688C7.61719 3.29688 7.48047 3.37988 7.37793 3.55078L5.35645 6.7832L4.41406 5.58691C4.29199 5.43066 4.1748 5.37207 4.02344 5.37207C3.76953 5.37207 3.57422 5.57715 3.57422 5.82617C3.57422 5.94824 3.61816 6.06543 3.70605 6.17285L4.90234 7.62793C5.03906 7.80371 5.19043 7.88672 5.37598 7.88672Z" fill="#FF8F50"/>
</svg>