<svg width="25" height="22" viewBox="0 0 25 22" fill="none" xmlns="http://www.w3.org/2000/svg">
<path d="M11.1719 4.49902C10.7817 4.49902 10.458 4.17529 10.458 3.77686C10.458 3.38672 10.7817 3.06299 11.1719 3.06299C11.5703 3.06299 11.894 3.38672 11.894 3.77686C11.894 4.17529 11.5703 4.49902 11.1719 4.49902ZM13.8115 4.49902C13.4214 4.49902 13.0894 4.17529 13.0894 3.77686C13.0894 3.38672 13.4214 3.06299 13.8115 3.06299C14.2017 3.06299 14.5254 3.38672 14.5254 3.77686C14.5254 4.17529 14.2017 4.49902 13.8115 4.49902ZM3.26123 4.2832C2.979 4.2832 2.75488 4.05908 2.75488 3.77686C2.75488 3.50293 2.979 3.27881 3.26123 3.27881C3.53516 3.27881 3.75928 3.50293 3.75928 3.77686C3.75928 4.05908 3.53516 4.2832 3.26123 4.2832ZM5.89258 4.2832C5.61865 4.2832 5.39453 4.05908 5.39453 3.77686C5.39453 3.50293 5.61865 3.27881 5.89258 3.27881C6.1665 3.27881 6.39893 3.50293 6.39893 3.77686C6.39893 4.05908 6.1665 4.2832 5.89258 4.2832ZM8.53223 4.2832C8.2583 4.2832 8.02588 4.05908 8.02588 3.77686C8.02588 3.50293 8.2583 3.27881 8.53223 3.27881C8.80615 3.27881 9.03857 3.50293 9.03857 3.77686C9.03857 4.05908 8.80615 4.2832 8.53223 4.2832ZM16.4595 4.2832C16.1855 4.2832 15.9531 4.05908 15.9531 3.77686C15.9531 3.50293 16.1855 3.27881 16.4595 3.27881C16.7334 3.27881 16.9658 3.50293 16.9658 3.77686C16.9658 4.05908 16.7334 4.2832 16.4595 4.2832ZM19.0991 4.2832C18.8252 4.2832 18.5928 4.05908 18.5928 3.77686C18.5928 3.50293 18.8252 3.27881 19.0991 3.27881C19.373 3.27881 19.6055 3.50293 19.6055 3.77686C19.6055 4.05908 19.373 4.2832 19.0991 4.2832ZM21.7388 4.2832C21.4648 4.2832 21.2324 4.05908 21.2324 3.77686C21.2324 3.50293 21.4648 3.27881 21.7388 3.27881C22.0127 3.27881 22.2451 3.50293 22.2451 3.77686C22.2451 4.05908 22.0127 4.2832 21.7388 4.2832ZM5.89258 7.3877C5.50244 7.3877 5.17871 7.05566 5.17871 6.66553C5.17871 6.27539 5.50244 5.94336 5.89258 5.94336C6.29102 5.94336 6.61475 6.27539 6.61475 6.66553C6.61475 7.05566 6.29102 7.3877 5.89258 7.3877ZM8.53223 7.3877C8.14209 7.3877 7.81836 7.05566 7.81836 6.66553C7.81836 6.27539 8.14209 5.94336 8.53223 5.94336C8.91406 5.94336 9.22119 6.25049 9.24609 6.61572C9.08008 6.83154 8.93066 7.07227 8.81445 7.32129C8.72314 7.35449 8.63184 7.3877 8.53223 7.3877ZM16.4595 7.3877C16.3848 7.3877 16.3101 7.37109 16.2437 7.34619C16.1025 7.06396 15.9365 6.79834 15.7539 6.55762C15.8037 6.20898 16.1025 5.94336 16.4595 5.94336C16.8579 5.94336 17.1816 6.27539 17.1816 6.66553C17.1816 7.05566 16.8579 7.3877 16.4595 7.3877ZM19.0991 7.3877C18.709 7.3877 18.377 7.05566 18.377 6.66553C18.377 6.27539 18.709 5.94336 19.0991 5.94336C19.4893 5.94336 19.8213 6.27539 19.8213 6.66553C19.8213 7.05566 19.4893 7.3877 19.0991 7.3877ZM21.7388 7.17188C21.4648 7.17188 21.2324 6.93945 21.2324 6.66553C21.2324 6.3916 21.4648 6.15918 21.7388 6.15918C22.0127 6.15918 22.2451 6.3916 22.2451 6.66553C22.2451 6.93945 22.0127 7.17188 21.7388 7.17188ZM3.26123 7.17188C2.979 7.17188 2.75488 6.93945 2.75488 6.66553C2.75488 6.3916 2.979 6.15918 3.26123 6.15918C3.53516 6.15918 3.75928 6.3916 3.75928 6.66553C3.75928 6.93945 3.53516 7.17188 3.26123 7.17188ZM12.5166 12.5342C10.9727 12.5342 9.60303 11.1147 9.60303 9.33838C9.60303 7.54541 10.9727 6.20068 12.5166 6.20068C14.0688 6.20068 15.4385 7.51221 15.4385 9.31348C15.4385 11.1147 14.0688 12.5342 12.5166 12.5342ZM5.89258 10.4839C5.38623 10.4839 4.96289 10.0605 4.96289 9.5459C4.96289 9.03955 5.38623 8.61621 5.89258 8.61621C6.40723 8.61621 6.83057 9.03955 6.83057 9.5459C6.83057 10.0605 6.40723 10.4839 5.89258 10.4839ZM19.0991 10.4839C18.5928 10.4839 18.1694 10.0605 18.1694 9.5459C18.1694 9.03955 18.5928 8.61621 19.0991 8.61621C19.6055 8.61621 20.0288 9.03955 20.0288 9.5459C20.0288 10.0605 19.6055 10.4839 19.0991 10.4839ZM7.60254 9.5459C7.60254 9.08105 7.95117 8.69092 8.40771 8.62451C8.36621 8.85693 8.34961 9.08936 8.34961 9.33838C8.34961 9.72852 8.39111 10.1187 8.49072 10.4839C8.00098 10.459 7.60254 10.0522 7.60254 9.5459ZM17.3892 9.5459C17.3892 10.0356 17.0073 10.4341 16.5342 10.4839C16.6338 10.1104 16.6836 9.72021 16.6836 9.31348C16.6836 9.08105 16.667 8.85693 16.6338 8.63281C17.0654 8.71582 17.3892 9.09766 17.3892 9.5459ZM3.26123 10.2681C2.86279 10.2681 2.53906 9.94434 2.53906 9.5459C2.53906 9.15576 2.86279 8.83203 3.26123 8.83203C3.65137 8.83203 3.9751 9.15576 3.9751 9.5459C3.9751 9.94434 3.65137 10.2681 3.26123 10.2681ZM21.7388 10.2681C21.3486 10.2681 21.0166 9.94434 21.0166 9.5459C21.0166 9.15576 21.3486 8.83203 21.7388 8.83203C22.1289 8.83203 22.4526 9.15576 22.4526 9.5459C22.4526 9.94434 22.1289 10.2681 21.7388 10.2681ZM5.89258 13.3643C5.38623 13.3643 4.96289 12.9409 4.96289 12.4346C4.96289 11.9199 5.38623 11.5049 5.89258 11.5049C6.40723 11.5049 6.83057 11.9199 6.83057 12.4346C6.83057 12.9409 6.40723 13.3643 5.89258 13.3643ZM19.0991 13.3643C18.5928 13.3643 18.1694 12.9409 18.1694 12.4346C18.1694 11.9199 18.5928 11.5049 19.0991 11.5049C19.6055 11.5049 20.0288 11.9199 20.0288 12.4346C20.0288 12.9409 19.6055 13.3643 19.0991 13.3643ZM8.10059 13.248C7.81006 13.0903 7.60254 12.7832 7.60254 12.4346C7.60254 11.9365 8.01758 11.5215 8.51562 11.5215C9.07178 11.5215 9.49512 12.0278 9.41211 12.5923C8.93896 12.7749 8.49902 12.9907 8.10059 13.248ZM16.9243 13.2231C16.501 12.9824 16.061 12.7583 15.5879 12.584C15.4966 12.0195 15.9199 11.5215 16.4844 11.5215C16.9824 11.5215 17.3892 11.9365 17.3892 12.4346C17.3892 12.7749 17.1982 13.0737 16.9243 13.2231ZM3.26123 13.1484C2.86279 13.1484 2.53906 12.8247 2.53906 12.4346C2.53906 12.0444 2.86279 11.7124 3.26123 11.7124C3.65137 11.7124 3.9751 12.0444 3.9751 12.4346C3.9751 12.8247 3.65137 13.1484 3.26123 13.1484ZM21.7388 13.1484C21.3486 13.1484 21.0166 12.8247 21.0166 12.4346C21.0166 12.0444 21.3486 11.7124 21.7388 11.7124C22.1289 11.7124 22.4526 12.0444 22.4526 12.4346C22.4526 12.8247 22.1289 13.1484 21.7388 13.1484ZM8.2334 18.8677C6.97168 18.8677 6.58984 18.5024 6.58984 17.8633C6.58984 16.0371 8.85596 13.522 12.5166 13.522C16.1855 13.522 18.4517 16.0371 18.4517 17.8633C18.4517 18.5024 18.0615 18.8677 16.7998 18.8677H8.2334ZM5.56885 15.9458C5.33643 15.8296 5.17871 15.5889 5.17871 15.3149C5.17871 14.9248 5.50244 14.6011 5.89258 14.6011C6.06689 14.6011 6.21631 14.6592 6.34082 14.7588C6.03369 15.1406 5.76807 15.5391 5.56885 15.9458ZM19.4644 15.9375C19.2568 15.5225 18.9995 15.1157 18.6758 14.7339C18.8003 14.6509 18.9414 14.6011 19.0991 14.6011C19.4893 14.6011 19.8213 14.9248 19.8213 15.3149C19.8213 15.5806 19.6719 15.813 19.4644 15.9375ZM3.26123 15.8213C2.979 15.8213 2.75488 15.5972 2.75488 15.3149C2.75488 15.041 2.979 14.8169 3.26123 14.8169C3.53516 14.8169 3.75928 15.041 3.75928 15.3149C3.75928 15.5972 3.53516 15.8213 3.26123 15.8213ZM21.7388 15.8213C21.4648 15.8213 21.2324 15.5972 21.2324 15.3149C21.2324 15.041 21.4648 14.8169 21.7388 14.8169C22.0127 14.8169 22.2451 15.041 22.2451 15.3149C22.2451 15.5972 22.0127 15.8213 21.7388 15.8213ZM3.26123 18.71C2.979 18.71 2.75488 18.4775 2.75488 18.2036C2.75488 17.9297 2.979 17.6973 3.26123 17.6973C3.53516 17.6973 3.75928 17.9297 3.75928 18.2036C3.75928 18.4775 3.53516 18.71 3.26123 18.71ZM21.7388 18.71C21.4648 18.71 21.2324 18.4775 21.2324 18.2036C21.2324 17.9297 21.4648 17.6973 21.7388 17.6973C22.0127 17.6973 22.2451 17.9297 22.2451 18.2036C22.2451 18.4775 22.0127 18.71 21.7388 18.71Z" fill="white"/>
</svg>
