<svg width="25" height="22" viewBox="0 0 25 22" fill="none" xmlns="http://www.w3.org/2000/svg">
<path d="M12.5 10.791C10.6904 10.791 9.15479 9.17236 9.15479 7.11377C9.15479 5.08838 10.6987 3.50293 12.5 3.50293C14.3096 3.50293 15.8535 5.05518 15.8535 7.09717C15.8535 9.17236 14.3179 10.791 12.5 10.791ZM6.97168 18.5024C6.04199 18.5024 5.48584 18.0625 5.48584 17.332C5.48584 15.1987 8.2002 12.2603 12.5 12.2603C13.6787 12.2603 14.7329 12.501 15.6377 12.8745C14.9072 13.3062 14.4507 13.9287 14.4507 14.875V17.855C14.4507 18.0791 14.4673 18.3032 14.4922 18.5024H6.97168ZM15.895 17.8633V14.875C15.895 14.3438 16.0859 14.0117 16.6172 13.7876C17.0737 13.5967 18.6011 13.082 18.9829 12.9409C19.3315 12.8081 19.6968 12.8081 20.0205 12.916C20.4521 13.0737 21.9795 13.5967 22.4443 13.7876C22.9756 14.0117 23.1665 14.3438 23.1665 14.875V17.8633C23.1665 19.457 22.2285 20.0713 19.9126 21.3828C19.6553 21.5239 19.3481 21.499 19.1489 21.3828C16.833 20.0713 15.895 19.457 15.895 17.8633ZM18.9829 19.5317C19.1904 19.5317 19.373 19.4487 19.4727 19.3159L21.8799 16.0039C21.9629 15.896 22.0044 15.7632 22.0044 15.6636C22.0044 15.3315 21.7305 15.0742 21.4067 15.0742C21.1992 15.0742 21.0249 15.1738 20.9087 15.3315L18.9497 18.0459L17.9868 16.9917C17.8872 16.8838 17.7378 16.8008 17.5469 16.8008C17.2314 16.8008 16.9575 17.0415 16.9575 17.3984C16.9575 17.5396 17.0156 17.6973 17.1235 17.8218L18.5181 19.3408C18.6343 19.4736 18.8252 19.5317 18.9829 19.5317Z" fill="white"/>
</svg>
