<svg width="24" height="22" viewBox="0 0 24 22" fill="none" xmlns="http://www.w3.org/2000/svg">
<path d="M18.4775 19.3721L10.875 19.3633C9.70605 19.3633 8.84473 19.0293 8.05371 18.168L3.07031 12.9121C2.42871 12.2266 2.18262 11.708 2.18262 11.1543C2.18262 10.6006 2.42871 10.0908 3.07031 9.39648L8.04492 4.11426C8.83594 3.25293 9.69727 2.96289 10.875 2.96289H18.4775C20.376 2.96289 21.3604 3.93848 21.3604 5.81934V16.5859C21.3604 18.4668 20.376 19.3721 18.4775 19.3721ZM10.5059 14.8896C10.7432 14.8896 10.9541 14.8018 11.1123 14.6436L13.3975 12.3496L15.6826 14.6436C15.8408 14.8018 16.0518 14.8896 16.2891 14.8896C16.7549 14.8896 17.1152 14.5117 17.1152 14.0459C17.1152 13.8262 17.0361 13.624 16.8691 13.4658L14.5752 11.1719L16.8779 8.86914C17.0537 8.69336 17.124 8.50879 17.124 8.28027C17.124 7.82324 16.7637 7.46289 16.2979 7.46289C16.0693 7.46289 15.8848 7.54199 15.7178 7.70898L13.3975 10.0117L11.0947 7.71777C10.9365 7.55957 10.7432 7.48047 10.5059 7.48047C10.0488 7.48047 9.67969 7.83203 9.67969 8.29785C9.67969 8.51758 9.76758 8.71973 9.92578 8.87793L12.2285 11.1719L9.92578 13.4746C9.76758 13.624 9.67969 13.835 9.67969 14.0459C9.67969 14.5117 10.0488 14.8896 10.5059 14.8896Z" fill="white" fill-opacity="0.6"/>
</svg>
