<svg width="16" height="15" viewBox="0 0 16 15" fill="none" xmlns="http://www.w3.org/2000/svg">
<path d="M1.19727 13.957C0.819336 13.5879 0.828125 12.9375 1.19727 12.5771L6.60254 7.16309L1.19727 1.75781C0.828125 1.39746 0.819336 0.755859 1.19727 0.369141C1.5752 -0.00878906 2.2168 0 2.58594 0.369141L7.99121 5.77441L13.3965 0.369141C13.7744 0 14.3984 0 14.7852 0.37793C15.1719 0.74707 15.1631 1.38867 14.7939 1.75781L9.38867 7.16309L14.7939 12.5771C15.1631 12.9463 15.1631 13.5791 14.7852 13.957C14.4072 14.3438 13.7744 14.335 13.3965 13.9658L7.99121 8.56055L2.58594 13.9658C2.2168 14.335 1.58398 14.335 1.19727 13.957Z" fill="white"/>
</svg>
