<svg width="19" height="19" viewBox="0 0 19 19" fill="none" xmlns="http://www.w3.org/2000/svg">
    <path d="M9.65234 18.7334C4.68652 18.7334 0.573242 14.6289 0.573242 9.6543C0.573242 4.68848 4.67773 0.575195 9.64355 0.575195C14.6182 0.575195 18.7314 4.68848 18.7314 9.6543C18.7314 14.6289 14.6182 18.7334 9.65234 18.7334ZM9.65234 16.9492C13.6953 16.9492 16.9473 13.6973 16.9473 9.6543C16.9473 5.61133 13.6865 2.36816 9.64355 2.36816C5.60059 2.36816 2.36621 5.61133 2.36621 9.6543C2.36621 13.6973 5.60938 16.9492 9.65234 16.9492ZM6.76074 13.3457C6.3125 13.3457 5.96094 12.9941 5.96094 12.5459C5.96094 12.335 6.04883 12.1416 6.20703 12.001L8.52734 9.66309L6.20703 7.33398C6.04883 7.18457 5.96094 6.99121 5.96094 6.78027C5.96094 6.34082 6.3125 5.99805 6.76074 5.99805C6.98047 5.99805 7.16504 6.07715 7.31445 6.23535L9.64355 8.55566L11.9902 6.22656C12.1572 6.05957 12.333 5.98047 12.5527 5.98047C12.9922 5.98047 13.3438 6.33203 13.3438 6.77148C13.3438 6.98242 13.2646 7.16699 13.1064 7.3252L10.7773 9.66309L13.0977 11.9922C13.2559 12.1416 13.335 12.335 13.335 12.5459C13.335 12.9941 12.9834 13.3457 12.5439 13.3457C12.3154 13.3457 12.1221 13.2578 11.9727 13.1084L9.64355 10.7881L7.33203 13.1084C7.18262 13.2666 6.98047 13.3457 6.76074 13.3457Z" fill="#121111"/>
</svg>