<svg width="42" height="42" viewBox="0 0 42 42" fill="none" xmlns="http://www.w3.org/2000/svg">
    <rect width="42" height="42" rx="21" fill="#6D6C6C"/>
    <path d="M14.1973 27.957C13.8193 27.5879 13.8281 26.9375 14.1973 26.5771L19.6025 21.1631L14.1973 15.7578C13.8281 15.3975 13.8193 14.7559 14.1973 14.3691C14.5752 13.9912 15.2168 14 15.5859 14.3691L20.9912 19.7744L26.3965 14.3691C26.7744 14 27.3984 14 27.7852 14.3779C28.1719 14.7471 28.1631 15.3887 27.7939 15.7578L22.3887 21.1631L27.7939 26.5771C28.1631 26.9463 28.1631 27.5791 27.7852 27.957C27.4072 28.3438 26.7744 28.335 26.3965 27.9658L20.9912 22.5605L15.5859 27.9658C15.2168 28.335 14.584 28.335 14.1973 27.957Z" fill="white"/>
</svg>