<svg width="15" height="15" viewBox="0 0 15 15" fill="none" xmlns="http://www.w3.org/2000/svg">
    <path d="M7.28516 14.126C3.42285 14.126 0.223633 10.9336 0.223633 7.06445C0.223633 3.20215 3.41602 0.00292969 7.27832 0.00292969C11.1475 0.00292969 14.3467 3.20215 14.3467 7.06445C14.3467 10.9336 11.1475 14.126 7.28516 14.126ZM5.04297 9.96289C5.22754 9.96289 5.38477 9.89453 5.51465 9.77148L7.28516 7.9873L9.06934 9.77148C9.18555 9.89453 9.34961 9.96289 9.53418 9.96289C9.89648 9.96289 10.1836 9.67578 10.1836 9.30664C10.1836 9.13574 10.1152 8.97852 9.99219 8.85547L8.20801 7.07129L9.99902 5.28027C10.1289 5.15039 10.1836 5 10.1836 4.8291C10.1836 4.4668 9.90332 4.18652 9.54785 4.18652C9.36328 4.18652 9.21973 4.24805 9.08984 4.37793L7.28516 6.16895L5.49414 4.38477C5.37109 4.26172 5.22754 4.2002 5.04297 4.2002C4.68066 4.2002 4.40039 4.47363 4.40039 4.83594C4.40039 5.00684 4.46875 5.16406 4.5918 5.28711L6.37598 7.07129L4.5918 8.8623C4.46875 8.98535 4.40039 9.14258 4.40039 9.30664C4.40039 9.67578 4.68066 9.96289 5.04297 9.96289Z" fill="black" fill-opacity="0.6" style="fill:black;fill:black;fill-opacity:0.6;"/>
</svg>