<svg width="42" height="42" viewBox="0 0 42 42" fill="none" xmlns="http://www.w3.org/2000/svg">
<rect width="42" height="42" rx="21" fill="white" fill-opacity="0.12"/>
<path d="M14.4736 27.5229C13.9922 27.0498 14.0088 26.2114 14.457 25.7632L19.2051 21.0151L14.457 16.2837C14.0088 15.8271 13.9922 14.9971 14.4736 14.5156C14.9551 14.0259 15.7935 14.0425 16.2417 14.499L20.9814 19.2388L25.7212 14.499C26.186 14.0342 26.9995 14.0342 27.481 14.5156C27.9707 14.9971 27.9707 15.8105 27.4976 16.2837L22.7661 21.0151L27.4976 25.7549C27.9707 26.228 27.9624 27.0332 27.481 27.5229C27.0078 28.0044 26.186 28.0044 25.7212 27.5396L20.9814 22.7998L16.2417 27.5396C15.7935 27.9961 14.9634 28.0044 14.4736 27.5229Z" fill="white"/>
</svg>
