<svg width="22" height="21" viewBox="0 0 22 21" fill="none" xmlns="http://www.w3.org/2000/svg">
<path d="M10.6523 19.7334C5.68652 19.7334 1.57324 15.6289 1.57324 10.6543C1.57324 5.68848 5.67773 1.5752 10.6436 1.5752C15.6182 1.5752 19.7314 5.68848 19.7314 10.6543C19.7314 15.6289 15.6182 19.7334 10.6523 19.7334ZM7.76953 14.3809C8.00684 14.3809 8.20898 14.293 8.37598 14.1348L10.6523 11.8408L12.9463 14.1348C13.0957 14.293 13.3066 14.3809 13.5439 14.3809C14.0098 14.3809 14.3789 14.0117 14.3789 13.5371C14.3789 13.3174 14.291 13.1152 14.1328 12.957L11.8389 10.6631L14.1416 8.36035C14.3086 8.19336 14.3789 8 14.3789 7.78027C14.3789 7.31445 14.0186 6.9541 13.5615 6.9541C13.3242 6.9541 13.1396 7.0332 12.9727 7.2002L10.6523 9.50293L8.34961 7.20898C8.19141 7.05078 8.00684 6.97168 7.76953 6.97168C7.30371 6.97168 6.94336 7.32324 6.94336 7.78906C6.94336 8.00879 7.03125 8.21094 7.18945 8.36914L9.4834 10.6631L7.18945 12.9658C7.03125 13.124 6.94336 13.3262 6.94336 13.5371C6.94336 14.0117 7.30371 14.3809 7.76953 14.3809Z" fill="white" style="fill:white;fill:white;fill-opacity:1;"/>
</svg>
