<svg width="22" height="22" viewBox="0 0 22 22" fill="none" xmlns="http://www.w3.org/2000/svg">
<path d="M11 19.5815C6.31006 19.5815 2.42529 15.7051 2.42529 11.0068C2.42529 6.31689 6.30176 2.43213 10.9917 2.43213C15.6899 2.43213 19.5747 6.31689 19.5747 11.0068C19.5747 15.7051 15.6899 19.5815 11 19.5815ZM6.00293 5.78564C6.41797 6.06787 6.91602 6.30859 7.49707 6.49121C7.87061 5.47852 8.36865 4.64844 8.95801 4.05908C7.8374 4.39111 6.83301 4.99707 6.00293 5.78564ZM13.0503 4.06738C13.6313 4.64844 14.1294 5.47852 14.5029 6.49951C15.084 6.30859 15.582 6.07617 15.9888 5.78564C15.167 4.99707 14.1626 4.39941 13.0503 4.06738ZM11.5811 4.33301V6.96436C12.2119 6.93945 12.8013 6.88135 13.3491 6.78174C12.9009 5.56152 12.27 4.66504 11.5811 4.33301ZM8.65088 6.78174C9.19873 6.88135 9.78809 6.93945 10.4189 6.96436V4.33301C9.72998 4.66504 9.10742 5.56152 8.65088 6.78174ZM3.77832 10.4258H6.7666C6.80811 9.40479 6.94922 8.44189 7.16504 7.57861C6.40137 7.33789 5.74561 7.01416 5.23926 6.64062C4.42578 7.71143 3.89453 9.01465 3.77832 10.4258ZM15.2334 10.4258H18.2217C18.1055 9.01465 17.5742 7.71143 16.7524 6.64062C16.2544 7.02246 15.5986 7.33789 14.835 7.57861C15.0508 8.44189 15.1919 9.40479 15.2334 10.4258ZM7.95361 10.4258H10.4189V8.12646C9.68018 8.09326 8.97461 8.01025 8.31055 7.87744C8.11963 8.65771 7.99512 9.521 7.95361 10.4258ZM11.5811 10.4258H14.0464C14.0049 9.521 13.8804 8.65771 13.6895 7.87744C13.0254 8.01025 12.3198 8.09326 11.5811 8.12646V10.4258ZM3.77832 11.5879C3.89453 13.0073 4.43408 14.3188 5.26416 15.3979C5.76221 15.0244 6.40967 14.709 7.16504 14.4683C6.94922 13.5967 6.80811 12.6255 6.7666 11.5879H3.77832ZM7.95361 11.5879C7.98682 12.501 8.11963 13.3809 8.31885 14.1694C8.97461 14.0449 9.68848 13.9619 10.4189 13.9287V11.5879H7.95361ZM11.5811 13.9287C12.3198 13.9619 13.0254 14.0449 13.6812 14.1694C13.8804 13.3809 14.0132 12.501 14.0464 11.5879H11.5811V13.9287ZM14.835 14.4683C15.5903 14.709 16.2378 15.0244 16.7358 15.3979C17.5659 14.3188 18.1055 13.0073 18.2217 11.5879H15.2334C15.1919 12.6255 15.0591 13.5967 14.835 14.4683ZM11.5811 15.0908V17.6807C12.2617 17.3569 12.8843 16.4688 13.3325 15.2734C12.793 15.1738 12.2036 15.1157 11.5811 15.0908ZM8.66748 15.2734C9.11572 16.4688 9.73828 17.3569 10.4189 17.6807V15.0908C9.79639 15.1157 9.20703 15.1738 8.66748 15.2734ZM6.02783 16.2529C6.84961 17.0249 7.8457 17.6143 8.94141 17.9463C8.36865 17.3652 7.87891 16.5518 7.50537 15.5557C6.93262 15.7383 6.43457 15.9707 6.02783 16.2529ZM14.4946 15.5557C14.1211 16.5518 13.6313 17.3652 13.0586 17.9463C14.1543 17.6143 15.1504 17.0249 15.9722 16.2529C15.5654 15.9707 15.0674 15.7383 14.4946 15.5557Z" fill="white" fill-opacity="1"/>
</svg>
