<svg width="15" height="15" viewBox="0 0 15 15" fill="none" xmlns="http://www.w3.org/2000/svg">
<path d="M13.4395 14.1885L0.758789 1.50781C0.553711 1.30273 0.553711 0.947266 0.758789 0.742188C0.970703 0.523438 1.31934 0.530273 1.53125 0.742188L14.2051 13.416C14.4238 13.6279 14.417 13.9697 14.2051 14.1816C14 14.4004 13.6514 14.4004 13.4395 14.1885ZM9.76172 4.34473C9.76172 5.30176 9.36523 6.13574 8.75 6.68262L4.74414 2.67676C5.24316 1.89746 6.08398 1.38477 7 1.38477C8.49023 1.38477 9.76172 2.66309 9.76172 4.34473ZM1.22363 12.7734C1.22363 11.0918 3.27441 8.78809 6.58301 8.61035L11.7031 13.7305C11.6553 13.7373 11.6074 13.7373 11.5527 13.7373H2.44727C1.68164 13.7373 1.22363 13.375 1.22363 12.7734Z" fill="white" fill-opacity="0.6"/>
</svg>
