<svg width="17" height="18" viewBox="0 0 17 18" fill="none" xmlns="http://www.w3.org/2000/svg">
    <path d="M8.28516 15.626C4.42285 15.626 1.22363 12.4336 1.22363 8.56445C1.22363 4.70215 4.41602 1.50293 8.27832 1.50293C12.1475 1.50293 15.3467 4.70215 15.3467 8.56445C15.3467 12.4336 12.1475 15.626 8.28516 15.626ZM4.79199 10.2393C5.03809 10.4922 5.4209 10.4922 5.64648 10.2461L8.29199 7.44336L10.9307 10.2461C11.1562 10.4922 11.5391 10.4922 11.792 10.2393C12.0107 10.0273 12.0039 9.64453 11.7646 9.39844L9.04395 6.5C8.58594 6.00781 7.99121 6.01465 7.5332 6.5L4.8125 9.39844C4.57324 9.65137 4.57324 10.0273 4.79199 10.2393Z" fill="black"/>
</svg>