<svg width="17" height="17" viewBox="0 0 17 17" fill="none" xmlns="http://www.w3.org/2000/svg">
    <path d="M8.28516 15.1328C4.42285 15.1328 1.22363 11.9404 1.22363 8.07129C1.22363 4.20898 4.41602 1.00977 8.27832 1.00977C12.1475 1.00977 15.3467 4.20898 15.3467 8.07129C15.3467 11.9404 12.1475 15.1328 8.28516 15.1328ZM5.21582 8.5498C5.21582 8.74121 5.36621 8.87793 5.56445 8.87793H7.89551L6.65137 12.2002C6.4668 12.6787 6.98633 12.9453 7.30078 12.5625L11.1289 7.79785C11.2109 7.70898 11.252 7.59961 11.252 7.50391C11.252 7.3125 11.1016 7.16895 10.9033 7.16895H8.57227L9.81641 3.84668C10.001 3.375 9.48145 3.1084 9.16016 3.49121L5.33203 8.25586C5.25684 8.34473 5.21582 8.4541 5.21582 8.5498Z" fill="white" fill-opacity="0.6"/>
</svg>