<svg width="21" height="23" viewBox="0 0 21 23" fill="none" xmlns="http://www.w3.org/2000/svg">
<path d="M20.0713 7.85742V19.8545C20.0713 21.7529 19.0957 22.7373 17.2236 22.7373H8.86523C6.99316 22.7373 6.01758 21.7529 6.01758 19.8545V19.3711C4.3916 19.5293 3.38965 18.7207 3.08203 16.9805L0.999023 5.17676C0.673828 3.2959 1.46484 2.15332 3.31055 1.83691L11.5283 0.386719C13.3828 0.0615234 14.5166 0.852539 14.8418 2.7334L15.2373 4.97461H17.2236C19.0957 4.97461 20.0713 5.95898 20.0713 7.85742ZM4.76074 16.5762C4.88379 17.3057 5.30566 17.6836 6.01758 17.6309V7.85742C6.01758 5.95898 6.99316 4.97461 8.86523 4.97461H13.4971L13.1631 3.12891C13.0225 2.3291 12.5303 1.95996 11.6865 2.10938L3.75 3.50684C2.90625 3.65625 2.57227 4.16602 2.71289 4.96582L4.76074 16.5762ZM18.3486 7.96289C18.3486 7.14551 17.9268 6.69727 17.0742 6.69727H9.01465C8.16211 6.69727 7.74023 7.14551 7.74023 7.96289V19.749C7.74023 20.5576 8.16211 21.0146 9.01465 21.0146H17.0742C17.9268 21.0146 18.3486 20.5576 18.3486 19.749V7.96289Z" fill="black" />
</svg>
