<svg width="14" height="16" viewBox="0 0 14 16" fill="none" xmlns="http://www.w3.org/2000/svg">
<path d="M13.2559 5.23828V13.2363C13.2559 14.502 12.6055 15.1582 11.3574 15.1582H5.78516C4.53711 15.1582 3.88672 14.502 3.88672 13.2363V12.9141C2.80273 13.0195 2.13477 12.4805 1.92969 11.3203L0.541016 3.45117C0.324219 2.19727 0.851562 1.43555 2.08203 1.22461L7.56055 0.257812C8.79688 0.0410156 9.55273 0.568359 9.76953 1.82227L10.0332 3.31641H11.3574C12.6055 3.31641 13.2559 3.97266 13.2559 5.23828ZM3.04883 11.0508C3.13086 11.5371 3.41211 11.7891 3.88672 11.7539V5.23828C3.88672 3.97266 4.53711 3.31641 5.78516 3.31641H8.87305L8.65039 2.08594C8.55664 1.55273 8.22852 1.30664 7.66602 1.40625L2.375 2.33789C1.8125 2.4375 1.58984 2.77734 1.68359 3.31055L3.04883 11.0508ZM12.1074 5.30859C12.1074 4.76367 11.8262 4.46484 11.2578 4.46484H5.88477C5.31641 4.46484 5.03516 4.76367 5.03516 5.30859V13.166C5.03516 13.7051 5.31641 14.0098 5.88477 14.0098H11.2578C11.8262 14.0098 12.1074 13.7051 12.1074 13.166V5.30859Z" fill="black" />
</svg>
