<svg width="30" height="23" viewBox="0 0 30 23" fill="none" xmlns="http://www.w3.org/2000/svg">
    <path d="M3.52344 20.0449C1.20312 20.0449 0 18.8525 0 16.5645V3.48047C0 1.18164 1.20312 0 3.52344 0H21.9248C24.2451 0 25.4482 1.19238 25.4482 3.48047V9.52832C25.1045 9.47461 24.75 9.43164 24.3955 9.43164C24.041 9.43164 23.6865 9.47461 23.3428 9.52832V3.66309C23.3428 2.62109 22.7842 2.09473 21.7959 2.09473H3.65234C2.65332 2.09473 2.10547 2.62109 2.10547 3.66309V15.168L5.07031 12.4932C5.52148 12.085 5.96191 11.8916 6.45605 11.8916C6.96094 11.8916 7.45508 12.1064 7.90625 12.5039L9.89355 14.2979L14.7383 9.95801C15.2324 9.52832 15.7588 9.32422 16.3496 9.32422C16.9189 9.32422 17.4883 9.53906 17.9609 9.97949L19.5186 11.4404C18.1758 12.708 17.3486 14.502 17.3486 16.4893C17.3486 17.7783 17.7139 19.0029 18.3369 20.0449H3.52344ZM8.3252 10.2158C6.89648 10.2158 5.74707 9.05566 5.74707 7.6377C5.74707 6.23047 6.89648 5.05957 8.3252 5.05957C9.73242 5.05957 10.8926 6.23047 10.8926 7.6377C10.8926 9.05566 9.73242 10.2158 8.3252 10.2158ZM24.4062 22.0107C21.377 22.0107 18.874 19.5186 18.874 16.4893C18.874 13.46 21.377 10.957 24.4062 10.957C27.4355 10.957 29.9277 13.46 29.9277 16.4893C29.9277 19.5078 27.4033 22.0107 24.4062 22.0107ZM24.4062 19.9912C24.8467 19.9912 25.1367 19.7012 25.1367 19.2607V17.2197H27.1777C27.6074 17.2197 27.8975 16.9297 27.8975 16.4893C27.8975 16.0488 27.6074 15.7588 27.1777 15.7588H25.1367V13.7178C25.1367 13.2881 24.8467 12.9873 24.4062 12.9873C23.9551 12.9873 23.6758 13.2881 23.6758 13.7178V15.7588H21.6348C21.1943 15.7588 20.9043 16.0488 20.9043 16.4893C20.9043 16.9297 21.2051 17.2197 21.6348 17.2197H23.6758V19.2607C23.6758 19.7012 23.9551 19.9912 24.4062 19.9912Z" fill="white" style="fill:white;fill-opacity:1;"/>
</svg>