<svg width="38" height="38" viewBox="0 0 38 38" fill="none" xmlns="http://www.w3.org/2000/svg">
    <rect x="0.5" y="0.5" width="37" height="37" rx="11.5" stroke="black" stroke-opacity="0.08"/>
    <path d="M19 18.9072C17.5098 18.9072 16.2451 17.5811 16.2451 15.8789C16.2451 14.2109 17.5166 12.9121 19 12.9121C20.4902 12.9121 21.7617 14.1904 21.7617 15.8652C21.7617 17.5811 20.4971 18.9072 19 18.9072ZM25.3779 19.4609C26.5605 19.4609 27.5176 20.418 27.5176 21.5938C27.5176 22.4961 26.9639 23.2412 25.9863 23.6582L26.7998 24.4785C26.9023 24.5742 26.8955 24.7109 26.8135 24.793L25.9658 25.627L26.5674 26.2285C26.6562 26.3174 26.6631 26.4473 26.5674 26.543L25.5283 27.5752C25.4395 27.6709 25.3096 27.6572 25.2344 27.582L24.667 27.0215C24.5986 26.96 24.5576 26.8711 24.5576 26.7754V23.5898C23.751 23.2617 23.2314 22.4893 23.2314 21.5938C23.2314 20.418 24.1816 19.4609 25.3779 19.4609ZM14.4473 25.2646C13.6816 25.2646 13.2236 24.9023 13.2236 24.2939C13.2236 22.5371 15.459 20.1172 19 20.1172C20.2578 20.1172 21.3447 20.4248 22.2197 20.8965C22.1719 21.1152 22.1514 21.3477 22.1514 21.5801C22.1514 22.6465 22.6504 23.6104 23.4707 24.1982V25.2646H14.4473ZM25.3711 20.4385C25.0088 20.4385 24.7148 20.7393 24.7148 21.0879C24.7148 21.457 25.0156 21.7441 25.3711 21.7441C25.7266 21.7441 26.0137 21.457 26.0137 21.0879C26.0137 20.7393 25.7266 20.4385 25.3711 20.4385Z" fill="black"/>
</svg>