<svg width="25" height="27" viewBox="0 0 25 27" fill="none" xmlns="http://www.w3.org/2000/svg">
<path d="M7.30859 26.9141C5.29297 26.9141 4.07422 25.8125 3.98047 23.7969L3.20703 7.17969H2.10547C1.36719 7.17969 0.792969 6.64062 0.792969 5.89062C0.792969 5.15234 1.36719 4.61328 2.10547 4.61328H7.07422V2.91406C7.07422 0.957031 8.29297 -0.144531 10.4727 -0.144531H14.9375C17.1172 -0.144531 18.3477 0.957031 18.3477 2.91406V4.61328H23.3164C24.0664 4.61328 24.6406 5.15234 24.6406 5.89062C24.6406 6.64062 24.0781 7.17969 23.3164 7.17969H22.2266L21.4531 23.7969C21.3594 25.8008 20.1289 26.9141 18.125 26.9141H7.30859ZM9.7695 3.00781V4.61328H15.6523V3.00781C15.6523 2.50391 15.3008 2.19922 14.7383 2.19922H10.6719C10.1211 2.19922 9.7695 2.50391 9.7695 3.00781ZM9.0898 23.1523C9.6992 23.1523 10.0977 22.7656 10.0742 22.1797L9.7109 9.72266C9.6875 9.13672 9.2891 8.76172 8.70312 8.76172C8.09375 8.76172 7.70703 9.14844 7.71875 9.73438L8.08203 22.1914C8.11719 22.7773 8.50391 23.1523 9.0898 23.1523ZM12.7109 23.1523C13.3086 23.1523 13.707 22.7773 13.707 22.2031V9.72266C13.707 9.13672 13.3086 8.76172 12.7109 8.76172C12.125 8.76172 11.7266 9.13672 11.7266 9.72266V22.2031C11.7266 22.7773 12.125 23.1523 12.7109 23.1523ZM16.3438 23.1523C16.9297 23.1523 17.3164 22.7773 17.3398 22.1914L17.7031 9.73438C17.7266 9.14844 17.3398 8.76172 16.7305 8.76172C16.1445 8.76172 15.7461 9.13672 15.7227 9.72266L15.3477 22.1797C15.3359 22.7656 15.7227 23.1523 16.3438 23.1523Z" fill="#FA3737"/>
</svg>
