<svg width="38" height="38" viewBox="0 0 38 38" fill="none" xmlns="http://www.w3.org/2000/svg">
<rect width="38" height="38" rx="19" fill="black"/>
<rect x="0.5" y="0.5" width="37" height="37" rx="18.5" stroke="black" stroke-opacity="0.08"/>
<path d="M12.8955 16.8564C12.4648 16.8564 12.2256 16.6172 12.2256 16.1797V14.5186C12.2256 13.0625 12.9912 12.3037 14.4678 12.3037H16.1289C16.5664 12.3037 16.8057 12.543 16.8057 12.9736C16.8057 13.4043 16.5664 13.6436 16.1289 13.6436H14.5498C13.9141 13.6436 13.5654 13.9717 13.5654 14.6348V16.1797C13.5654 16.6172 13.333 16.8564 12.8955 16.8564ZM25.0977 16.8564C24.667 16.8564 24.4277 16.6172 24.4277 16.1797V14.6348C24.4277 13.9717 24.0723 13.6436 23.4434 13.6436H21.8643C21.4268 13.6436 21.1875 13.4043 21.1875 12.9736C21.1875 12.543 21.4268 12.3037 21.8643 12.3037H23.5254C25.002 12.3037 25.7676 13.0625 25.7676 14.5186V16.1797C25.7676 16.6172 25.5352 16.8564 25.0977 16.8564ZM16.0264 18.7773C15.8555 18.7773 15.7256 18.6475 15.7256 18.4834V16.1045C15.7256 15.9404 15.8555 15.8037 16.0264 15.8037H18.3984C18.5693 15.8037 18.6992 15.9404 18.6992 16.1045V18.4834C18.6992 18.6475 18.5693 18.7773 18.3984 18.7773H16.0264ZM19.5879 18.7773C19.417 18.7773 19.2871 18.6475 19.2871 18.4834V16.1045C19.2871 15.9404 19.417 15.8037 19.5879 15.8037H21.96C22.1309 15.8037 22.2607 15.9404 22.2607 16.1045V18.4834C22.2607 18.6475 22.1309 18.7773 21.96 18.7773H19.5879ZM16.3203 18.1826H18.1045V16.3984H16.3203V18.1826ZM19.8818 18.1826H21.666V16.3984H19.8818V18.1826ZM16.8398 17.6631V16.918H17.585V17.6631H16.8398ZM20.4014 17.6631V16.918H21.1465V17.6631H20.4014ZM16.0264 22.3389C15.8555 22.3389 15.7256 22.2158 15.7256 22.0449V19.666C15.7256 19.502 15.8555 19.3721 16.0264 19.3721H18.3984C18.5693 19.3721 18.6992 19.502 18.6992 19.666V22.0449C18.6992 22.2158 18.5693 22.3389 18.3984 22.3389H16.0264ZM19.376 20.1992V19.4541H20.1211V20.1992H19.376ZM21.4268 20.1992V19.4541H22.1719V20.1992H21.4268ZM16.3203 21.751H18.1045V19.96H16.3203V21.751ZM16.8398 21.2246V20.4795H17.585V21.2246H16.8398ZM20.4014 21.2246V20.4795H21.1465V21.2246H20.4014ZM14.4678 25.8457C12.9912 25.8457 12.2256 25.0869 12.2256 23.624V21.9629C12.2256 21.5254 12.458 21.2861 12.8955 21.2861C13.3262 21.2861 13.5654 21.5254 13.5654 21.9629V23.5078C13.5654 24.1777 13.9141 24.5059 14.5498 24.5059H16.1289C16.5664 24.5059 16.8057 24.7451 16.8057 25.1758C16.8057 25.6064 16.5664 25.8457 16.1289 25.8457H14.4678ZM21.8643 25.8457C21.4268 25.8457 21.1875 25.6064 21.1875 25.1758C21.1875 24.7451 21.4268 24.5059 21.8643 24.5059H23.4434C24.0723 24.5059 24.4277 24.1777 24.4277 23.5078V21.9629C24.4277 21.5322 24.6602 21.2861 25.0977 21.2861C25.5283 21.2861 25.7676 21.5254 25.7676 21.9629V23.624C25.7676 25.0869 25.002 25.8457 23.5254 25.8457H21.8643ZM19.376 22.25V21.5117H20.1211V22.25H19.376ZM21.4268 22.25V21.5117H22.1719V22.25H21.4268Z" fill="white"/>
</svg>
