<svg width="29" height="29" viewBox="0 0 29 29" fill="none" xmlns="http://www.w3.org/2000/svg">
<path d="M14.5 26.9258C7.71484 26.9258 2.125 21.3359 2.125 14.5391C2.125 7.75391 7.70312 2.16406 14.5 2.16406C21.2852 2.16406 26.875 7.75391 26.875 14.5391C26.875 21.3359 21.2969 26.9258 14.5 26.9258ZM14.5 23.8438C19.6562 23.8438 23.793 19.6953 23.793 14.5391C23.793 9.39453 19.6445 5.24609 14.5 5.24609C9.34375 5.24609 5.21875 9.39453 5.21875 14.5391C5.21875 19.6953 9.35547 23.8438 14.5 23.8438ZM14.5 21.6406C13.5156 21.6406 12.8594 20.9492 12.8594 19.9062V9.17188C12.8594 8.11719 13.5156 7.42578 14.5 7.42578C15.4961 7.42578 16.1406 8.11719 16.1406 9.17188V19.9062C16.1406 20.9492 15.4961 21.6406 14.5 21.6406Z" fill="white"/>
</svg>
