<svg width="17" height="18" viewBox="0 0 17 18" fill="none" xmlns="http://www.w3.org/2000/svg">
    <path d="M8.44238 15.79C4.48438 15.79 1.22363 12.5293 1.22363 8.56445C1.22363 4.60645 4.47754 1.3457 8.44238 1.3457C12.4004 1.3457 15.6611 4.60645 15.6611 8.56445C15.6611 12.5293 12.4072 15.79 8.44238 15.79ZM7.69043 11.9961C7.98438 11.9961 8.25098 11.8457 8.42871 11.5859L11.6006 6.73242C11.7236 6.55469 11.792 6.37012 11.792 6.19922C11.792 5.77539 11.416 5.47461 11.0059 5.47461C10.7393 5.47461 10.5137 5.61816 10.3359 5.90527L7.66992 10.1436L6.48047 8.67383C6.2959 8.45508 6.10449 8.35938 5.8584 8.35938C5.44141 8.35938 5.09961 8.69434 5.09961 9.11816C5.09961 9.31641 5.16113 9.4873 5.31836 9.67871L6.9248 11.5928C7.14355 11.8594 7.38281 11.9961 7.69043 11.9961Z" fill="#75FA37"/>
</svg>