<svg width="20" height="22" viewBox="0 0 20 22" fill="none" xmlns="http://www.w3.org/2000/svg">
<path d="M3.42578 12.9297C2.44141 12.9297 1.65039 12.1387 1.65039 11.1543C1.65039 10.1699 2.44141 9.37891 3.42578 9.37891C4.41016 9.37891 5.20117 10.1699 5.20117 11.1543C5.20117 12.1387 4.41016 12.9297 3.42578 12.9297ZM10 12.9297C9.01562 12.9297 8.22461 12.1387 8.22461 11.1543C8.22461 10.1699 9.01562 9.37891 10 9.37891C10.9756 9.37891 11.7754 10.1699 11.7754 11.1543C11.7754 12.1387 10.9756 12.9297 10 12.9297ZM16.5654 12.9297C15.5811 12.9297 14.79 12.1387 14.79 11.1543C14.79 10.1699 15.5811 9.37891 16.5654 9.37891C17.5498 9.37891 18.3408 10.1699 18.3408 11.1543C18.3408 12.1387 17.5498 12.9297 16.5654 12.9297Z" fill="white"/>
</svg>
