<svg width="42" height="21" viewBox="0 0 42 21" fill="none" xmlns="http://www.w3.org/2000/svg">
<path d="M31.3477 19.7334C26.3818 19.7334 22.2686 15.6289 22.2686 10.6543C22.2686 5.68848 26.373 1.5752 31.3389 1.5752C36.3135 1.5752 40.4268 5.68848 40.4268 10.6543C40.4268 15.6289 36.3135 19.7334 31.3477 19.7334ZM31.3477 17.9492C35.3906 17.9492 38.6426 14.6973 38.6426 10.6543C38.6426 6.61133 35.3818 3.36816 31.3389 3.36816C27.2959 3.36816 24.0615 6.61133 24.0615 10.6543C24.0615 14.6973 27.3047 17.9492 31.3477 17.9492ZM32.2793 13.458C31.708 14.0645 30.9785 14.0645 30.416 13.458L27.041 9.87207C26.7598 9.56445 26.751 9.11621 27.0146 8.83496C27.3135 8.52734 27.7969 8.52734 28.0781 8.82617L31.3477 12.2979L34.6172 8.82617C34.8984 8.52734 35.3643 8.53613 35.6719 8.83496C35.9443 9.10742 35.9355 9.56445 35.6455 9.87207L32.2793 13.458Z" fill="black" fill-opacity="0.38" style="fill:black;fill:black;fill-opacity:0.38;"/>
</svg>
