<svg width="22" height="21" viewBox="0 0 22 21" fill="none" xmlns="http://www.w3.org/2000/svg">
<path d="M10.6523 19.7334C5.68652 19.7334 1.57324 15.6289 1.57324 10.6543C1.57324 5.68848 5.67773 1.5752 10.6436 1.5752C15.6182 1.5752 19.7314 5.68848 19.7314 10.6543C19.7314 15.6289 15.6182 19.7334 10.6523 19.7334ZM11.6367 13.5459L15.1348 9.82812C15.4424 9.50293 15.4512 9.01953 15.1699 8.73828C14.8359 8.42188 14.3525 8.41309 14.0537 8.72949L10.6611 12.333L7.26855 8.72949C6.97852 8.41309 6.47754 8.41309 6.16113 8.73828C5.87988 9.02832 5.88867 9.50293 6.19629 9.82812L9.68555 13.5459C10.2832 14.1787 11.0391 14.1787 11.6367 13.5459Z" fill="#121111" style="fill:#121111;fill-opacity:1;"/>
</svg>
