<svg width="22" height="21" viewBox="0 0 22 21" fill="none" xmlns="http://www.w3.org/2000/svg">
<path d="M10.6523 19.7422C5.68652 19.7422 1.57324 15.6377 1.57324 10.6631C1.57324 5.69727 5.67773 1.58398 10.6436 1.58398C15.6182 1.58398 19.7314 5.69727 19.7314 10.6631C19.7314 15.6377 15.6182 19.7422 10.6523 19.7422ZM14.2207 8.21973L14.8887 7.56055C15.2051 7.24414 15.2227 6.86621 14.9238 6.56738L14.7041 6.34766C14.4053 6.04883 14.0361 6.0752 13.7197 6.3916L13.0518 7.05078L14.2207 8.21973ZM7.83984 14.5918L13.6758 8.77344L12.498 7.5957L6.67969 13.4229L6.16992 14.6357C6.05566 14.917 6.32812 15.1543 6.57422 15.0664L7.83984 14.5918Z" fill="#121111" style="fill:#121111;fill-opacity:1;"/>
</svg>
