<svg width="22" height="22" viewBox="0 0 22 22" fill="none" xmlns="http://www.w3.org/2000/svg">
    <path d="M10.9219 19.9223C15.8454 19.9223 19.9219 15.8479 19.9219 10.9268C19.9219 6.01445 15.8366 1.93115 10.913 1.93115C5.99834 1.93115 1.92188 6.01445 1.92188 10.9268C1.92188 15.8479 6.00716 19.9223 10.9219 19.9223Z" fill="white"/>
    <path d="M8.01029 14.8689L6.74853 15.3452C6.55441 15.4158 6.33382 15.2218 6.43088 14.9925L6.94265 13.793L12.8897 7.84887L13.975 8.93364L8.01029 14.8689ZM14.522 8.38684L13.4367 7.31091L14.1073 6.64064C14.4074 6.35843 14.7427 6.32315 15.0162 6.59654L15.2191 6.80821C15.5015 7.0816 15.4838 7.42555 15.1838 7.7254L14.522 8.38684Z" fill="black"/>
</svg>
