<svg width="94" height="26" viewBox="0 0 94 26" fill="none" xmlns="http://www.w3.org/2000/svg">
<path d="M13.0195 24.3408C6.9502 24.3408 1.92285 19.3242 1.92285 13.2441C1.92285 7.1748 6.93945 2.14746 13.0088 2.14746C19.0889 2.14746 24.1162 7.1748 24.1162 13.2441C24.1162 19.3242 19.0889 24.3408 13.0195 24.3408ZM11.8271 18.5508C12.2246 18.5508 12.5684 18.3467 12.8154 17.9814L17.8428 10.1396C17.9932 9.90332 18.1221 9.63477 18.1221 9.3877C18.1221 8.8291 17.6387 8.45312 17.1016 8.45312C16.7578 8.45312 16.457 8.63574 16.2314 9.01172L11.7842 16.123L9.71094 13.4912C9.44238 13.1475 9.18457 13.0186 8.85156 13.0186C8.29297 13.0186 7.86328 13.4697 7.86328 14.0176C7.86328 14.2861 7.95996 14.5439 8.15332 14.7803L10.7852 17.9814C11.0859 18.3682 11.4189 18.5508 11.8271 18.5508Z" fill="white"/>
<path d="M80.0195 24.3408C73.9502 24.3408 68.9229 19.3242 68.9229 13.2441C68.9229 7.1748 73.9395 2.14746 80.0088 2.14746C86.0889 2.14746 91.1162 7.1748 91.1162 13.2441C91.1162 19.3242 86.0889 24.3408 80.0195 24.3408ZM77.4951 18.2607H83.167C83.7041 18.2607 84.0801 17.9277 84.0801 17.3906C84.0801 16.8535 83.7148 16.5312 83.167 16.5312H79.5254V16.4561L81.8779 13.9854C82.9307 12.9219 83.6074 12.0303 83.6074 10.8379C83.6074 9.11914 82.1895 7.96973 80.0625 7.96973C78.4082 7.96973 76.9795 8.9043 76.6035 10.1611C76.5391 10.3438 76.5176 10.4941 76.5176 10.666C76.5176 11.1709 76.8721 11.4932 77.4092 11.4932C77.8711 11.4932 78.0967 11.2246 78.3115 10.9023C78.6016 10.3008 79.1172 9.65625 80.084 9.65625C81.0186 9.65625 81.6309 10.1934 81.6309 11.0098C81.6309 11.7402 81.0293 12.374 80.3418 13.0615L76.9473 16.5742C76.668 16.8535 76.5713 17.1221 76.5713 17.4121C76.5713 17.9277 76.9258 18.2607 77.4951 18.2607Z" fill="white"/>
<line x1="33.5" y1="13.5" x2="60.5" y2="13.5" stroke="white" stroke-linecap="round" stroke-dasharray="1 4"/>
</svg>
