<svg width="94" height="26" viewBox="0 0 94 26" fill="none" xmlns="http://www.w3.org/2000/svg">
<path d="M13.0195 24.3408C6.9502 24.3408 1.92285 19.3242 1.92285 13.2441C1.92285 7.1748 6.93945 2.14746 13.0088 2.14746C19.0889 2.14746 24.1162 7.1748 24.1162 13.2441C24.1162 19.3242 19.0889 24.3408 13.0195 24.3408ZM13.6748 18.5186C14.3516 18.5186 14.7598 18.1104 14.7598 17.3477V9.14062C14.7598 8.41016 14.3086 7.96973 13.5781 7.96973C13.0947 7.96973 12.7402 8.08789 12.2031 8.45312L10.2695 9.76367C9.96875 9.96777 9.83984 10.1719 9.83984 10.5156C9.83984 10.9346 10.1514 11.2891 10.5703 11.2891C10.7744 11.2891 10.9033 11.2676 11.1934 11.0742L12.5254 10.1934H12.6006V17.3477C12.6006 18.1104 13.0088 18.5186 13.6748 18.5186Z" fill="white"/>
<path d="M80.0195 24.3408C73.9502 24.3408 68.9229 19.3242 68.9229 13.2441C68.9229 7.1748 73.9395 2.14746 80.0088 2.14746C86.0889 2.14746 91.1162 7.1748 91.1162 13.2441C91.1162 19.3242 86.0889 24.3408 80.0195 24.3408ZM80.0195 22.1602C84.9609 22.1602 88.9355 18.1855 88.9355 13.2441C88.9355 8.30273 84.9502 4.33887 80.0088 4.33887C75.0674 4.33887 71.1143 8.30273 71.1143 13.2441C71.1143 18.1855 75.0781 22.1602 80.0195 22.1602ZM77.5811 18.0674C77.0439 18.0674 76.7002 17.7451 76.7002 17.251C76.7002 16.9824 76.7969 16.7246 77.0654 16.4668L80.3311 13.0615C80.9863 12.4062 81.5771 11.7939 81.5771 11.085C81.5771 10.29 80.9756 9.77441 80.0732 9.77441C79.1387 9.77441 78.6338 10.3975 78.3545 10.9883C78.1611 11.2998 77.9355 11.5469 77.4951 11.5469C76.9902 11.5469 76.6572 11.2461 76.6572 10.752C76.6572 10.6016 76.668 10.4512 76.7217 10.2793C77.0869 9.06543 78.4619 8.16309 80.0518 8.16309C82.0928 8.16309 83.457 9.26953 83.457 10.9238C83.457 12.0732 82.8125 12.9219 81.792 13.9531L79.5039 16.3379V16.4238H83.0381C83.5537 16.4238 83.9082 16.7246 83.9082 17.2402C83.9082 17.7451 83.5537 18.0674 83.0381 18.0674H77.5811Z" fill="white" fill-opacity="0.6"/>
<line x1="33.5" y1="13.5" x2="60.5" y2="13.5" stroke="white" stroke-opacity="0.38" stroke-linecap="round" stroke-dasharray="1 4"/>
</svg>
