<svg width="17" height="18" viewBox="0 0 17 18" fill="none" xmlns="http://www.w3.org/2000/svg">
    <path d="M8.5 15.626C4.6377 15.626 1.43848 12.4336 1.43848 8.56445C1.43848 4.70215 4.63086 1.50293 8.49316 1.50293C12.3623 1.50293 15.5615 4.70215 15.5615 8.56445C15.5615 12.4336 12.3623 15.626 8.5 15.626ZM8.5 9.74707C8.88965 9.74707 9.11523 9.52832 9.12891 9.11816L9.23145 5.67969C9.24512 5.2627 8.93066 4.96191 8.49316 4.96191C8.05566 4.96191 7.74805 5.25586 7.76172 5.67285L7.86426 9.11816C7.87793 9.52148 8.10352 9.74707 8.5 9.74707ZM8.5 12.0986C8.95801 12.0986 9.33398 11.7773 9.33398 11.3193C9.33398 10.875 8.96484 10.54 8.5 10.54C8.04199 10.54 7.66602 10.875 7.66602 11.3193C7.66602 11.7705 8.04883 12.0986 8.5 12.0986Z" fill="white" fill-opacity="0.6"/>
</svg>