<svg width="16" height="15" viewBox="0 0 16 15" fill="none" xmlns="http://www.w3.org/2000/svg">
<path d="M8 14.126C4.1377 14.126 0.938477 10.9336 0.938477 7.06445C0.938477 3.20215 4.13086 0.00292969 7.99316 0.00292969C11.8623 0.00292969 15.0615 3.20215 15.0615 7.06445C15.0615 10.9336 11.8623 14.126 8 14.126ZM8 12.7383C11.1445 12.7383 13.6738 10.209 13.6738 7.06445C13.6738 3.91992 11.1377 1.39746 7.99316 1.39746C4.84863 1.39746 2.33301 3.91992 2.33301 7.06445C2.33301 10.209 4.85547 12.7383 8 12.7383ZM7.99316 8.20605C7.61035 8.20605 7.39844 7.9873 7.38477 7.60449L7.28906 4.27539C7.27539 3.87891 7.5625 3.5918 7.98633 3.5918C8.40332 3.5918 8.7041 3.87891 8.69043 4.28223L8.58789 7.60449C8.57422 7.99414 8.3623 8.20605 7.99316 8.20605ZM7.99316 10.4688C7.55566 10.4688 7.19336 10.1475 7.19336 9.7168C7.19336 9.29297 7.54883 8.97168 7.99316 8.97168C8.4375 8.97168 8.79297 9.28613 8.79297 9.7168C8.79297 10.1543 8.43066 10.4688 7.99316 10.4688Z" fill="white"/>
</svg>
