<svg width="44" height="45" viewBox="0 0 44 45" fill="none" xmlns="http://www.w3.org/2000/svg">
<path d="M22 44.4023C10.0332 44.4023 0.0859375 34.4551 0.0859375 22.4883C0.0859375 10.5 10.0117 0.574219 21.9785 0.574219C33.9668 0.574219 43.9141 10.5 43.9141 22.4883C43.9141 34.4551 33.9883 44.4023 22 44.4023ZM22 26.4844C23.0742 26.4844 23.6973 25.8828 23.7188 24.7227L24.0195 13.0352C24.041 11.8965 23.1602 11.0586 21.9785 11.0586C20.7754 11.0586 19.9375 11.875 19.959 13.0137L20.2383 24.7227C20.2598 25.8613 20.8828 26.4844 22 26.4844ZM22 33.6816C23.2891 33.6816 24.4062 32.6719 24.4062 31.3828C24.4062 30.0938 23.3105 29.0625 22 29.0625C20.6895 29.0625 19.5938 30.1152 19.5938 31.3828C19.5938 32.6504 20.7109 33.6816 22 33.6816Z" fill="white"/>
</svg>
