<svg width="12" height="12" viewBox="0 0 12 12" fill="none" xmlns="http://www.w3.org/2000/svg">
<path d="M5.54688 11.665C4.84375 11.665 4.57031 11.4502 4.57031 10.7373V8.26172L2.44629 9.49219C2.22168 9.61426 2.03613 9.69238 1.87012 9.69238C1.58203 9.69238 1.37695 9.50195 1.16211 9.13086L1.08887 9.00879C0.957031 8.77441 0.878906 8.56934 0.878906 8.39844C0.878906 8.11523 1.07422 7.90527 1.4209 7.70996L3.62305 6.44531L1.43066 5.23926C1.07422 5.03906 0.893555 4.8291 0.893555 4.5459C0.893555 4.375 0.966797 4.1748 1.0791 3.94043L1.15234 3.81348C1.33789 3.42773 1.56738 3.2373 1.8457 3.2373C2.02148 3.2373 2.22656 3.32031 2.45117 3.44727L4.57031 4.67773V2.2168C4.57031 1.50391 4.84375 1.28906 5.54688 1.28906H5.69824C6.40137 1.28906 6.6748 1.50391 6.6748 2.21191V4.6875L8.79883 3.44727C9.01855 3.3252 9.20898 3.25195 9.375 3.25195C9.65332 3.25195 9.8584 3.4375 10.083 3.80859L10.1611 3.94531C10.293 4.1748 10.3662 4.37012 10.3662 4.5459C10.3662 4.83398 10.1758 5.04395 9.82422 5.23438L7.62207 6.44531L9.8291 7.70996C10.1807 7.90527 10.3857 8.11523 10.3857 8.41309C10.3857 8.58398 10.3076 8.78418 10.1611 9.01855L10.083 9.14551C9.85352 9.50195 9.65332 9.6875 9.375 9.6875C9.20898 9.6875 9.02344 9.60938 8.80371 9.49219L6.6748 8.25684V10.7373C6.6748 11.4502 6.40137 11.665 5.69824 11.665H5.54688Z" fill="#FA3737"/>
</svg>
