<svg width="25" height="21" viewBox="0 0 25 21" fill="none" xmlns="http://www.w3.org/2000/svg">
    <path d="M12.5 19.7334C7.53418 19.7334 3.4209 15.6289 3.4209 10.6543C3.4209 5.68848 7.52539 1.5752 12.4912 1.5752C17.4658 1.5752 21.5791 5.68848 21.5791 10.6543C21.5791 15.6289 17.4658 19.7334 12.5 19.7334ZM7.20898 5.12598C7.64844 5.4248 8.17578 5.67969 8.79102 5.87305C9.18652 4.80078 9.71387 3.92188 10.3379 3.29785C9.15137 3.64941 8.08789 4.29102 7.20898 5.12598ZM14.6709 3.30664C15.2861 3.92188 15.8135 4.80078 16.209 5.88184C16.8242 5.67969 17.3516 5.43359 17.7822 5.12598C16.9121 4.29102 15.8486 3.6582 14.6709 3.30664ZM13.1152 3.58789V6.37402C13.7832 6.34766 14.4072 6.28613 14.9873 6.18066C14.5127 4.88867 13.8447 3.93945 13.1152 3.58789ZM10.0127 6.18066C10.5928 6.28613 11.2168 6.34766 11.8848 6.37402V3.58789C11.1553 3.93945 10.4961 4.88867 10.0127 6.18066ZM4.85352 10.0391H8.01758C8.06152 8.95801 8.21094 7.93848 8.43945 7.02441C7.63086 6.76953 6.93652 6.42676 6.40039 6.03125C5.53906 7.16504 4.97656 8.54492 4.85352 10.0391ZM16.9824 10.0391H20.1465C20.0234 8.54492 19.4609 7.16504 18.5908 6.03125C18.0635 6.43555 17.3691 6.76953 16.5605 7.02441C16.7891 7.93848 16.9385 8.95801 16.9824 10.0391ZM9.27441 10.0391H11.8848V7.60449C11.1025 7.56934 10.3555 7.48145 9.65234 7.34082C9.4502 8.16699 9.31836 9.08105 9.27441 10.0391ZM13.1152 10.0391H15.7256C15.6816 9.08105 15.5498 8.16699 15.3477 7.34082C14.6445 7.48145 13.8975 7.56934 13.1152 7.60449V10.0391ZM4.85352 11.2695C4.97656 12.7725 5.54785 14.1611 6.42676 15.3037C6.9541 14.9082 7.63965 14.5742 8.43945 14.3193C8.21094 13.3965 8.06152 12.3682 8.01758 11.2695H4.85352ZM9.27441 11.2695C9.30957 12.2363 9.4502 13.168 9.66113 14.0029C10.3555 13.8711 11.1113 13.7832 11.8848 13.748V11.2695H9.27441ZM13.1152 13.748C13.8975 13.7832 14.6445 13.8711 15.3389 14.0029C15.5498 13.168 15.6904 12.2363 15.7256 11.2695H13.1152V13.748ZM16.5605 14.3193C17.3604 14.5742 18.0459 14.9082 18.5732 15.3037C19.4521 14.1611 20.0234 12.7725 20.1465 11.2695H16.9824C16.9385 12.3682 16.7979 13.3965 16.5605 14.3193ZM13.1152 14.9785V17.7207C13.8359 17.3779 14.4951 16.4375 14.9697 15.1719C14.3984 15.0664 13.7744 15.0049 13.1152 14.9785ZM10.0303 15.1719C10.5049 16.4375 11.1641 17.3779 11.8848 17.7207V14.9785C11.2256 15.0049 10.6016 15.0664 10.0303 15.1719ZM7.23535 16.209C8.10547 17.0264 9.16016 17.6504 10.3203 18.002C9.71387 17.3867 9.19531 16.5254 8.7998 15.4707C8.19336 15.6641 7.66602 15.9102 7.23535 16.209ZM16.2002 15.4707C15.8047 16.5254 15.2861 17.3867 14.6797 18.002C15.8398 17.6504 16.8945 17.0264 17.7646 16.209C17.334 15.9102 16.8066 15.6641 16.2002 15.4707Z" fill="#121111" style="fill:#121111;fill:#121111;fill-opacity:1;"/>
</svg>