<svg width="17" height="18" viewBox="0 0 17 18" fill="none" xmlns="http://www.w3.org/2000/svg">
    <path d="M8.28516 15.626C4.42285 15.626 1.22363 12.4336 1.22363 8.56445C1.22363 4.70215 4.41602 1.50293 8.27832 1.50293C12.1475 1.50293 15.3467 4.70215 15.3467 8.56445C15.3467 12.4336 12.1475 15.626 8.28516 15.626ZM9.05078 10.8135L11.7715 7.92188C12.0107 7.66895 12.0176 7.29297 11.7988 7.07422C11.5391 6.82812 11.1631 6.82129 10.9307 7.06738L8.29199 9.87012L5.65332 7.06738C5.42773 6.82129 5.03809 6.82129 4.79199 7.07422C4.57324 7.2998 4.58008 7.66895 4.81934 7.92188L7.5332 10.8135C7.99805 11.3057 8.58594 11.3057 9.05078 10.8135Z" fill="black"/>
</svg>