<svg width="15" height="14" viewBox="0 0 15 14" fill="none" xmlns="http://www.w3.org/2000/svg">
<path d="M3.41602 12.248C2.15039 12.248 1.49414 11.5977 1.49414 10.3438V3.21289C1.49414 1.95898 2.15039 1.30859 3.41602 1.30859H11.4785C12.7441 1.30859 13.4004 1.95898 13.4004 3.21289V10.3438C13.4004 11.5918 12.7441 12.248 11.4785 12.248H3.41602ZM3.39844 11.0996H11.4844C11.9766 11.0996 12.252 10.8418 12.252 10.332V4.91797C12.252 4.40234 11.9766 4.15039 11.4844 4.15039H3.39844C2.91211 4.15039 2.64258 4.40234 2.64258 4.91797V10.332C2.64258 10.8418 2.91211 11.0996 3.39844 11.0996ZM4.40625 6.25977C4.18945 6.25977 4.03125 6.0957 4.03125 5.88477C4.03125 5.67969 4.18945 5.52148 4.40625 5.52148H10.4941C10.7109 5.52148 10.8691 5.67969 10.8691 5.88477C10.8691 6.0957 10.7109 6.25977 10.4941 6.25977H4.40625ZM4.40625 7.99414C4.18945 7.99414 4.03125 7.83594 4.03125 7.63086C4.03125 7.41992 4.18945 7.25586 4.40625 7.25586H10.4941C10.7109 7.25586 10.8691 7.41992 10.8691 7.63086C10.8691 7.83594 10.7109 7.99414 10.4941 7.99414H4.40625ZM4.40625 9.72852C4.18945 9.72852 4.03125 9.57031 4.03125 9.36523C4.03125 9.1543 4.18945 8.98438 4.40625 8.98438H8.25C8.4668 8.98438 8.625 9.1543 8.625 9.36523C8.625 9.57031 8.4668 9.72852 8.25 9.72852H4.40625Z" fill="white"/>
</svg>
