<svg width="32" height="26" viewBox="0 0 32 26" fill="none" xmlns="http://www.w3.org/2000/svg">
<path d="M2.88379 11.6973C2.88379 11.3965 3.02344 11.085 3.30273 10.8486L14.4961 1.44922C15.4307 0.675781 16.5908 0.675781 17.5146 1.44922L22.6279 5.75684V3.86621C22.6279 3.38281 22.9502 3.07129 23.4336 3.07129H24.8838C25.3564 3.07129 25.668 3.38281 25.668 3.86621V8.30273L28.6865 10.8486C28.9658 11.0742 29.1055 11.3643 29.1055 11.7295C29.1055 12.3418 28.6328 12.7285 28.0098 12.7285C27.6768 12.7285 27.3867 12.5459 27.1289 12.3311L16.4619 3.38281C16.1719 3.125 15.8389 3.125 15.5488 3.38281L4.87109 12.3311C4.61328 12.5459 4.32324 12.7285 3.99023 12.7285C3.30273 12.7285 2.88379 12.2559 2.88379 11.6973ZM6.36426 21.3545V13.1582L15.334 5.63867C15.7422 5.29492 16.2471 5.28418 16.6553 5.63867L25.6357 13.1689V21.3545C25.6357 22.9014 24.6689 23.8252 23.0791 23.8252H8.91016C7.33105 23.8252 6.36426 22.9014 6.36426 21.3545ZM18.8037 21.7197V14.748C18.8037 14.2432 18.4814 13.9209 17.9766 13.9209H14.0127C13.5078 13.9209 13.1748 14.2432 13.1748 14.748V21.7197H18.8037Z" fill="black" style="fill:black;fill:black;fill-opacity:1;"/>
</svg>
