<svg width="25" height="26" viewBox="0 0 25 26" fill="none" xmlns="http://www.w3.org/2000/svg">
<path d="M12.5 25.4258C5.71484 25.4258 0.125 19.8359 0.125 13.0391C0.125 6.25391 5.70312 0.664062 12.5 0.664062C19.2852 0.664062 24.875 6.25391 24.875 13.0391C24.875 19.8359 19.2969 25.4258 12.5 25.4258ZM13.9883 16.8828L18.5117 12.0312C18.9922 11.5273 19.0039 10.7305 18.5469 10.2969C18.0195 9.79297 17.2461 9.78125 16.7773 10.2852L12.5117 14.8438L8.24609 10.2852C7.77734 9.78125 6.99219 9.79297 6.46484 10.2969C6.01953 10.7422 6.03125 11.5156 6.51172 12.0312L11.0352 16.8711C11.8906 17.7734 13.1328 17.7852 13.9883 16.8828Z" fill="#6D6C6C"/>
</svg>
