<svg width="22" height="22" viewBox="0 0 22 22" fill="none" xmlns="http://www.w3.org/2000/svg">
<path d="M9.18066 10.791C7.31299 10.791 5.78564 9.15576 5.78564 7.07227C5.78564 5.04688 7.32129 3.42822 9.18066 3.42822C11.0317 3.42822 12.5757 5.06348 12.5757 7.08057C12.5757 9.15576 11.0483 10.791 9.18066 10.791ZM9.18066 12.2437C10.4424 12.2437 11.5713 12.501 12.5176 12.9243C11.3472 13.9536 10.5918 15.4561 10.5918 17.1328C10.5918 17.6309 10.6582 18.1123 10.791 18.5771H4.07568C2.60645 18.5771 2.1167 18.0957 2.1167 17.2739C2.1167 15.1489 4.88086 12.2437 9.18066 12.2437ZM16.2197 21.5073C13.8208 21.5073 11.8452 19.5317 11.8452 17.1328C11.8452 14.7422 13.8208 12.7666 16.2197 12.7666C18.6104 12.7666 20.5859 14.7422 20.5859 17.1328C20.5859 19.5151 18.6021 21.5073 16.2197 21.5073ZM16.2197 19.9634C16.6182 19.9634 16.8838 19.6978 16.8838 19.2993V17.8052H18.3779C18.7681 17.8052 19.0337 17.5396 19.0337 17.1411C19.0337 16.7344 18.7681 16.4688 18.3779 16.4688H16.8838V14.9912C16.8838 14.5845 16.6182 14.3271 16.2197 14.3271C15.813 14.3271 15.5557 14.5928 15.5557 14.9912V16.4688H14.0615C13.6631 16.4688 13.3975 16.7344 13.3975 17.1411C13.3975 17.5396 13.6714 17.8052 14.0615 17.8052H15.5557V19.2993C15.5557 19.6978 15.813 19.9634 16.2197 19.9634Z" fill="black"/>
</svg>
