<svg width="22" height="22" viewBox="0 0 22 22" fill="none" xmlns="http://www.w3.org/2000/svg">
<path d="M9.68066 10.791C7.81299 10.791 6.28564 9.15576 6.28564 7.07227C6.28564 5.04688 7.82129 3.42822 9.68066 3.42822C11.5317 3.42822 13.0757 5.06348 13.0757 7.08057C13.0757 9.15576 11.5483 10.791 9.68066 10.791ZM9.68066 12.2437C10.9424 12.2437 12.0713 12.501 13.0176 12.9243C11.8472 13.9536 11.0918 15.4561 11.0918 17.1328C11.0918 17.6309 11.1582 18.1123 11.291 18.5771H4.57568C3.10645 18.5771 2.6167 18.0957 2.6167 17.2739C2.6167 15.1489 5.38086 12.2437 9.68066 12.2437ZM16.7197 21.5073C14.3208 21.5073 12.3452 19.5317 12.3452 17.1328C12.3452 14.7422 14.3208 12.7666 16.7197 12.7666C19.1104 12.7666 21.0859 14.7422 21.0859 17.1328C21.0859 19.5151 19.1021 21.5073 16.7197 21.5073ZM16.7197 19.9634C17.1182 19.9634 17.3838 19.6978 17.3838 19.2993V17.8052H18.8779C19.2681 17.8052 19.5337 17.5396 19.5337 17.1411C19.5337 16.7344 19.2681 16.4688 18.8779 16.4688H17.3838V14.9912C17.3838 14.5845 17.1182 14.3271 16.7197 14.3271C16.313 14.3271 16.0557 14.5928 16.0557 14.9912V16.4688H14.5615C14.1631 16.4688 13.8975 16.7344 13.8975 17.1411C13.8975 17.5396 14.1714 17.8052 14.5615 17.8052H16.0557V19.2993C16.0557 19.6978 16.313 19.9634 16.7197 19.9634Z" fill="black"/>
</svg>
