<svg width="25" height="22" viewBox="0 0 25 22" fill="none" xmlns="http://www.w3.org/2000/svg">
<path d="M9.93066 10.791C8.06299 10.791 6.53564 9.15576 6.53564 7.08057C6.53564 5.06348 8.07959 3.42822 9.93066 3.42822C11.7817 3.42822 13.3257 5.04688 13.3257 7.07227C13.3257 9.15576 11.7983 10.791 9.93066 10.791ZM18.5884 11.3887C18.2314 11.3887 17.9575 11.231 17.7085 10.9321L15.8574 8.71582C15.6831 8.5 15.6001 8.30078 15.6001 8.06836C15.6001 7.58691 15.9902 7.20508 16.4717 7.20508C16.7539 7.20508 16.978 7.31299 17.1855 7.57031L18.5635 9.27197L21.5435 4.47412C21.751 4.13379 22.0083 3.97607 22.3154 3.97607C22.7803 3.97607 23.2119 4.31641 23.2119 4.79785C23.2119 4.99707 23.1289 5.21289 22.9961 5.41211L19.4268 10.9155C19.2275 11.2144 18.9287 11.3887 18.5884 11.3887ZM4.48535 18.5771C3.47266 18.5771 2.8667 18.0874 2.8667 17.2739C2.8667 15.1489 5.62256 12.2437 9.93066 12.2437C14.2305 12.2437 16.9946 15.1489 16.9946 17.2739C16.9946 18.0874 16.3887 18.5771 15.376 18.5771H4.48535Z" fill="white"/>
</svg>
