<svg width="22" height="21" viewBox="0 0 22 21" fill="none" xmlns="http://www.w3.org/2000/svg">
    <path d="M7.66016 10.4258C5.74414 10.4258 4.11816 8.71191 4.11816 6.53223C4.11816 4.3877 5.75293 2.70898 7.66016 2.70898C9.56738 2.70898 11.2021 4.35254 11.2021 6.51465C11.2021 8.71191 9.58496 10.4258 7.66016 10.4258ZM16.8359 10.9795C16.5107 10.9795 16.2559 10.8389 16.0186 10.54L13.9443 8.00879C13.7949 7.82422 13.7158 7.63086 13.7158 7.41992C13.7158 6.98047 14.0586 6.6377 14.4893 6.6377C14.7441 6.6377 14.9551 6.73438 15.166 7.00684L16.8008 9.08984L20.2725 3.51758C20.457 3.21875 20.6943 3.07812 20.958 3.07812C21.3711 3.07812 21.7578 3.36816 21.7578 3.79883C21.7578 4.00098 21.6523 4.21191 21.5381 4.39648L17.6094 10.54C17.4248 10.8213 17.1523 10.9795 16.8359 10.9795ZM1.80664 18.5908C0.822266 18.5908 0.233398 18.125 0.233398 17.3516C0.233398 15.0928 3.09863 11.9814 7.66016 11.9814C12.2129 11.9814 15.0869 15.0928 15.0869 17.3516C15.0869 18.125 14.4893 18.5908 13.5049 18.5908H1.80664Z" fill="white"/>
</svg>