<svg width="34" height="26" viewBox="0 0 34 26" fill="none" xmlns="http://www.w3.org/2000/svg">
    <path d="M4.6084 18.0566L2.8252 8.00195C2.42773 5.74609 3.40527 4.36035 5.69336 3.95215L20.1309 1.40625C22.4189 1.00879 23.8047 1.97559 24.2021 4.23145L24.7285 7.20703H27.0381C29.3477 7.20703 30.5615 8.39941 30.5615 10.6982V20.9033C30.5615 23.1914 29.3477 24.3838 27.0381 24.3838H12.375C10.0439 24.3838 8.85156 23.2021 8.85156 20.9033V20.8389L8.67969 20.8711C6.38086 21.2686 5.00586 20.3125 4.6084 18.0566ZM6.63867 17.5088C6.82129 18.54 7.45508 18.9482 8.43262 18.7764L8.85156 18.7012V10.6982C8.85156 8.39941 10.0439 7.20703 12.375 7.20703H22.6016L22.1719 4.7793C21.9893 3.74805 21.3447 3.33984 20.3779 3.50098L6.1875 6.00391C5.19922 6.17578 4.74805 6.78809 4.93066 7.81934L6.63867 17.5088ZM10.957 10.8809V19.7539L13.3096 17.6914C13.707 17.3477 14.1045 17.1758 14.5127 17.1758C14.9639 17.1758 15.3936 17.3369 15.791 17.7021L17.4775 19.2275L21.71 15.4785C22.1396 15.0918 22.6016 14.9199 23.1064 14.9199C23.6221 14.9199 24.1162 15.1025 24.5244 15.4893L28.4561 19.1846V10.8809C28.4561 9.83887 27.8975 9.3125 26.9092 9.3125H12.5039C11.5049 9.3125 10.957 9.83887 10.957 10.8809ZM16.7578 15.7148C15.5117 15.7148 14.502 14.6836 14.502 13.4375C14.502 12.2129 15.5117 11.1816 16.7578 11.1816C18.0039 11.1816 19.0137 12.2129 19.0137 13.4375C19.0137 14.6836 18.0039 15.7148 16.7578 15.7148Z" fill="white" style="fill:white;fill:white;fill-opacity:1;"/>
</svg>