<svg width="32" height="22" viewBox="0 0 32 22" fill="none" xmlns="http://www.w3.org/2000/svg">
    <path d="M7.12695 17.7109C3.49707 17.7109 1.21191 15.1797 1.21191 11.1016V11.0928C1.21191 7.09375 3.49707 4.60645 7.10059 4.60645C10.0713 4.60645 11.9346 6.32031 12.4619 8.60547L12.4971 8.76367H10.4756L10.4492 8.66699C9.91309 7.19922 8.76172 6.34668 7.10938 6.34668C4.68359 6.34668 3.21582 8.11328 3.21582 11.084V11.0928C3.21582 14.125 4.72754 15.9707 7.14453 15.9707C9.20117 15.9707 10.625 14.6699 10.6514 12.7451V12.5342H7.32031V10.9258H12.5938V12.2266C12.5938 15.6631 10.5635 17.7109 7.12695 17.7109ZM13.8945 17.5V15.9004H16.3115V6.41699H13.8945V4.81738H20.6885V6.41699H18.2803V15.9004H20.6885V17.5H13.8945ZM22.4639 17.5V4.81738H30.3828V6.51367H24.4326V10.5303H29.8818V12.1914H24.4326V17.5H22.4639Z" fill="black" style="fill:black;fill-opacity:1;"/>
</svg>