<svg width="22" height="21" viewBox="0 0 22 21" fill="none" xmlns="http://www.w3.org/2000/svg">
    <path d="M10.6523 19.7334C5.68652 19.7334 1.57324 15.6289 1.57324 10.6543C1.57324 5.68848 5.67773 1.5752 10.6436 1.5752C15.6182 1.5752 19.7314 5.68848 19.7314 10.6543C19.7314 15.6289 15.6182 19.7334 10.6523 19.7334ZM5.36133 5.12598C5.80078 5.4248 6.32812 5.67969 6.94336 5.87305C7.33887 4.80078 7.86621 3.92188 8.49023 3.29785C7.30371 3.64941 6.24023 4.29102 5.36133 5.12598ZM12.8232 3.30664C13.4385 3.92188 13.9658 4.80078 14.3613 5.88184C14.9766 5.67969 15.5039 5.43359 15.9346 5.12598C15.0645 4.29102 14.001 3.6582 12.8232 3.30664ZM11.2676 3.58789V6.37402C11.9355 6.34766 12.5596 6.28613 13.1396 6.18066C12.665 4.88867 11.9971 3.93945 11.2676 3.58789ZM8.16504 6.18066C8.74512 6.28613 9.36914 6.34766 10.0371 6.37402V3.58789C9.30762 3.93945 8.64844 4.88867 8.16504 6.18066ZM3.00586 10.0391H6.16992C6.21387 8.95801 6.36328 7.93848 6.5918 7.02441C5.7832 6.76953 5.08887 6.42676 4.55273 6.03125C3.69141 7.16504 3.12891 8.54492 3.00586 10.0391ZM15.1348 10.0391H18.2988C18.1758 8.54492 17.6133 7.16504 16.7432 6.03125C16.2158 6.43555 15.5215 6.76953 14.7129 7.02441C14.9414 7.93848 15.0908 8.95801 15.1348 10.0391ZM7.42676 10.0391H10.0371V7.60449C9.25488 7.56934 8.50781 7.48145 7.80469 7.34082C7.60254 8.16699 7.4707 9.08105 7.42676 10.0391ZM11.2676 10.0391H13.8779C13.834 9.08105 13.7021 8.16699 13.5 7.34082C12.7969 7.48145 12.0498 7.56934 11.2676 7.60449V10.0391ZM3.00586 11.2695C3.12891 12.7725 3.7002 14.1611 4.5791 15.3037C5.10645 14.9082 5.79199 14.5742 6.5918 14.3193C6.36328 13.3965 6.21387 12.3682 6.16992 11.2695H3.00586ZM7.42676 11.2695C7.46191 12.2363 7.60254 13.168 7.81348 14.0029C8.50781 13.8711 9.26367 13.7832 10.0371 13.748V11.2695H7.42676ZM11.2676 13.748C12.0498 13.7832 12.7969 13.8711 13.4912 14.0029C13.7021 13.168 13.8428 12.2363 13.8779 11.2695H11.2676V13.748ZM14.7129 14.3193C15.5127 14.5742 16.1982 14.9082 16.7256 15.3037C17.6045 14.1611 18.1758 12.7725 18.2988 11.2695H15.1348C15.0908 12.3682 14.9502 13.3965 14.7129 14.3193ZM11.2676 14.9785V17.7207C11.9883 17.3779 12.6475 16.4375 13.1221 15.1719C12.5508 15.0664 11.9268 15.0049 11.2676 14.9785ZM8.18262 15.1719C8.65723 16.4375 9.31641 17.3779 10.0371 17.7207V14.9785C9.37793 15.0049 8.75391 15.0664 8.18262 15.1719ZM5.3877 16.209C6.25781 17.0264 7.3125 17.6504 8.47266 18.002C7.86621 17.3867 7.34766 16.5254 6.95215 15.4707C6.3457 15.6641 5.81836 15.9102 5.3877 16.209ZM14.3525 15.4707C13.957 16.5254 13.4385 17.3867 12.832 18.002C13.9922 17.6504 15.0469 17.0264 15.917 16.209C15.4863 15.9102 14.959 15.6641 14.3525 15.4707Z" fill="black" style="fill:black;fill:black;fill-opacity:1;"/>
</svg>