<svg width="17" height="17" viewBox="0 0 17 17" fill="none" xmlns="http://www.w3.org/2000/svg">
<path d="M8.44238 15.2969C4.48438 15.2969 1.22363 12.0361 1.22363 8.07812C1.22363 4.11328 4.47754 0.859375 8.44238 0.859375C12.4004 0.859375 15.6611 4.11328 15.6611 8.07812C15.6611 12.0361 12.4072 15.2969 8.44238 15.2969ZM8.44238 7.79785C9.43359 7.79785 10.2334 6.95703 10.2334 5.84277C10.2334 4.79688 9.43359 3.93555 8.44238 3.93555C7.45801 3.93555 6.6582 4.79688 6.6582 5.84277C6.6582 6.95703 7.45801 7.79102 8.44238 7.79785ZM5.44824 11.6055H11.4434C11.8057 11.6055 11.9902 11.3457 11.9902 11.0244C11.9902 10.2656 10.8965 8.32422 8.44238 8.32422C5.98828 8.32422 4.90137 10.2656 4.90137 11.0244C4.90137 11.3457 5.0791 11.6055 5.44824 11.6055Z" fill="#FF8F50"/>
</svg>
