<svg width="17" height="12" viewBox="0 0 17 12" fill="none" xmlns="http://www.w3.org/2000/svg">
<path d="M13.3633 10.9492L3.4375 1.0293C3.26172 0.853516 3.26172 0.548828 3.4375 0.373047C3.61914 0.185547 3.92383 0.191406 4.09961 0.373047L14.0254 10.2871C14.207 10.4688 14.2188 10.75 14.0254 10.9492C13.8379 11.1426 13.5508 11.1309 13.3633 10.9492ZM8.74609 0.707031C13.5508 0.707031 16.791 4.57422 16.791 5.77539C16.791 6.4668 15.7188 8.04297 13.8789 9.25L13.0117 8.37695C14.5176 7.43359 15.4668 6.23828 15.4668 5.77539C15.4668 5.08984 12.4902 1.83203 8.74609 1.83203C8.08398 1.83203 7.46875 1.93164 6.87695 2.10156L5.93945 1.16406C6.80078 0.882812 7.72656 0.707031 8.74609 0.707031ZM8.74609 10.8496C4.00586 10.8496 0.695312 6.97656 0.695312 5.77539C0.695312 5.07227 1.82617 3.46094 3.74219 2.24219L4.62695 3.12695C3.02148 4.11133 2.02539 5.38281 2.02539 5.77539C2.02539 6.5957 5.00195 9.72461 8.74609 9.72461C9.47266 9.72461 10.1465 9.60742 10.7852 9.41992L11.7168 10.3516C10.8203 10.6621 9.83008 10.8496 8.74609 10.8496ZM11.6699 6.90625L7.60938 2.8457C7.96094 2.69922 8.3418 2.62305 8.74609 2.62305C10.5039 2.62305 11.9102 4.01172 11.9102 5.77539C11.9102 6.17383 11.8223 6.56055 11.6699 6.90625ZM8.74609 8.93359C6.98242 8.93359 5.58203 7.49805 5.57617 5.78125C5.57617 5.3125 5.68164 4.88477 5.86914 4.49805L10.0117 8.64648C9.63086 8.82812 9.20312 8.93359 8.74609 8.93359Z" fill="white"/>
</svg>
