<svg width="27" height="26" viewBox="0 0 27 26" fill="none" xmlns="http://www.w3.org/2000/svg">
<path d="M13.0195 24.3408C6.9502 24.3408 1.92285 19.3242 1.92285 13.2441C1.92285 7.1748 6.93945 2.14746 13.0088 2.14746C19.0889 2.14746 24.1162 7.1748 24.1162 13.2441C24.1162 19.3242 19.0889 24.3408 13.0195 24.3408ZM12.9551 9.57031C13.8037 9.57031 14.4805 8.88281 14.4805 8.03418C14.4805 7.16406 13.8037 6.4873 12.9551 6.4873C12.1064 6.4873 11.4189 7.16406 11.4189 8.03418C11.4189 8.88281 12.1064 9.57031 12.9551 9.57031ZM11.043 19.4316H15.5762C16.0811 19.4316 16.4785 19.0664 16.4785 18.5508C16.4785 18.0781 16.0811 17.6914 15.5762 17.6914H14.3408V12.417C14.3408 11.7402 13.9971 11.2998 13.3633 11.2998H11.2471C10.7422 11.2998 10.3555 11.6865 10.3555 12.1592C10.3555 12.6748 10.7422 13.04 11.2471 13.04H12.375V17.6914H11.043C10.5381 17.6914 10.1514 18.0781 10.1514 18.5508C10.1514 19.0664 10.5381 19.4316 11.043 19.4316Z" fill="white"/>
</svg>
