<svg width="6" height="11" viewBox="0 0 6 11" fill="none" xmlns="http://www.w3.org/2000/svg">
<path d="M1.90186 1.97998C1.90186 1.40869 2.35254 0.958008 2.91748 0.958008C3.48877 0.958008 3.93311 1.40869 3.93311 1.97998C3.93311 2.54492 3.48877 2.99561 2.91748 2.99561C2.35254 2.99561 1.90186 2.54492 1.90186 1.97998ZM0.283203 10.3271C0.283203 9.9209 0.5625 9.66064 1.00684 9.66064H2.42236V5.75049H1.18457C0.746582 5.75049 0.460938 5.49023 0.460938 5.07764C0.45459 4.67139 0.740234 4.41113 1.18457 4.41113H3.17773C3.59668 4.41113 3.87598 4.68408 3.87598 5.11572V9.66064H4.98682C5.43115 9.66064 5.7168 9.9209 5.71045 10.3271C5.71045 10.7397 5.4248 11 4.98682 11H1.00684C0.568848 11 0.283203 10.7397 0.283203 10.3271Z" fill="white"/>
</svg>
