<svg width="21" height="22" viewBox="0 0 21 22" fill="none" xmlns="http://www.w3.org/2000/svg">
<path d="M10.0605 19.5815C5.37061 19.5815 1.48584 15.7051 1.48584 11.0068C1.48584 6.31689 5.3623 2.43213 10.0522 2.43213C14.7505 2.43213 18.6353 6.31689 18.6353 11.0068C18.6353 15.7051 14.7505 19.5815 10.0605 19.5815ZM10.0605 17.8965C13.8789 17.8965 16.9502 14.8252 16.9502 11.0068C16.9502 7.18848 13.8706 4.12549 10.0522 4.12549C6.23389 4.12549 3.1792 7.18848 3.1792 11.0068C3.1792 14.8252 6.24219 17.8965 10.0605 17.8965ZM10.0107 8.28418C9.38818 8.28418 8.89014 7.77783 8.89014 7.16357C8.89014 6.53271 9.38818 6.03467 10.0107 6.03467C10.6333 6.03467 11.1313 6.53271 11.1313 7.16357C11.1313 7.77783 10.6333 8.28418 10.0107 8.28418ZM8.60791 15.5723C8.24268 15.5723 7.95215 15.3066 7.95215 14.9331C7.95215 14.5845 8.24268 14.3105 8.60791 14.3105H9.5957V10.8408H8.75732C8.38379 10.8408 8.10156 10.5752 8.10156 10.2017C8.10156 9.85303 8.38379 9.5708 8.75732 9.5708H10.3179C10.7827 9.5708 11.0234 9.89453 11.0234 10.3843V14.3105H11.9531C12.3184 14.3105 12.6089 14.5845 12.6089 14.9331C12.6089 15.3066 12.3184 15.5723 11.9531 15.5723H8.60791Z" fill="white" style="fill:white;fill-opacity:1;"/>
</svg>
