<svg width="13" height="13" viewBox="0 0 13 13" fill="none" xmlns="http://www.w3.org/2000/svg">
<path d="M6.10156 12.8223C2.79102 12.8223 0.0488281 10.0859 0.0488281 6.76953C0.0488281 3.45898 2.78516 0.716797 6.0957 0.716797C9.41211 0.716797 12.1543 3.45898 12.1543 6.76953C12.1543 10.0859 9.41211 12.8223 6.10156 12.8223ZM6.10156 11.6328C8.79688 11.6328 10.9648 9.46484 10.9648 6.76953C10.9648 4.07422 8.79102 1.91211 6.0957 1.91211C3.40039 1.91211 1.24414 4.07422 1.24414 6.76953C1.24414 9.46484 3.40625 11.6328 6.10156 11.6328ZM6.06641 4.84766C5.62695 4.84766 5.27539 4.49023 5.27539 4.05664C5.27539 3.61133 5.62695 3.25977 6.06641 3.25977C6.50586 3.25977 6.85742 3.61133 6.85742 4.05664C6.85742 4.49023 6.50586 4.84766 6.06641 4.84766ZM5.07617 9.99219C4.81836 9.99219 4.61328 9.80469 4.61328 9.54102C4.61328 9.29492 4.81836 9.10156 5.07617 9.10156H5.77344V6.65234H5.18164C4.91797 6.65234 4.71875 6.46484 4.71875 6.20117C4.71875 5.95508 4.91797 5.75586 5.18164 5.75586H6.2832C6.61133 5.75586 6.78125 5.98438 6.78125 6.33008V9.10156H7.4375C7.69531 9.10156 7.90039 9.29492 7.90039 9.54102C7.90039 9.80469 7.69531 9.99219 7.4375 9.99219H5.07617Z" fill="white"/>
</svg>
