<svg width="14" height="14" viewBox="0 0 14 14" fill="none" xmlns="http://www.w3.org/2000/svg">
<path d="M9.25 1H4.75C2.67925 1 1 2.67925 1 4.75V9.25C1 11.3208 2.67925 13 4.75 13H9.25C11.3208 13 13 11.3208 13 9.25V4.75C13 2.67925 11.3208 1 9.25 1ZM11.875 9.25C11.875 10.6975 10.6975 11.875 9.25 11.875H4.75C3.3025 11.875 2.125 10.6975 2.125 9.25V4.75C2.125 3.3025 3.3025 2.125 4.75 2.125H9.25C10.6975 2.125 11.875 3.3025 11.875 4.75V9.25Z" fill="white" fill-opacity="1"/>
<path d="M7 4C5.34325 4 4 5.34325 4 7C4 8.65675 5.34325 10 7 10C8.65675 10 10 8.65675 10 7C10 5.34325 8.65675 4 7 4ZM7 8.875C5.9665 8.875 5.125 8.0335 5.125 7C5.125 5.96575 5.9665 5.125 7 5.125C8.0335 5.125 8.875 5.96575 8.875 7C8.875 8.0335 8.0335 8.875 7 8.875Z" fill="white" fill-opacity="1"/>
<path d="M10.2259 4.1745C10.4467 4.1745 10.6257 3.99553 10.6257 3.77475C10.6257 3.55397 10.4467 3.375 10.2259 3.375C10.0051 3.375 9.82617 3.55397 9.82617 3.77475C9.82617 3.99553 10.0051 4.1745 10.2259 4.1745Z" fill="white" fill-opacity="1"/>
</svg>
