<svg width="38" height="38" viewBox="0 0 38 38" fill="none" xmlns="http://www.w3.org/2000/svg">
    <rect width="38" height="38" rx="12" fill="black"/>
    <rect x="0.5" y="0.5" width="37" height="37" rx="11.5" stroke="black" stroke-opacity="0.08"/>
    <path d="M19.582 18.8867C18.085 18.8867 16.8203 17.5537 16.8203 15.8447C16.8203 14.1631 18.0918 12.8848 19.582 12.8848C21.0654 12.8848 22.3369 14.1904 22.3369 15.8584C22.3369 17.5537 21.0723 18.8867 19.582 18.8867ZM19.582 20.0967C20.7031 20.0967 21.6875 20.3496 22.501 20.7393C21.5234 21.5664 20.8945 22.79 20.8945 24.1641C20.8945 24.5332 20.9424 24.8955 21.0381 25.2373H15.3232C14.1953 25.2373 13.8057 24.9023 13.8057 24.2734C13.8057 22.5166 16.041 20.0967 19.582 20.0967ZM25.3926 27.6846C23.4648 27.6846 21.8721 26.0986 21.8721 24.1641C21.8721 22.2363 23.4648 20.6504 25.3926 20.6504C27.3203 20.6504 28.9131 22.2363 28.9131 24.1641C28.9131 26.085 27.2998 27.6846 25.3926 27.6846ZM25.3926 26.3926C25.6729 26.3926 25.8574 26.208 25.8574 25.9346V24.6289H27.1562C27.4297 24.6289 27.6211 24.4512 27.6211 24.1641C27.6211 23.8838 27.4297 23.6992 27.1562 23.6992H25.8574V22.4072C25.8574 22.127 25.6729 21.9424 25.3926 21.9424C25.1123 21.9424 24.9277 22.1338 24.9277 22.4072V23.6992H23.6289C23.3486 23.6992 23.1641 23.8838 23.1641 24.1641C23.1641 24.4512 23.3555 24.6289 23.6289 24.6289H24.9277V25.9346C24.9277 26.208 25.1123 26.3926 25.3926 26.3926Z" fill="white"/>
</svg>