<svg width="142" height="142" viewBox="0 0 142 142" fill="none" xmlns="http://www.w3.org/2000/svg">
    <rect x="0.5" y="0.5" width="141" height="141" rx="70.5" fill="white" fill-opacity="0.12" stroke="white" stroke-dasharray="2 8"/>
    <path d="M71.7461 69.6602C67.2549 69.6602 63.4609 65.6611 63.4609 60.5342C63.4609 55.4893 67.2754 51.6543 71.7461 51.6543C76.1963 51.6543 80.0107 55.5713 80.0107 60.5752C80.0107 65.6611 76.2168 69.6602 71.7461 69.6602ZM71.7461 73.29C75.1094 73.29 78.0625 74.0488 80.5029 75.2178C77.5703 77.6992 75.6836 81.3701 75.6836 85.4922C75.6836 86.5996 75.8271 87.6865 76.1143 88.7119H58.9697C55.5859 88.7119 54.417 87.707 54.417 85.8203C54.417 80.5498 61.123 73.29 71.7461 73.29ZM89.1777 96.0537C83.3945 96.0537 78.6162 91.2959 78.6162 85.4922C78.6162 79.709 83.3945 74.9512 89.1777 74.9512C94.9609 74.9512 99.7393 79.709 99.7393 85.4922C99.7393 91.2549 94.8994 96.0537 89.1777 96.0537ZM89.1777 92.1777C90.0186 92.1777 90.5723 91.624 90.5723 90.8037V86.8867H94.4688C95.2891 86.8867 95.8633 86.3535 95.8633 85.4922C95.8633 84.6514 95.2891 84.0977 94.4688 84.0977H90.5723V80.2217C90.5723 79.3809 90.0186 78.8271 89.1777 78.8271C88.3369 78.8271 87.7832 79.4014 87.7832 80.2217V84.0977H83.8867C83.0459 84.0977 82.4922 84.6514 82.4922 85.4922C82.4922 86.3535 83.0664 86.8867 83.8867 86.8867H87.7832V90.8037C87.7832 91.624 88.3369 92.1777 89.1777 92.1777Z" fill="white"/>
</svg>
