<svg width="62" height="62" viewBox="0 0 62 62" fill="none" xmlns="http://www.w3.org/2000/svg">
    <circle cx="31" cy="31" r="31" fill="#121111"/>
    <circle cx="31" cy="31" r="30" stroke="white" stroke-opacity="0.08" stroke-width="2"/>
    <path d="M31.7393 29.8867C30.2012 29.8867 28.9434 28.54 28.9434 26.8242C28.9434 25.1562 30.208 23.8232 31.7393 23.8232C33.2637 23.8232 34.5352 25.1699 34.5352 26.8311C34.5352 28.54 33.2773 29.8867 31.7393 29.8867ZM31.7393 31.083C32.7783 31.083 33.708 31.2949 34.4873 31.6436C33.5234 32.4912 32.9014 33.7285 32.9014 35.1094C32.9014 35.5195 32.9561 35.916 33.0654 36.2988H27.5352C26.3252 36.2988 25.9219 35.9023 25.9219 35.2256C25.9219 33.4756 28.1982 31.083 31.7393 31.083ZM37.5361 38.7119C35.5605 38.7119 33.9336 37.085 33.9336 35.1094C33.9336 33.1406 35.5605 31.5137 37.5361 31.5137C39.5049 31.5137 41.1318 33.1406 41.1318 35.1094C41.1318 37.0713 39.498 38.7119 37.5361 38.7119ZM37.5361 37.4404C37.8643 37.4404 38.083 37.2217 38.083 36.8936V35.6631H39.3135C39.6348 35.6631 39.8535 35.4443 39.8535 35.1162C39.8535 34.7812 39.6348 34.5625 39.3135 34.5625H38.083V33.3457C38.083 33.0107 37.8643 32.7988 37.5361 32.7988C37.2012 32.7988 36.9893 33.0176 36.9893 33.3457V34.5625H35.7588C35.4307 34.5625 35.2119 34.7812 35.2119 35.1162C35.2119 35.4443 35.4375 35.6631 35.7588 35.6631H36.9893V36.8936C36.9893 37.2217 37.2012 37.4404 37.5361 37.4404Z" fill="white"/>
</svg>
