<svg width="18" height="17" viewBox="0 0 18 17" fill="none" xmlns="http://www.w3.org/2000/svg">
    <path d="M7.51953 7.88672C6.02246 7.88672 4.75781 6.55371 4.75781 4.84473C4.75781 3.16309 6.0293 1.88477 7.51953 1.88477C9.00293 1.88477 10.2744 3.19043 10.2744 4.8584C10.2744 6.55371 9.00977 7.88672 7.51953 7.88672ZM7.51953 9.09668C8.64062 9.09668 9.625 9.34961 10.4385 9.73926C9.46094 10.5664 8.83203 11.79 8.83203 13.1641C8.83203 13.5332 8.87988 13.8955 8.97559 14.2373H3.26074C2.13281 14.2373 1.74316 13.9023 1.74316 13.2734C1.74316 11.5166 3.97852 9.09668 7.51953 9.09668ZM13.3301 16.6846C11.4023 16.6846 9.80957 15.0986 9.80957 13.1641C9.80957 11.2363 11.4023 9.65039 13.3301 9.65039C15.2578 9.65039 16.8506 11.2363 16.8506 13.1641C16.8506 15.085 15.2373 16.6846 13.3301 16.6846ZM11.7031 13.7451H13.3711C13.6377 13.7451 13.8428 13.5332 13.8428 13.2666V11.1885C13.8428 10.9287 13.6309 10.7236 13.3711 10.7236C13.1045 10.7236 12.8926 10.9287 12.8926 11.1885V12.7949H11.7031C11.4434 12.7949 11.2246 13.0068 11.2246 13.2666C11.2246 13.5332 11.4365 13.7451 11.7031 13.7451Z" fill="white" fill-opacity="0.6"/>
</svg>