<svg width="30" height="25" viewBox="0 0 30 25" fill="none" xmlns="http://www.w3.org/2000/svg">
<path d="M17.4727 24.9258C15.8672 24.9258 14.332 24.6094 12.9023 24.0352C13.6641 23.2383 14.25 22.2656 14.5195 21.3516C15.4453 21.6797 16.5 21.8672 17.4609 21.8672C20.0859 21.8672 22.5586 20.7422 24.2461 18.9141C22.8867 17.5078 20.5078 16.4062 17.4609 16.4062C16.4766 16.4062 15.5977 16.5117 14.7773 16.7109C13.9102 13.3359 10.793 10.7578 7.10156 10.7578C6.44531 10.7578 5.80078 10.8398 5.19141 10.9922C5.98828 4.875 11.2266 0.175781 17.4609 0.175781C24.2578 0.175781 29.8477 5.75391 29.8477 12.5508C29.8477 19.3359 24.2578 24.9258 17.4727 24.9258ZM17.4609 14.3086C19.7461 14.3203 21.5156 12.3633 21.5156 9.85547C21.5156 7.5 19.7344 5.49609 17.4609 5.49609C15.1875 5.49609 13.3828 7.5 13.3945 9.85547C13.4062 12.3633 15.1641 14.2969 17.4609 14.3086ZM7.11328 24.8555C3.72656 24.8555 0.9375 22.0547 0.9375 18.6797C0.9375 15.3047 3.72656 12.5156 7.11328 12.5156C10.5 12.5156 13.2773 15.3047 13.2773 18.6797C13.2773 22.043 10.4766 24.8555 7.11328 24.8555ZM4.06641 19.6289H10.1602C10.6641 19.6289 11.0977 19.1836 11.0977 18.6797C11.0977 18.1758 10.6641 17.7422 10.1602 17.7422H4.06641C3.5625 17.7422 3.11719 18.1875 3.12891 18.6797C3.14062 19.1836 3.5625 19.6289 4.06641 19.6289Z" fill="#FA3737"/>
</svg>
