<svg width="27" height="23" viewBox="0 0 27 23" fill="none" xmlns="http://www.w3.org/2000/svg">
<path d="M15.5195 22.3516C14.0156 22.3516 12.5869 22.04 11.2656 21.4814C11.8027 20.8691 12.2432 20.1602 12.4258 19.6016C13.3818 19.9775 14.4883 20.1816 15.5088 20.1816C18.0869 20.1816 20.5039 19.043 22.0938 17.2705C20.9658 15.9922 18.5918 14.8643 15.5088 14.8643C14.5205 14.8643 13.6289 14.9824 12.8125 15.1758C12.0928 12.1465 9.28906 9.81543 5.96973 9.81543C5.46484 9.81543 4.9707 9.86914 4.49805 9.96582C5.15332 4.46582 9.87988 0.147461 15.5088 0.147461C21.5781 0.147461 26.6162 5.1748 26.6162 11.2549C26.6162 17.3242 21.5889 22.3516 15.5195 22.3516ZM15.5088 13.0059C17.582 13.0273 19.2041 11.2441 19.2041 8.94531C19.2041 6.77539 17.5713 4.95996 15.5088 4.95996C13.4355 4.95996 11.792 6.77539 11.8027 8.94531C11.8135 11.2441 13.4248 12.9844 15.5088 13.0059ZM5.96973 22.3945C2.94043 22.3945 0.448242 19.9023 0.448242 16.8623C0.448242 13.833 2.94043 11.3408 5.96973 11.3408C9.00977 11.3408 11.502 13.833 11.502 16.8623C11.502 19.8809 8.97754 22.3945 5.96973 22.3945ZM3.19824 17.6035H8.74121C9.13867 17.6035 9.47168 17.2598 9.47168 16.8623C9.47168 16.4756 9.13867 16.1318 8.74121 16.1318H3.19824C2.81152 16.1318 2.46777 16.4756 2.46777 16.8623C2.47852 17.2598 2.81152 17.6035 3.19824 17.6035Z" fill="white"/>
</svg>
