<svg width="36" height="29" viewBox="0 0 36 29" fill="none" xmlns="http://www.w3.org/2000/svg">
<path d="M5.63672 26.3164V2.23438C5.63672 1.39062 6.32812 0.699219 7.16016 0.699219C8.00391 0.699219 8.69531 1.39062 8.69531 2.23438V26.3164C8.69531 27.1602 8.00391 27.8398 7.16016 27.8398C6.32812 27.8398 5.63672 27.1602 5.63672 26.3164ZM22.125 6.23047C20.6133 6.23047 19.3711 5 19.3711 3.47656C19.3711 1.95312 20.6133 0.722656 22.125 0.722656C23.6484 0.722656 24.8906 1.95312 24.8906 3.47656C24.8906 5 23.6484 6.23047 22.125 6.23047ZM24.7266 26.7266L22.1953 21.5938C22.0898 21.3828 22.0547 21.2773 21.8203 20.9844L19.3711 17.9023C18.3984 16.6953 18.1055 16.0156 18.2109 14.6914L18.3984 12.1836C18.4219 11.8672 18.0586 11.7266 17.8008 11.9609L17.0156 12.6641L16.7578 15.7578C16.6875 16.5781 16.2188 17.0352 15.4805 16.9883C14.7539 16.9531 14.2969 16.3906 14.3555 15.6172L14.5898 12.7461C14.6602 11.9141 14.8711 11.4102 15.4805 10.8008L17.332 8.98438C18.5156 7.83594 19.418 7.15625 20.7305 7.15625C22.4766 7.15625 23.5312 8.44531 23.4023 10.2031L23.1562 13.707C23.0742 14.9375 22.8867 15.6992 22.4883 16.9883L22.4062 17.2578L23.9297 19.4258C24.1875 19.7891 24.4336 20.1875 24.6211 20.5742L27.0938 25.5664C27.9727 27.3477 25.5352 28.3672 24.7266 26.7266ZM29.0391 11.8906C29.8242 11.8906 30.3633 12.3711 30.3633 13.0859C30.3633 13.8242 29.8359 14.293 29.0391 14.293H26.4375C25.6758 14.293 25.3125 14.1523 24.9023 13.7422L24.4922 13.332L24.7148 10.1445L26.2969 11.8906H29.0391ZM16.043 27.1133C15.0117 28.332 12.9609 26.8789 14.2031 25.3906L17.7773 21.1602L18.3164 18.6641L20.4141 21.3008L20.2617 21.7812C20.1211 22.2148 20.0625 22.332 19.6875 22.7773L16.043 27.1133Z" fill="white"/>
</svg>
