<svg width="34" height="26" viewBox="0 0 34 26" fill="none" xmlns="http://www.w3.org/2000/svg">
<path fill-rule="evenodd" clip-rule="evenodd" d="M22.6528 8.50241C23.8824 7.47652 25.2542 7.0862 26.5699 7.18489C27.9733 7.29013 29.2719 7.94797 30.242 8.90348C31.2118 9.85904 31.8781 11.1372 31.9849 12.5165C32.0924 13.9085 31.6264 15.3664 30.3976 16.6458C30.2853 16.7637 30.1705 16.8799 30.0531 16.9948C24.4797 22.4849 17.0764 22.4994 17.0007 22.4994H17.0003C16.9625 22.4994 9.53567 22.4992 3.94788 16.9942L3.94668 16.9928C3.83132 16.8785 3.71771 16.7634 3.60582 16.6478L3.60492 16.6466C2.37558 15.3683 1.90907 13.9108 2.01636 12.5188C2.12267 11.1397 2.78856 9.86142 3.7582 8.90552C4.72776 7.94968 6.02634 7.29131 7.43 7.18561C8.74556 7.08654 10.1177 7.47638 11.3479 8.50176C11.4802 6.92024 12.1694 5.68936 13.1698 4.84315C14.2368 3.94062 15.6273 3.50049 17.0004 3.50049C18.3734 3.50049 19.7639 3.94062 20.8308 4.84315C21.8313 5.68947 22.5206 6.92058 22.6528 8.50241ZM17.2555 21.9429L17.2552 21.9359H17.2557L17.2555 21.9429ZM16.7452 21.9429L16.745 21.9359H16.7455L16.7452 21.9429ZM21.1876 14.3194C21.0351 14.3194 20.9823 14.5363 21.0795 14.6512C21.2516 14.8548 21.3552 15.1167 21.3552 15.4024C21.3552 16.0507 20.8219 16.5762 20.1639 16.5762C19.5058 16.5762 18.9723 16.0507 18.9723 15.4024C18.9723 15.3677 18.9264 15.3505 18.9056 15.3786C18.7177 15.6329 18.5908 15.9183 18.5387 16.218C18.5093 16.3868 18.3701 16.5268 18.1951 16.5268H18.0985C17.8701 16.5268 17.6817 16.3443 17.7154 16.1232C17.9464 14.6086 19.4616 13.5101 21.1876 13.5101C22.9134 13.5101 24.4286 14.6086 24.6597 16.1232C24.6932 16.3443 24.5049 16.5268 24.2766 16.5268C24.0481 16.5268 23.8673 16.3433 23.8176 16.1252C23.5918 15.1324 22.5446 14.3194 21.1876 14.3194ZM10.6068 15.4024C10.6068 15.3566 10.5466 15.3321 10.5183 15.3685C10.3174 15.6267 10.1805 15.9192 10.1226 16.2274C10.0884 16.4094 9.93805 16.5609 9.74885 16.5609H9.67794C9.44956 16.5609 9.26116 16.3784 9.29483 16.1574C9.52578 14.642 11.0411 13.5443 12.767 13.5443C14.4928 13.5443 16.0081 14.642 16.2391 16.1574C16.2728 16.3784 16.0844 16.5609 15.856 16.5609C15.6276 16.5609 15.4468 16.3776 15.3972 16.1594C15.1714 15.166 14.1242 14.3536 12.767 14.3536C12.6436 14.3536 12.5984 14.5242 12.681 14.6139C12.8729 14.8222 12.9898 15.0989 12.9898 15.4024C12.9898 16.0507 12.4564 16.5762 11.7983 16.5762C11.1403 16.5762 10.6068 16.0507 10.6068 15.4024ZM18.3259 18.2333C18.4873 18.0752 18.7367 17.9984 18.9371 18.1054C19.1375 18.2127 19.2136 18.4613 19.0691 18.6345C18.5988 19.1981 17.8371 19.5554 16.9972 19.5554C16.1576 19.5554 15.3944 19.202 14.9233 18.634C14.7794 18.4605 14.8564 18.2118 15.0572 18.1054C15.258 17.9989 15.5071 18.0769 15.6682 18.235C15.9787 18.5401 16.4499 18.7463 16.9972 18.7463C17.5431 18.7463 18.0147 18.5379 18.3259 18.2333Z" fill="white"/>
</svg>
