<svg width="33" height="30" viewBox="0 0 33 30" fill="none" xmlns="http://www.w3.org/2000/svg">
<path fill-rule="evenodd" clip-rule="evenodd" d="M21.6901 10.2803C22.809 9.34676 24.0573 8.99159 25.2545 9.08139C26.5316 9.17716 27.7133 9.77576 28.596 10.6452C29.4784 11.5147 30.0848 12.6778 30.1819 13.9329C30.2798 15.1996 29.8557 16.5262 28.7376 17.6904C28.6354 17.7977 28.5309 17.9034 28.4241 18.0079C23.3526 23.0037 16.6159 23.0169 16.547 23.0169H16.5467C16.5122 23.0169 9.7542 23.0166 4.66958 18.0074L4.66849 18.0061C4.56352 17.9022 4.46014 17.7974 4.35832 17.6922L4.35751 17.6911C3.23886 16.5279 2.81436 15.2016 2.91199 13.935C3.00873 12.6801 3.61465 11.5169 4.49698 10.6471C5.37924 9.77731 6.56088 9.17823 7.83814 9.08205C9.03525 8.99189 10.2838 9.34663 11.4033 10.2797C11.5236 8.84057 12.1508 7.72053 13.0611 6.95052C14.032 6.12926 15.2973 5.72876 16.5467 5.72876C17.7962 5.72876 19.0614 6.12926 20.0323 6.95052C20.9427 7.72063 21.5699 8.84088 21.6901 10.2803ZM16.7789 22.5105L16.7787 22.5041H16.7791L16.7789 22.5105ZM16.3146 22.5105L16.3144 22.5041H16.3148L16.3146 22.5105ZM20.3569 15.5734C20.2181 15.5734 20.17 15.7709 20.2585 15.8754C20.4151 16.0606 20.5095 16.2989 20.5095 16.5589C20.5095 17.1488 20.0241 17.6271 19.4254 17.6271C18.8265 17.6271 18.3411 17.1488 18.3411 16.5589C18.3411 16.5274 18.2993 16.5117 18.2804 16.5373C18.1094 16.7686 17.994 17.0284 17.9465 17.3011C17.9198 17.4547 17.7931 17.5821 17.6339 17.5821H17.5459C17.3381 17.5821 17.1667 17.416 17.1974 17.2149C17.4076 15.8367 18.7864 14.8371 20.3569 14.8371C21.9273 14.8371 23.3061 15.8367 23.5163 17.2149C23.5468 17.416 23.3755 17.5821 23.1678 17.5821C22.9598 17.5821 22.7953 17.4151 22.75 17.2167C22.5446 16.3133 21.5917 15.5734 20.3569 15.5734ZM10.7289 16.5589C10.7289 16.5173 10.6741 16.4949 10.6484 16.5281C10.4656 16.7631 10.341 17.0292 10.2883 17.3097C10.2572 17.4753 10.1204 17.6131 9.94819 17.6131H9.88366C9.67585 17.6131 9.50442 17.4471 9.53505 17.246C9.7452 15.867 11.1241 14.8682 12.6945 14.8682C14.2649 14.8682 15.6438 15.867 15.854 17.246C15.8847 17.4471 15.7132 17.6131 15.5054 17.6131C15.2976 17.6131 15.133 17.4463 15.0879 17.2478C14.8824 16.3438 13.9296 15.6045 12.6945 15.6045C12.5823 15.6045 12.5412 15.7598 12.6163 15.8414C12.7909 16.031 12.8973 16.2827 12.8973 16.5589C12.8973 17.1488 12.4119 17.6271 11.8131 17.6271C11.2143 17.6271 10.7289 17.1488 10.7289 16.5589ZM17.7529 19.1349C17.8997 18.991 18.1267 18.9211 18.3091 19.0185C18.4914 19.1161 18.5606 19.3424 18.4292 19.5C18.0012 20.0128 17.3082 20.338 16.5438 20.338C15.7799 20.338 15.0853 20.0164 14.6567 19.4995C14.5258 19.3416 14.5958 19.1154 14.7785 19.0185C14.9613 18.9216 15.1879 18.9926 15.3346 19.1365C15.6171 19.4141 16.0458 19.6017 16.5438 19.6017C17.0405 19.6017 17.4697 19.4121 17.7529 19.1349Z" fill="white"/>
</svg>
