<svg width="15" height="14" viewBox="0 0 15 14" fill="none" xmlns="http://www.w3.org/2000/svg">
    <path d="M7.3 12.8223C3.98945 12.8223 1.24727 10.0859 1.24727 6.76953C1.24727 3.45898 3.98359 0.716797 7.29414 0.716797C10.6105 0.716797 13.3527 3.45898 13.3527 6.76953C13.3527 10.0859 10.6105 12.8223 7.3 12.8223ZM7.3 11.6328C9.99531 11.6328 12.1633 9.46484 12.1633 6.76953C12.1633 4.07422 9.98945 1.91211 7.29414 1.91211C4.59883 1.91211 2.44258 4.07422 2.44258 6.76953C2.44258 9.46484 4.60469 11.6328 7.3 11.6328ZM9.12227 8.29297C8.8293 8.29297 8.6418 8.09375 8.6418 7.77148V6.83398L8.72383 5.99023L7.93867 6.85156L5.88789 8.90234C5.78242 9.00781 5.65352 9.06055 5.49531 9.06055C5.19648 9.06055 4.98555 8.86133 4.98555 8.55078C4.98555 8.41016 5.05 8.27539 5.14961 8.17578L7.20039 6.11914L8.07344 5.32812L7.2707 5.41602H6.28047C5.9582 5.41602 5.75313 5.22852 5.75313 4.93555C5.75313 4.64844 5.9582 4.46094 6.27461 4.46094H9.01094C9.38008 4.46094 9.60273 4.63672 9.60273 5.04102V7.76562C9.60273 8.07617 9.41523 8.29297 9.12227 8.29297Z" fill="white" fill-opacity="0.6"/>
</svg>