<svg width="17" height="14" viewBox="0 0 17 14" fill="none" xmlns="http://www.w3.org/2000/svg">
    <path d="M8.66797 0.804688V2.60352C8.66797 2.91992 8.39844 3.18945 8.08203 3.18945C7.76562 3.18945 7.49609 2.91992 7.49609 2.60352V0.804688C7.49609 0.488281 7.76562 0.212891 8.08203 0.212891C8.39844 0.212891 8.66797 0.488281 8.66797 0.804688ZM4.68359 4.18555L3.42969 2.91992C3.20703 2.69727 3.20703 2.31641 3.43555 2.09375C3.6582 1.87109 4.03906 1.87695 4.26172 2.09961L5.51562 3.35938C5.73828 3.58203 5.73828 3.96289 5.50977 4.18555C5.28711 4.41406 4.90625 4.4082 4.68359 4.18555ZM10.5957 3.40625L11.8555 2.14648C12.084 1.92383 12.4648 1.91797 12.6875 2.14062C12.9102 2.36914 12.9102 2.75 12.6875 2.97266L11.4336 4.23242C11.2051 4.46094 10.8242 4.46094 10.6016 4.23828C10.373 4.00977 10.373 3.63477 10.5957 3.40625ZM14.0293 7.33203H12.2305C11.9082 7.33203 11.6445 7.0625 11.6445 6.74609C11.6445 6.42969 11.9082 6.16016 12.2305 6.16016H14.0293C14.3457 6.16016 14.6152 6.42969 14.6152 6.74609C14.6152 7.0625 14.3457 7.33203 14.0293 7.33203ZM2.13477 6.16016H3.93945C4.26172 6.16016 4.53125 6.42969 4.53125 6.74609C4.53125 7.0625 4.26172 7.33203 3.93945 7.33203H2.13477C1.81836 7.33203 1.54883 7.0625 1.54883 6.74609C1.54883 6.42969 1.81836 6.16016 2.13477 6.16016ZM11.4277 9.25391L12.6875 10.5137C12.916 10.7363 12.916 11.123 12.6934 11.3457C12.4648 11.5684 12.084 11.5742 11.8613 11.3516L10.6016 10.0859C10.373 9.86328 10.373 9.48242 10.5957 9.25977C10.8242 9.03711 11.2051 9.03125 11.4277 9.25391ZM3.47656 10.5137L4.73633 9.26562C4.95898 9.03711 5.33984 9.04297 5.5625 9.26562C5.78516 9.48828 5.78516 9.86914 5.55664 10.0918L4.30273 11.3516C4.07422 11.5742 3.69336 11.5684 3.46484 11.3398C3.24805 11.1172 3.24805 10.7363 3.47656 10.5137ZM8.66797 10.8887V12.6875C8.66797 13.0098 8.39844 13.2793 8.08203 13.2793C7.76562 13.2793 7.49609 13.0098 7.49609 12.6875V10.8887C7.49609 10.5723 7.76562 10.3027 8.08203 10.3027C8.39844 10.3027 8.66797 10.5723 8.66797 10.8887Z" fill="white" fill-opacity="0.6"/>
</svg>