<svg width="22" height="22" viewBox="0 0 22 22" fill="none" xmlns="http://www.w3.org/2000/svg">
<path d="M11 19.5898C6.31006 19.5898 2.42529 15.7134 2.42529 11.0151C2.42529 6.3252 6.30176 2.44043 10.9917 2.44043C15.6899 2.44043 19.5747 6.3252 19.5747 11.0151C19.5747 15.7134 15.6899 19.5898 11 19.5898ZM8.95801 7.91895C8.95801 8.81543 9.53906 9.5708 10.3276 9.83643V14.0366C10.3276 15.1987 10.585 16.3359 11 16.3359C11.415 16.3359 11.6641 15.2236 11.6641 14.0366V9.84473C12.4692 9.5791 13.0503 8.82373 13.0503 7.91895C13.0503 6.79004 12.1289 5.87695 11 5.87695C9.87109 5.87695 8.95801 6.79004 8.95801 7.91895ZM9.84619 7.37939C9.84619 7.03076 10.1533 6.72363 10.4937 6.72363C10.8506 6.72363 11.1494 7.03076 11.1494 7.37939C11.1411 7.72803 10.8506 8.03516 10.4937 8.03516C10.1533 8.03516 9.84619 7.72803 9.84619 7.37939Z" fill="white" fill-opacity="1"/>
</svg>
