<svg width="13" height="14" viewBox="0 0 13 14" fill="none" xmlns="http://www.w3.org/2000/svg">
<path d="M3.74414 12.4531C2.85352 12.4531 2.39062 11.9785 2.39062 11.0176V6.86328C2.39062 6.01953 2.75977 5.54492 3.46289 5.45117V4.0625C3.46289 1.90039 4.89258 0.78125 6.49219 0.78125C8.0918 0.78125 9.52148 1.90039 9.52148 4.0625V5.45703C10.2246 5.55078 10.5879 6.01953 10.5879 6.86328V11.0176C10.5879 11.9785 10.125 12.4531 9.23438 12.4531H3.74414ZM4.55859 3.95703V5.43359H8.42578V3.95703C8.42578 2.58008 7.53516 1.83008 6.49219 1.83008C5.44336 1.83008 4.55859 2.58008 4.55859 3.95703Z" fill="#121111"/>
</svg>
