<svg width="11" height="14" viewBox="0 0 11 14" fill="none" xmlns="http://www.w3.org/2000/svg">
<path d="M2.29395 13.6953C1.25488 13.6953 0.714844 13.1416 0.714844 12.0205V7.17383C0.714844 6.18945 1.14551 5.63574 1.96582 5.52637V3.90625C1.96582 1.38379 3.63379 0.078125 5.5 0.078125C7.36621 0.078125 9.03418 1.38379 9.03418 3.90625V5.5332C9.85449 5.64258 10.2783 6.18945 10.2783 7.17383V12.0205C10.2783 13.1416 9.73828 13.6953 8.69922 13.6953H2.29395ZM3.24414 3.7832V5.50586H7.75586V3.7832C7.75586 2.17676 6.7168 1.30176 5.5 1.30176C4.27637 1.30176 3.24414 2.17676 3.24414 3.7832Z" fill="white"/>
</svg>
