<svg width="38" height="38" viewBox="0 0 38 38" fill="none" xmlns="http://www.w3.org/2000/svg">
<rect width="38" height="38" rx="12" fill="#3D4B41" fill-opacity="0.1"/>
<rect x="0.5" y="0.5" width="37" height="37" rx="11.5" stroke="black" stroke-opacity="0.08"/>
<path fill-rule="evenodd" clip-rule="evenodd" d="M24.0872 14.4757C25.1939 13.5577 26.4286 13.2084 27.6128 13.2967C28.8759 13.3909 30.0447 13.9795 30.9178 14.8345C31.7907 15.6895 32.3905 16.8332 32.4865 18.0674C32.5833 19.3129 32.1639 20.6175 31.0579 21.7623C30.9568 21.8678 30.8535 21.9717 30.7479 22.0745C25.7315 26.987 19.0682 27 19 27H18.9997C18.9656 27 12.2811 26.9997 7.25187 22.074L7.25079 22.0728C7.14696 21.9705 7.04471 21.8675 6.94399 21.764L6.94319 21.763C5.83672 20.6192 5.41684 19.315 5.51341 18.0695C5.60909 16.8355 6.20842 15.6917 7.08115 14.8363C7.9538 13.9811 9.12258 13.392 10.3859 13.2974C11.57 13.2087 12.805 13.5576 13.9123 14.4751C14.0313 13.0599 14.6516 11.9586 15.5521 11.2014C16.5124 10.3938 17.7639 10 18.9997 10C20.2356 10 21.487 10.3938 22.4473 11.2014C23.3478 11.9587 23.9682 13.0603 24.0872 14.4757ZM19.2294 26.502L19.2291 26.4958H19.2295L19.2294 26.502ZM18.7701 26.502L18.7699 26.4958H18.7703L18.7701 26.502ZM22.7685 19.6806C22.6312 19.6806 22.5836 19.8747 22.6711 19.9776C22.826 20.1597 22.9193 20.394 22.9193 20.6497C22.9193 21.2298 22.4393 21.7 21.8471 21.7C21.2547 21.7 20.7746 21.2298 20.7746 20.6497C20.7746 20.6186 20.7332 20.6032 20.7146 20.6283C20.5454 20.8559 20.4312 21.1113 20.3843 21.3795C20.3579 21.5305 20.2326 21.6558 20.0751 21.6558H19.9881C19.7825 21.6558 19.613 21.4924 19.6433 21.2947C19.8513 19.9394 21.215 18.9565 22.7685 18.9565C24.3218 18.9565 25.6855 19.9394 25.8935 21.2947C25.9237 21.4924 25.7542 21.6558 25.5487 21.6558C25.343 21.6558 25.1803 21.4916 25.1355 21.2964C24.9324 20.4081 23.9898 19.6806 22.7685 19.6806ZM13.2452 20.6497C13.2452 20.6087 13.1911 20.5868 13.1656 20.6193C12.9848 20.8504 12.8616 21.1121 12.8094 21.3879C12.7786 21.5507 12.6433 21.6863 12.473 21.6863H12.4092C12.2036 21.6863 12.0341 21.523 12.0644 21.3253C12.2722 19.9693 13.6361 18.9871 15.1895 18.9871C16.7428 18.9871 18.1067 19.9693 18.3145 21.3253C18.3449 21.523 18.1753 21.6863 17.9697 21.6863C17.7642 21.6863 17.6014 21.5222 17.5568 21.327C17.3536 20.4381 16.4111 19.7112 15.1895 19.7112C15.0784 19.7112 15.0378 19.8639 15.1121 19.9441C15.2848 20.1305 15.3901 20.3781 15.3901 20.6497C15.3901 21.2298 14.9099 21.7 14.3177 21.7C13.7254 21.7 13.2452 21.2298 13.2452 20.6497ZM20.1927 23.1828C20.338 23.0413 20.5625 22.9725 20.7429 23.0683C20.9233 23.1643 20.9917 23.3868 20.8617 23.5417C20.4384 24.046 19.7529 24.3657 18.9969 24.3657C18.2412 24.3657 17.5542 24.0495 17.1303 23.5413C17.0008 23.386 17.0701 23.1635 17.2508 23.0683C17.4315 22.973 17.6557 23.0427 17.8008 23.1842C18.0802 23.4572 18.5043 23.6418 18.9969 23.6418C19.4882 23.6418 19.9127 23.4553 20.1927 23.1828Z" fill="#3D4B41"/>
</svg>
