<svg width="42" height="42" viewBox="0 0 42 42" fill="none" xmlns="http://www.w3.org/2000/svg">
<circle cx="9.11102" cy="9.11102" r="9.11102" transform="matrix(0.707107 0.707106 -0.707107 0.707106 31.0577 -1.83203)" fill="white"/>
<rect width="15.6231" height="15.6231" rx="4.04934" transform="matrix(0.707107 0.707106 -0.707107 0.707106 10.2036 20.4395)" fill="white"/>
<path d="M10.0355 1.78422C10.1471 1.64314 10.3611 1.64314 10.4727 1.78422L12.1801 3.94354C12.2534 4.03626 12.3773 4.07263 12.4891 4.03426L15.0929 3.14084C15.263 3.08246 15.443 3.19817 15.4606 3.37717L15.7296 6.1168C15.7411 6.23445 15.8256 6.332 15.9405 6.36018L18.6139 7.0163C18.7886 7.05916 18.8775 7.25384 18.7955 7.41392L17.5406 9.86406C17.4867 9.96928 17.5051 10.097 17.5865 10.1828L19.4808 12.1802C19.6046 12.3107 19.5741 12.5225 19.4186 12.6128L17.0383 13.9956C16.936 14.055 16.8824 14.1724 16.9045 14.2885L17.4183 16.993C17.4518 17.1697 17.3117 17.3314 17.132 17.3233L14.382 17.1997C14.2639 17.1943 14.1553 17.2641 14.1111 17.3738L13.0811 19.9266C13.0138 20.0934 12.8085 20.1537 12.6617 20.0498L10.4151 18.459C10.3186 18.3907 10.1895 18.3907 10.0931 18.459L7.84645 20.0498C7.69966 20.1537 7.49432 20.0934 7.42703 19.9266L6.39711 17.3738C6.35289 17.2641 6.24429 17.1943 6.1262 17.1997L3.37617 17.3233C3.19649 17.3314 3.05634 17.1697 3.08991 16.993L3.60368 14.2885C3.62575 14.1724 3.57212 14.055 3.4699 13.9956L1.08957 12.6128C0.93405 12.5225 0.903593 12.3107 1.02736 12.1802L2.92171 10.1828C3.00306 10.097 3.02143 9.96928 2.96754 9.86406L1.71265 7.41392C1.63066 7.25384 1.71956 7.05916 1.89424 7.0163L4.56771 6.36018C4.68252 6.332 4.76706 6.23445 4.77861 6.1168L5.04757 3.37717C5.06514 3.19817 5.24518 3.08246 5.41531 3.14084L8.0191 4.03426C8.13092 4.07263 8.25477 4.03626 8.3281 3.94354L10.0355 1.78422Z" fill="white"/>
<path fill-rule="evenodd" clip-rule="evenodd" d="M27.9714 22.4192C27.6428 22.4192 27.3276 22.5497 27.0952 22.7821L22.3669 27.5104C22.1345 27.7428 22.004 28.058 22.004 28.3866V34.7638C22.004 35.0924 22.1345 35.4076 22.3669 35.64L26.92 40.1931C27.1524 40.4254 27.4676 40.556 27.7962 40.556L34.1734 40.556C34.502 40.556 34.8172 40.4254 35.0495 40.1931L39.7779 35.4647C40.0103 35.2323 40.1408 34.9172 40.1408 34.5885V28.2114C40.1408 27.8827 40.0103 27.5676 39.7779 27.3352L35.2248 22.7821C34.9924 22.5497 34.6772 22.4192 34.3486 22.4192L27.9714 22.4192ZM30.5189 28.7241C30.1902 28.7241 29.875 28.8546 29.6426 29.087L28.6933 30.0363C28.4609 30.2687 28.3304 30.5839 28.3304 30.9126L28.3305 32.1602C28.3306 32.4888 28.4611 32.8039 28.6935 33.0363L29.5894 33.9322C29.8218 34.1646 30.1369 34.2951 30.4655 34.2952L31.7132 34.2953C32.0418 34.2953 32.3571 34.1648 32.5895 33.9324L33.5387 32.9831C33.7711 32.7507 33.9017 32.4355 33.9016 32.1068L33.9015 30.8592C33.9015 30.5306 33.7709 30.2155 33.5386 29.9831L32.6426 29.0871C32.4103 28.8548 32.0951 28.7243 31.7666 28.7242L30.5189 28.7241Z" fill="white"/>
</svg>
