<svg width="25" height="25" viewBox="0 0 25 25" fill="none" xmlns="http://www.w3.org/2000/svg">
<circle cx="5.69439" cy="5.69439" r="5.69439" transform="matrix(0.707107 0.707106 -0.707107 0.707106 19.0837 -2.06531)" fill="white"/>
<rect width="9.76446" height="9.76446" rx="2.53084" transform="matrix(0.707107 0.707106 -0.707107 0.707106 6.04987 11.8547)" fill="white"/>
<path d="M5.94485 0.195125C6.01458 0.106948 6.14834 0.106948 6.21806 0.195125L7.2852 1.5447C7.33103 1.60265 7.40844 1.62538 7.47832 1.6014L9.10569 1.04301C9.21202 1.00653 9.32455 1.07884 9.33553 1.19072L9.50363 2.90299C9.51085 2.97652 9.56368 3.03749 9.63544 3.0551L11.3064 3.46517C11.4155 3.49196 11.4711 3.61363 11.4199 3.71369L10.6355 5.24502C10.6019 5.31078 10.6133 5.39064 10.6642 5.44425L11.8482 6.69259C11.9255 6.77415 11.9065 6.90655 11.8093 6.96302L10.3216 7.82723C10.2577 7.86434 10.2242 7.93773 10.238 8.01032L10.5591 9.70059C10.58 9.81102 10.4925 9.91211 10.3802 9.90706L8.66139 9.82977C8.58758 9.82645 8.5197 9.87007 8.49206 9.93859L7.84837 11.5341C7.80631 11.6384 7.67797 11.6761 7.58623 11.6111L6.18209 10.6169C6.12179 10.5742 6.04112 10.5742 5.98082 10.6169L4.57668 11.6111C4.48494 11.6761 4.3566 11.6384 4.31455 11.5341L3.67085 9.93859C3.64321 9.87007 3.57534 9.82645 3.50153 9.82977L1.78276 9.90706C1.67046 9.91211 1.58286 9.81102 1.60385 9.70059L1.92496 8.01032C1.93875 7.93773 1.90523 7.86434 1.84134 7.82723L0.353637 6.96302C0.256434 6.90655 0.237399 6.77415 0.314756 6.69259L1.49872 5.44425C1.54957 5.39064 1.56105 5.31078 1.52737 5.24502L0.743059 3.71369C0.691814 3.61363 0.747379 3.49196 0.856553 3.46517L2.52747 3.0551C2.59923 3.03749 2.65206 2.97652 2.65928 2.90298L2.82738 1.19072C2.83837 1.07884 2.95089 1.00653 3.05722 1.04301L4.68459 1.6014C4.75448 1.62538 4.83189 1.60265 4.87771 1.5447L5.94485 0.195125Z" fill="white"/>
<path fill-rule="evenodd" clip-rule="evenodd" d="M17.1548 13.0919C16.9494 13.0919 16.7525 13.1735 16.6072 13.3187L13.652 16.2739C13.5068 16.4192 13.4252 16.6161 13.4252 16.8215L13.4252 20.8073C13.4252 21.0127 13.5068 21.2096 13.652 21.3549L16.4977 24.2006C16.6429 24.3458 16.8399 24.4274 17.0453 24.4274L21.031 24.4274C21.2364 24.4274 21.4334 24.3458 21.5787 24.2006L24.5339 21.2453C24.6791 21.1001 24.7607 20.9031 24.7607 20.6977L24.7607 16.712C24.7607 16.5066 24.6791 16.3096 24.5339 16.1644L21.6882 13.3187C21.5429 13.1735 21.346 13.0919 21.1406 13.0919L17.1548 13.0919ZM18.7469 17.0323C18.5415 17.0323 18.3445 17.1139 18.1992 17.2592L17.606 17.8524C17.4607 17.9977 17.3791 18.1947 17.3792 18.4001L17.3792 19.1799C17.3793 19.3853 17.4608 19.5822 17.6061 19.7275L18.166 20.2874C18.3113 20.4327 18.5082 20.5142 18.7136 20.5143L19.4934 20.5143C19.6988 20.5144 19.8958 20.4328 20.0411 20.2875L20.6343 19.6942C20.7796 19.549 20.8612 19.352 20.8612 19.1466L20.8611 18.3668C20.8611 18.1614 20.7795 17.9644 20.6343 17.8192L20.0743 17.2592C19.9291 17.114 19.7321 17.0324 19.5267 17.0324L18.7469 17.0323Z" fill="white"/>
</svg>
