<svg width="18" height="18" viewBox="0 0 18 18" fill="none" xmlns="http://www.w3.org/2000/svg">
    <path d="M3.50391 11.0869V4.16895C3.50391 3.66992 3.88672 3.29395 4.38574 3.29395C4.87793 3.29395 5.25391 3.66992 5.25391 4.16895V8.48242C5.41797 8.38672 5.58887 8.29102 5.77344 8.21582V2.03613C5.77344 1.53711 6.14941 1.1543 6.64844 1.1543C7.14062 1.1543 7.5166 1.53711 7.5166 2.03613V7.7373C7.69434 7.70996 7.87207 7.68945 8.0498 7.67578V1.47559C8.0498 0.976562 8.42578 0.600586 8.9248 0.600586C9.42383 0.600586 9.7998 0.976562 9.7998 1.47559V7.74414C9.98438 7.78516 10.1484 7.83301 10.3125 7.8877V2.42578C10.3125 1.92676 10.6885 1.54395 11.1875 1.54395C11.6865 1.54395 12.0625 1.91992 12.0625 2.42578V9.74023C12.0625 9.93848 12.1377 10 12.2402 10C12.3359 10 12.4111 9.93848 12.4932 9.76074L13.457 7.62109C13.7236 7.05371 14.0859 6.7666 14.6055 6.84863C15.0498 6.91699 15.3164 7.29297 15.248 7.76465C15.1934 8.18164 14.8721 9.14551 14.626 9.9043C14.3047 10.9434 13.751 12.748 12.8896 13.8965C11.9053 15.3936 10.5518 16.1455 8.59668 16.1455C5.71191 16.1455 3.50391 14.2383 3.50391 11.0869Z" fill="white"/>
</svg>