<svg width="22" height="21" viewBox="0 0 22 21" fill="none" xmlns="http://www.w3.org/2000/svg">
    <path d="M11.4131 19.0918C7.03613 19.0918 3.88965 16.4287 3.88965 11.7178V11.709C3.88965 7.34082 6.9043 4.35254 11.2285 4.35254C15.3594 4.35254 18.3037 6.9541 18.3037 11.085V11.0938C18.3037 13.9678 17.0381 15.5322 15.3506 15.5322C14.2432 15.5322 13.4873 14.873 13.1709 14.0029L13.127 13.8975H13.0479C12.626 14.9609 11.7295 15.4795 10.6133 15.4795C8.79395 15.4795 7.56348 13.9766 7.56348 11.7354V11.7266C7.56348 9.56445 8.8291 8.07031 10.6133 8.07031C11.5625 8.07031 12.4062 8.57129 12.7402 9.33594H12.8105V8.24609H14.3047V12.4648C14.3047 13.625 14.7441 14.2051 15.4033 14.2051C16.2646 14.2051 16.8623 13.1416 16.8623 11.1201V11.1113C16.8623 7.74512 14.5596 5.63574 11.1318 5.63574C7.75684 5.63574 5.33984 8.13184 5.33984 11.7266V11.7354C5.33984 15.6377 7.91504 17.791 11.4746 17.791C12.6172 17.791 13.7861 17.624 14.4277 17.3604V18.6436C13.6104 18.9336 12.5469 19.0918 11.4131 19.0918ZM10.9121 14.1084C12.0283 14.1084 12.7402 13.2031 12.7402 11.7617V11.7441C12.7402 10.3203 12.0283 9.42383 10.9297 9.42383C9.83105 9.42383 9.18066 10.2852 9.18066 11.7441V11.7529C9.18066 13.2207 9.83984 14.1084 10.9121 14.1084Z" fill="white"/>
</svg>