<svg width="13" height="17" viewBox="0 0 13 17" fill="none" xmlns="http://www.w3.org/2000/svg">
    <path d="M6.48047 14.627C3.07617 14.627 0.628906 12.5557 0.628906 8.8916V8.88477C0.628906 5.4873 2.97363 3.16309 6.33691 3.16309C9.5498 3.16309 11.8398 5.18652 11.8398 8.39941V8.40625C11.8398 10.6416 10.8555 11.8584 9.54297 11.8584C8.68164 11.8584 8.09375 11.3457 7.84766 10.6689L7.81348 10.5869H7.75195C7.42383 11.4141 6.72656 11.8174 5.8584 11.8174C4.44336 11.8174 3.48633 10.6484 3.48633 8.90527V8.89844C3.48633 7.2168 4.4707 6.05469 5.8584 6.05469C6.59668 6.05469 7.25293 6.44434 7.5127 7.03906H7.56738V6.19141H8.72949V9.47266C8.72949 10.375 9.07129 10.8262 9.58398 10.8262C10.2539 10.8262 10.7188 9.99902 10.7188 8.42676V8.41992C10.7188 5.80176 8.92773 4.16113 6.26172 4.16113C3.63672 4.16113 1.75684 6.10254 1.75684 8.89844V8.90527C1.75684 11.9404 3.75977 13.6152 6.52832 13.6152C7.41699 13.6152 8.32617 13.4854 8.8252 13.2803V14.2783C8.18945 14.5039 7.3623 14.627 6.48047 14.627ZM6.09082 10.751C6.95898 10.751 7.5127 10.0469 7.5127 8.92578V8.91211C7.5127 7.80469 6.95898 7.10742 6.10449 7.10742C5.25 7.10742 4.74414 7.77734 4.74414 8.91211V8.91895C4.74414 10.0605 5.25684 10.751 6.09082 10.751Z" fill="white" fill-opacity="0.6"/>
</svg>