<svg width="22" height="21" viewBox="0 0 22 21" fill="none" xmlns="http://www.w3.org/2000/svg">
<path d="M10.6523 19.7334C5.68652 19.7334 1.57324 15.6289 1.57324 10.6543C1.57324 5.68848 5.67773 1.5752 10.6436 1.5752C15.6182 1.5752 19.7314 5.68848 19.7314 10.6543C19.7314 15.6289 15.6182 19.7334 10.6523 19.7334ZM7.35645 9.75781H13.9395C14.4756 9.75781 14.8447 9.48535 14.8447 8.97559C14.8447 8.46582 14.4932 8.18457 13.9395 8.18457H7.35645C6.80273 8.18457 6.44238 8.45703 6.44238 8.97559C6.44238 9.48535 6.82031 9.75781 7.35645 9.75781ZM7.35645 13.1504H13.9395C14.4756 13.1504 14.8447 12.8779 14.8447 12.3682C14.8447 11.8496 14.4932 11.5771 13.9395 11.5771H7.35645C6.80273 11.5771 6.44238 11.8496 6.44238 12.3682C6.44238 12.8779 6.82031 13.1504 7.35645 13.1504Z" fill="white" style="fill:white;fill:white;fill-opacity:1;"/>
</svg>
