<svg width="30" height="26" viewBox="0 0 30 26" fill="none" xmlns="http://www.w3.org/2000/svg">
    <path d="M6.73047 24.7168C5.87109 24.7168 5.60254 24.04 6.0752 23.4385C6.50488 22.8906 7.54688 21.7197 8.16992 20.6885C8.27734 20.4951 8.22363 20.334 8.01953 20.2266C4.50684 18.3252 2.42285 15.2422 2.42285 11.7832C2.42285 6.24023 7.95508 1.78223 14.8623 1.78223C21.7695 1.78223 27.3018 6.24023 27.3018 11.7832C27.3018 17.5303 21.8018 21.7842 14.0459 21.7842C13.9277 21.7842 13.7988 21.7734 13.6699 21.7734C13.498 21.7627 13.3262 21.8164 13.1221 21.9668C11.1885 23.3311 8.04102 24.7168 6.73047 24.7168Z" fill="white" style="fill:white;fill:white;fill-opacity:1;"/>
</svg>