<svg width="22" height="21" viewBox="0 0 22 21" fill="none" xmlns="http://www.w3.org/2000/svg">
    <path d="M11 19.7422C6.03418 19.7422 1.9209 15.6377 1.9209 10.6631C1.9209 5.69727 6.02539 1.58398 10.9912 1.58398C15.9658 1.58398 20.0791 5.69727 20.0791 10.6631C20.0791 15.6377 15.9658 19.7422 11 19.7422ZM7.05371 11.2783C7.05371 11.5244 7.24707 11.7002 7.50195 11.7002H10.499L8.89941 15.9717C8.66211 16.5869 9.33008 16.9297 9.73438 16.4375L14.6562 10.3115C14.7617 10.1973 14.8145 10.0566 14.8145 9.93359C14.8145 9.6875 14.6211 9.50293 14.3662 9.50293H11.3691L12.9688 5.23145C13.2061 4.625 12.5381 4.28223 12.125 4.77441L7.20312 10.9004C7.10645 11.0146 7.05371 11.1553 7.05371 11.2783Z" fill="white"/>
</svg>