<svg width="19" height="21" viewBox="0 0 19 21" fill="none" xmlns="http://www.w3.org/2000/svg">
    <path d="M0 11.132C0 10.921 0.0878906 10.7365 0.246094 10.5431L8.44629 0.382942C9.0791 -0.399285 10.0723 0.110481 9.71191 1.06849L7.03125 8.27552H12.1289C12.5156 8.27552 12.7969 8.53919 12.7969 8.90833C12.7969 9.11048 12.7178 9.29505 12.5596 9.4972L12.1729 9.97181C9.07031 10.007 6.49512 12.5997 6.49512 15.7286C6.49512 16.1154 6.53906 16.4933 6.60938 16.8536L4.35059 19.6574C3.71777 20.4308 2.72461 19.921 3.08496 18.963L5.76562 11.7648H0.667969C0.28125 11.7648 0 11.4923 0 11.132Z" fill="#4192EF" style="fill:#4192EF;fill:color(display-p3 0.2549 0.5725 0.9373);fill-opacity:1;"/>
    <path d="M7.19995 15.7744C7.19995 18.5246 9.46209 20.7793 12.2 20.7793C14.9087 20.7793 17.2 18.5052 17.2 15.7744C17.2 13.0339 14.9378 10.7793 12.2 10.7793C9.46209 10.7793 7.19995 13.0339 7.19995 15.7744Z" fill="#4192EF" style="fill:#4192EF;fill:color(display-p3 0.2549 0.5725 0.9373);fill-opacity:1;"/>
    <path d="M12.6328 18.6945C12.3722 18.6945 12.1827 18.5016 12.1827 18.2444V17.0227H12.0981C10.8527 17.0227 10.0913 17.3814 9.55319 18.3832C9.42459 18.6268 9.25876 18.681 9.08279 18.681C8.84928 18.681 8.66992 18.4644 8.66992 18.0481C8.66992 15.5912 9.74947 14.0819 12.0981 14.0819H12.1827V12.8704C12.1827 12.6098 12.3722 12.4 12.6395 12.4C12.8189 12.4 12.9441 12.4744 13.1404 12.6538L15.8206 15.1547C15.9526 15.2799 16 15.4186 16 15.5472C16 15.6691 15.9526 15.8146 15.8206 15.9398L13.1404 18.4576C12.961 18.62 12.8155 18.6945 12.6328 18.6945Z" fill="white" style="fill:white;fill-opacity:1;"/>
</svg>