<svg width="20" height="21" viewBox="0 0 20 21" fill="none" xmlns="http://www.w3.org/2000/svg">
<path d="M0.5 11.132C0.5 10.9211 0.587891 10.7365 0.746094 10.5431L8.94629 0.382972C9.5791 -0.399255 10.5723 0.110511 10.2119 1.06852L7.53125 8.27555H12.6289C13.0156 8.27555 13.2969 8.53922 13.2969 8.90836C13.2969 9.11051 13.2178 9.29508 13.0596 9.49723L12.6729 9.97184C9.57031 10.007 6.99512 12.5998 6.99512 15.7287C6.99512 16.1154 7.03906 16.4933 7.10938 16.8537L4.85059 19.6574C4.21777 20.4308 3.22461 19.9211 3.58496 18.9631L6.26562 11.7648H1.16797C0.78125 11.7648 0.5 11.4923 0.5 11.132Z" fill="white"/>
<path d="M7.69922 15.7744C7.69922 18.5247 9.96135 20.7793 12.6992 20.7793C15.408 20.7793 17.6992 18.5052 17.6992 15.7744C17.6992 13.0339 15.4371 10.7793 12.6992 10.7793C9.96135 10.7793 7.69922 13.0339 7.69922 15.7744Z" fill="white"/>
<path d="M13.1328 18.6946C12.8722 18.6946 12.6827 18.5017 12.6827 18.2445V17.0228H12.5981C11.3527 17.0228 10.5913 17.3815 10.0532 18.3832C9.92459 18.6269 9.75876 18.681 9.58279 18.681C9.34928 18.681 9.16992 18.4644 9.16992 18.0482C9.16992 15.5913 10.2495 14.0819 12.5981 14.0819H12.6827V12.8704C12.6827 12.6098 12.8722 12.4 13.1395 12.4C13.3189 12.4 13.4441 12.4745 13.6404 12.6538L16.3206 15.1547C16.4526 15.2799 16.5 15.4187 16.5 15.5473C16.5 15.6691 16.4526 15.8146 16.3206 15.9398L13.6404 18.4577C13.461 18.6201 13.3155 18.6946 13.1328 18.6946Z" fill="#4192EF"/>
</svg>
