<svg width="15" height="14" viewBox="0 0 15 14" fill="none" xmlns="http://www.w3.org/2000/svg">
<path d="M7.10156 12.8281C3.79102 12.8281 1.04883 10.0918 1.04883 6.77539C1.04883 3.46484 3.78516 0.722656 7.0957 0.722656C10.4121 0.722656 13.1543 3.46484 13.1543 6.77539C13.1543 10.0918 10.4121 12.8281 7.10156 12.8281ZM4.4707 7.18555C4.4707 7.34961 4.59961 7.4668 4.76953 7.4668H6.76758L5.70117 10.3145C5.54297 10.7246 5.98828 10.9531 6.25781 10.625L9.53906 6.54102C9.60938 6.46484 9.64453 6.37109 9.64453 6.28906C9.64453 6.125 9.51562 6.00195 9.3457 6.00195H7.34766L8.41406 3.1543C8.57227 2.75 8.12695 2.52148 7.85156 2.84961L4.57031 6.93359C4.50586 7.00977 4.4707 7.10352 4.4707 7.18555Z" fill="#121111"/>
</svg>
