<svg width="23" height="22" viewBox="0 0 23 22" fill="none" xmlns="http://www.w3.org/2000/svg">
<path d="M11.5 20.4443C6.41113 20.4443 2.21875 16.252 2.21875 11.1543C2.21875 6.06543 6.40234 1.87305 11.5 1.87305C16.5889 1.87305 20.7812 6.06543 20.7812 11.1543C20.7812 16.252 16.5977 20.4443 11.5 20.4443ZM11.5 18.1328C15.3672 18.1328 18.4697 15.0215 18.4697 11.1543C18.4697 7.2959 15.3584 4.18457 11.5 4.18457C7.63281 4.18457 4.53906 7.2959 4.53906 11.1543C4.53906 15.0215 7.6416 18.1328 11.5 18.1328ZM8.3623 12.1475C7.77344 12.1475 7.35156 11.752 7.35156 11.1719C7.35156 10.5918 7.76465 10.1963 8.3623 10.1963H14.6377C15.2354 10.1963 15.6484 10.5918 15.6484 11.1719C15.6484 11.752 15.2266 12.1475 14.6377 12.1475H8.3623Z" fill="black"/>
</svg>
