<svg width="16" height="17" viewBox="0 0 16 17" fill="none" xmlns="http://www.w3.org/2000/svg">
<path d="M2.60449 9.44531C1.83887 9.44531 1.22363 8.83008 1.22363 8.06445C1.22363 7.29883 1.83887 6.68359 2.60449 6.68359C3.37012 6.68359 3.98535 7.29883 3.98535 8.06445C3.98535 8.83008 3.37012 9.44531 2.60449 9.44531ZM7.71777 9.44531C6.95215 9.44531 6.33691 8.83008 6.33691 8.06445C6.33691 7.29883 6.95215 6.68359 7.71777 6.68359C8.47656 6.68359 9.09863 7.29883 9.09863 8.06445C9.09863 8.83008 8.47656 9.44531 7.71777 9.44531ZM12.8242 9.44531C12.0586 9.44531 11.4434 8.83008 11.4434 8.06445C11.4434 7.29883 12.0586 6.68359 12.8242 6.68359C13.5898 6.68359 14.2051 7.29883 14.2051 8.06445C14.2051 8.83008 13.5898 9.44531 12.8242 9.44531Z" fill="black" style="fill:black;fill:black;fill-opacity:1;"/>
</svg>
