<svg width="36" height="29" viewBox="0 0 36 29" fill="none" xmlns="http://www.w3.org/2000/svg">
<path d="M18 26.7148C17.3672 26.7148 16.8633 26.2578 16.7344 25.5781C15.5273 17.7734 14.5547 16.8477 6.99609 15.8047C6.31641 15.7109 5.82422 15.1953 5.82422 14.5391C5.82422 13.8828 6.32812 13.3438 7.00781 13.2617C14.5781 12.418 15.6562 11.3164 16.7344 3.5C16.8398 2.83203 17.3555 2.36328 18 2.36328C18.6328 2.36328 19.1484 2.83203 19.2539 3.5C20.4375 11.3164 21.457 12.3242 29.0039 13.2617C29.6719 13.3555 30.1758 13.8828 30.1758 14.5391C30.1758 15.1953 29.6719 15.7227 28.9922 15.8047C21.4219 16.6602 20.332 17.7617 19.2539 25.5781C19.1602 26.2461 18.6445 26.7148 18 26.7148Z" fill="white"/>
</svg>
