<svg width="9" height="22" viewBox="0 0 9 22" fill="none" xmlns="http://www.w3.org/2000/svg">
<path d="M4.00098 17.8882C3.85156 18.2534 3.52783 18.5024 3.1543 18.5024C2.54834 18.4941 2.1167 18.0542 2.1167 17.4897C2.1167 17.1909 2.28271 16.8091 2.40723 16.5269L4.64014 10.9902L2.40723 5.45361C2.28271 5.17139 2.1167 4.78125 2.1167 4.48242C2.1167 3.92627 2.54834 3.47803 3.1543 3.47803C3.52783 3.47803 3.85156 3.71875 4.00098 4.08398L6.28369 9.69531C6.46631 10.127 6.64062 10.5752 6.64062 10.9902C6.64062 11.4053 6.46631 11.8452 6.28369 12.2852L4.00098 17.8882Z" fill="white" style="fill:white;fill:white"/>
</svg>
