<svg width="22" height="31" viewBox="0 0 22 31" fill="none" xmlns="http://www.w3.org/2000/svg">
<path d="M4.79026 2.61753C4.88562 1.44948 5.61267 0.805865 6.86415 0.805865H14.9094C16.1609 0.805865 16.8879 1.44948 16.9833 2.61753H4.79026ZM2.78789 6.37198C2.94284 5.14434 3.6103 4.40537 5.04056 4.40537H16.7449C18.1632 4.40537 18.8307 5.14434 18.9856 6.37198H2.78789ZM4.30159 30.019C1.58409 30.019 0.0942272 28.5411 0.0942272 25.8355V12.391C0.0942272 9.68543 1.58409 8.20749 4.30159 8.20749H17.6984C20.4159 8.20749 21.9058 9.68543 21.9058 12.391V25.8355C21.9058 28.5292 20.4159 30.019 17.8891 30.019H4.30159ZM4.63532 26.944H17.5554C18.3182 26.944 18.8307 26.4672 18.8307 25.4541V12.7605C18.8307 11.7474 18.3182 11.2826 17.3647 11.2826H4.63532C3.68181 11.2826 3.1693 11.7474 3.1693 12.7605V25.4541C3.1693 26.4672 3.68181 26.944 4.63532 26.944Z" fill="white"/>
</svg>
