<svg width="22" height="26" viewBox="0 0 22 26" fill="none" xmlns="http://www.w3.org/2000/svg">
<path d="M16.0381 15.3281L8.28223 7.58301L13.2773 1.38477C14.0615 0.428711 15.2432 1.04102 14.8242 2.22266L11.7627 10.9346L17.7783 11.0312C18.2617 11.0312 18.6055 11.3535 18.6055 11.8047C18.6055 12.0518 18.498 12.2773 18.3047 12.5244L16.0381 15.3281ZM18.4443 22.042L1.87988 5.48828C1.55762 5.16602 1.55762 4.59668 1.87988 4.27441C2.20215 3.94141 2.77148 3.95215 3.09375 4.27441L19.6475 20.8281C19.9912 21.1611 19.9805 21.7197 19.6475 22.042C19.3252 22.375 18.7773 22.375 18.4443 22.042ZM8.27148 24.9424C7.49805 25.8877 6.32715 25.2754 6.73535 24.0938L9.78613 15.3818L3.78125 15.2959C3.29785 15.2959 2.9541 14.9629 2.9541 14.5225C2.9541 14.2646 3.06152 14.0391 3.25488 13.8027L5.51074 10.999L13.2666 18.7549L8.27148 24.9424Z" fill="white"/>
</svg>
