<svg width="29" height="29" viewBox="0 0 29 29" fill="none" xmlns="http://www.w3.org/2000/svg">
    <path d="M23.4766 25.6016L1.64453 3.80469C1.26953 3.42969 1.26953 2.78516 1.64453 2.41016C2.03125 2.02344 2.66406 2.02344 3.05078 2.41016L24.8711 24.2188C25.2578 24.5938 25.2461 25.2148 24.8711 25.6016C24.4961 25.9883 23.8633 25.9883 23.4766 25.6016ZM22.7617 19.918L6.88281 4.03906C7.65625 3.73438 8.47656 3.58203 9.34375 3.58203C11.7344 3.58203 13.4688 4.90625 14.4883 6.81641C15.5195 4.89453 17.2539 3.58203 19.6445 3.58203C23.4883 3.58203 26.6875 6.67578 26.6875 11.2812C26.6875 14.2227 25.2461 17.1406 22.7617 19.918ZM19.0117 23.3867C18.0742 24.125 17.0664 24.8398 16.0117 25.5312C15.4727 25.8828 14.8867 26.2227 14.4883 26.2227C14.1016 26.2227 13.5156 25.8828 12.9766 25.5312C6.53125 21.3242 2.30078 16.3086 2.30078 11.2812C2.30078 9.86328 2.60547 8.59766 3.14453 7.51953L19.0117 23.3867Z" fill="white"/>
</svg>