<svg width="19" height="15" viewBox="0 0 19 15" fill="none" xmlns="http://www.w3.org/2000/svg">
<path d="M15.8174 12.3965L5.63867 2.21777C6.08984 2.10156 6.56836 2.08789 7.0332 2.19727C7.95605 0.891602 9.38477 0.0302734 11.1553 0.0302734C14.1289 0.0302734 16.4121 2.30664 16.4189 5.46484C17.8066 6.03906 18.6338 7.39941 18.6338 8.88281C18.6338 10.5576 17.4648 11.9521 15.8174 12.3965ZM14.6074 14.126L2.91797 2.4502C2.70605 2.23828 2.69922 1.84863 2.91797 1.63672C3.13672 1.41797 3.50586 1.4043 3.73828 1.63672L15.4209 13.3125C15.6465 13.5381 15.6465 13.9072 15.4209 14.126C15.209 14.3516 14.833 14.3516 14.6074 14.126ZM5.11914 12.6016C2.64453 12.6016 0.723633 10.7832 0.723633 8.58887C0.723633 6.81836 1.70117 5.36914 3.29395 5.04102C3.30762 4.76758 3.3623 4.51465 3.44434 4.27539L11.7842 12.6016H5.11914Z" fill="#FF6666"/>
</svg>
