<svg width="37" height="26" viewBox="0 0 37 26" fill="none" xmlns="http://www.w3.org/2000/svg">
<path d="M6.75 21.2344C5.53646 21.2344 4.48698 20.9766 3.60156 20.4609C2.72135 19.9401 2.04167 19.2161 1.5625 18.2891C1.08333 17.3568 0.84375 16.276 0.84375 15.0469C0.84375 13.8073 1.08333 12.724 1.5625 11.7969C2.04167 10.8646 2.72135 10.1406 3.60156 9.625C4.48698 9.10417 5.53646 8.84375 6.75 8.84375C7.96354 8.84375 9.01042 9.10417 9.89063 9.625C10.776 10.1406 11.4583 10.8646 11.9375 11.7969C12.4167 12.724 12.6563 13.8073 12.6563 15.0469C12.6563 16.276 12.4167 17.3568 11.9375 18.2891C11.4583 19.2161 10.776 19.9401 9.89063 20.4609C9.01042 20.9766 7.96354 21.2344 6.75 21.2344ZM6.76562 18.6562C7.31771 18.6562 7.77865 18.5 8.14844 18.1875C8.51823 17.8698 8.79688 17.4375 8.98438 16.8906C9.17708 16.3437 9.27344 15.7214 9.27344 15.0234C9.27344 14.3255 9.17708 13.7031 8.98438 13.1562C8.79688 12.6094 8.51823 12.1771 8.14844 11.8594C7.77865 11.5417 7.31771 11.3828 6.76562 11.3828C6.20833 11.3828 5.73958 11.5417 5.35938 11.8594C4.98438 12.1771 4.70052 12.6094 4.50781 13.1562C4.32031 13.7031 4.22656 14.3255 4.22656 15.0234C4.22656 15.7214 4.32031 16.3437 4.50781 16.8906C4.70052 17.4375 4.98438 17.8698 5.35938 18.1875C5.73958 18.5 6.20833 18.6562 6.76562 18.6562ZM14.8203 21V9H18.0469V11.0937H18.1719C18.3906 10.349 18.7578 9.78646 19.2734 9.40625C19.7891 9.02083 20.3828 8.82812 21.0547 8.82812C21.2214 8.82812 21.401 8.83854 21.5938 8.85937C21.7865 8.88021 21.9557 8.90885 22.1016 8.94531V11.8984C21.9453 11.8516 21.7292 11.8099 21.4531 11.7734C21.1771 11.737 20.9245 11.7188 20.6953 11.7188C20.2057 11.7188 19.7682 11.8255 19.3828 12.0391C19.0026 12.2474 18.7005 12.5391 18.4766 12.9141C18.2578 13.2891 18.1484 13.7214 18.1484 14.2109V21H14.8203ZM23.8848 21V5H27.2129V11.0156H27.3145C27.4603 10.6927 27.6712 10.3646 27.9473 10.0312C28.2285 9.69271 28.5931 9.41146 29.041 9.1875C29.4941 8.95833 30.0566 8.84375 30.7285 8.84375C31.6035 8.84375 32.4108 9.07292 33.1504 9.53125C33.89 9.98437 34.4811 10.6693 34.9238 11.5859C35.3665 12.4974 35.5879 13.6406 35.5879 15.0156C35.5879 16.3542 35.3717 17.4844 34.9395 18.4062C34.5124 19.3229 33.929 20.0182 33.1895 20.4922C32.4551 20.9609 31.6322 21.1953 30.7207 21.1953C30.0749 21.1953 29.5254 21.0885 29.0723 20.875C28.6243 20.6615 28.2572 20.3932 27.9707 20.0703C27.6842 19.7422 27.4655 19.4115 27.3145 19.0781H27.166V21H23.8848ZM27.1426 15C27.1426 15.7135 27.2415 16.3359 27.4395 16.8672C27.6374 17.3984 27.9238 17.8125 28.2988 18.1094C28.6738 18.401 29.1296 18.5469 29.666 18.5469C30.2077 18.5469 30.666 18.3984 31.041 18.1016C31.416 17.7995 31.6999 17.3828 31.8926 16.8516C32.0905 16.3151 32.1895 15.6979 32.1895 15C32.1895 14.3073 32.0931 13.6979 31.9004 13.1719C31.7077 12.6458 31.4238 12.2344 31.0488 11.9375C30.6738 11.6406 30.2129 11.4922 29.666 11.4922C29.1243 11.4922 28.666 11.6354 28.291 11.9219C27.9212 12.2083 27.6374 12.6146 27.4395 13.1406C27.2415 13.6667 27.1426 14.2865 27.1426 15Z" fill="white"/>
</svg>
