<svg width="42" height="42" viewBox="0 0 42 42" fill="none" xmlns="http://www.w3.org/2000/svg">
<rect width="42" height="42" rx="21" fill="white" fill-opacity="0.12"/>
<path d="M16.6172 28.1372C15.7124 28.1372 15.2642 27.689 15.2808 26.8091V15.2129C15.2808 14.333 15.729 13.8765 16.6172 13.8765H18.6592C19.5391 13.9014 19.9873 14.333 19.9873 15.2129V26.8091C19.9873 27.689 19.5391 28.1372 18.6592 28.1372H16.6172ZM23.3325 28.1372C22.436 28.1372 22.0044 27.689 22.0044 26.8091V15.2129C22.0044 14.333 22.4526 13.8765 23.3325 13.8765H25.3828C26.2627 13.8765 26.7109 14.333 26.7109 15.2129V26.8091C26.7109 27.689 26.2627 28.1372 25.3828 28.1372H23.3325Z" fill="white"/>
</svg>
