<svg width="62" height="62" viewBox="0 0 62 62" fill="none" xmlns="http://www.w3.org/2000/svg">
    <rect width="62" height="62" rx="31" fill="white" fill-opacity="0.08" style="fill:white;fill-opacity:0.08;"/>
    <path d="M25.6719 40.1709C24.6514 40.1709 24.125 39.6445 24.1357 38.6348V23.8643C24.1357 22.8545 24.6621 22.3281 25.6719 22.3281H28.1855C29.2061 22.3389 29.7217 22.8223 29.7217 23.8643V38.6348C29.7217 39.6445 29.2061 40.1709 28.1855 40.1709H25.6719ZM33.8037 40.1709C32.7832 40.1709 32.2676 39.6445 32.2676 38.6348V23.8643C32.2676 22.8545 32.7832 22.3281 33.8037 22.3281H36.3174C37.3271 22.3281 37.8535 22.8223 37.8535 23.8643V38.6348C37.8535 39.6445 37.3271 40.1709 36.3174 40.1709H33.8037Z" fill="white" style="fill:white;fill-opacity:1;"/>
</svg>