<svg width="20" height="26" viewBox="0 0 20 26" fill="none" xmlns="http://www.w3.org/2000/svg">
<path d="M4.67188 22.1709C3.65137 22.1709 3.125 21.6445 3.13574 20.6348V5.86426C3.13574 4.85449 3.66211 4.32812 4.67188 4.32812H7.18555C8.20605 4.33887 8.72168 4.82227 8.72168 5.86426V20.6348C8.72168 21.6445 8.20605 22.1709 7.18555 22.1709H4.67188ZM12.8037 22.1709C11.7832 22.1709 11.2676 21.6445 11.2676 20.6348V5.86426C11.2676 4.85449 11.7832 4.32812 12.8037 4.32812H15.3174C16.3271 4.32812 16.8535 4.82227 16.8535 5.86426V20.6348C16.8535 21.6445 16.3271 22.1709 15.3174 22.1709H12.8037Z" fill="white"/>
</svg>
