<svg width="20" height="19" viewBox="0 0 20 19" fill="none" xmlns="http://www.w3.org/2000/svg">
<path d="M7.93066 7.79102C6.06299 7.79102 4.53564 6.15576 4.53564 4.07227C4.53564 2.04688 6.07129 0.428223 7.93066 0.428223C9.78174 0.428223 11.3257 2.06348 11.3257 4.08057C11.3257 6.15576 9.79834 7.79102 7.93066 7.79102ZM7.93066 9.24365C9.19238 9.24365 10.3213 9.50098 11.2676 9.92432C10.0972 10.9536 9.3418 12.4561 9.3418 14.1328C9.3418 14.6309 9.4082 15.1123 9.54102 15.5771H2.82568C1.35645 15.5771 0.866699 15.0957 0.866699 14.2739C0.866699 12.1489 3.63086 9.24365 7.93066 9.24365ZM14.9697 18.5073C12.5708 18.5073 10.5952 16.5317 10.5952 14.1328C10.5952 11.7422 12.5708 9.7666 14.9697 9.7666C17.3604 9.7666 19.3359 11.7422 19.3359 14.1328C19.3359 16.5151 17.3521 18.5073 14.9697 18.5073ZM12.9775 14.938H15.0278C15.418 14.938 15.7251 14.6392 15.7251 14.249V11.8335C15.7251 11.4434 15.418 11.1445 15.0278 11.1445C14.646 11.1445 14.3389 11.4434 14.3389 11.8335V13.5601H12.9775C12.5957 13.5601 12.2886 13.8672 12.2886 14.249C12.2886 14.6309 12.5874 14.938 12.9775 14.938Z" fill="white"/>
</svg>
