<svg width="18" height="18" viewBox="0 0 18 18" fill="none" xmlns="http://www.w3.org/2000/svg">
<path d="M16.4604 17.2661L0.763672 1.58594C0.506348 1.32031 0.506348 0.855469 0.763672 0.598145C1.0459 0.315918 1.49414 0.324219 1.76807 0.598145L17.4482 16.27C17.7222 16.5439 17.7139 16.9839 17.4482 17.2578C17.1826 17.5317 16.7344 17.5317 16.4604 17.2661ZM11.895 5.07227C11.895 6.21777 11.4385 7.22217 10.708 7.90283L5.76074 2.94727C6.375 2.03418 7.37939 1.42822 8.5 1.42822C10.3594 1.42822 11.895 3.04688 11.895 5.07227ZM1.43604 15.2739C1.43604 13.2651 3.90967 10.5508 7.81934 10.2686L14.1279 16.5688C14.0698 16.5771 14.0117 16.5771 13.9453 16.5771H3.05469C2.04199 16.5771 1.43604 16.0874 1.43604 15.2739Z" fill="white" />
</svg>
