<svg width="25" height="21" viewBox="0 0 25 21" fill="none" xmlns="http://www.w3.org/2000/svg">
    <path d="M17.1055 10.4258C15.1895 10.4258 13.5635 8.71191 13.5635 6.53223C13.5635 4.3877 15.1982 2.70898 17.1055 2.70898C19.0127 2.70898 20.6475 4.35254 20.6475 6.51465C20.6475 8.71191 19.0215 10.4258 17.1055 10.4258ZM6.94531 10.6191C5.27539 10.6191 3.86035 9.125 3.86035 7.23535C3.86035 5.36328 5.28418 3.9043 6.94531 3.9043C8.60645 3.9043 10.0303 5.33691 10.0303 7.21777C10.0303 9.125 8.61523 10.6191 6.94531 10.6191ZM2.10254 18.5996C0.916016 18.5996 0.476562 18.1074 0.476562 17.2373C0.476562 14.8555 3.0166 11.9551 6.94531 11.9551C8.52734 11.9551 9.79297 12.4209 10.7598 13.0449C8.78223 14.5918 7.75391 17.2549 8.68555 18.5996H2.10254ZM11.6211 18.5908C10.1797 18.5908 9.67871 18.1602 9.67871 17.3516C9.67871 15.0928 12.5439 11.9814 17.0967 11.9814C21.6582 11.9814 24.5234 15.0928 24.5234 17.3516C24.5234 18.1602 24.0225 18.5908 22.5811 18.5908H11.6211Z" fill="black" fill-opacity="0.38" style="fill:black;fill:black;fill-opacity:1;"/>
</svg>