<svg width="20" height="20" viewBox="0 0 20 20" fill="none" xmlns="http://www.w3.org/2000/svg">
<path d="M9.24463 19.0796C8.63867 19.0796 8.18213 18.7144 8.05762 18.1333L7.65918 16.4731C7.43506 16.3984 7.22754 16.3154 7.03662 16.2241L5.59229 17.1206C5.10254 17.4277 4.50488 17.3696 4.08984 16.9629L3.03564 15.9004C2.62061 15.4854 2.5625 14.8711 2.88623 14.3813L3.76611 12.9453C3.6748 12.7544 3.5918 12.5552 3.52539 12.356L1.85693 11.9575C1.28418 11.833 0.918945 11.3682 0.918945 10.7705V9.29297C0.918945 8.70361 1.28418 8.23877 1.85693 8.10596L3.50879 7.71582C3.5835 7.4917 3.6665 7.28418 3.74951 7.10986L2.86963 5.64893C2.5459 5.14258 2.5957 4.54492 3.01904 4.13818L4.09814 3.07568C4.52148 2.68555 5.04443 2.62744 5.55078 2.90137L7.02832 3.80615C7.21924 3.70654 7.43506 3.62354 7.65918 3.54883L8.05762 1.88867C8.18213 1.29932 8.63867 0.934082 9.24463 0.934082H10.7471C11.3447 0.934082 11.8096 1.29932 11.9341 1.88037L12.3325 3.55713C12.5566 3.64014 12.7642 3.72314 12.9468 3.81445L14.4326 2.90137C14.939 2.62744 15.4702 2.70215 15.8853 3.07568L16.9644 4.13818C17.396 4.54492 17.4375 5.14258 17.1221 5.64893L16.2339 7.10986C16.3169 7.28418 16.3999 7.4917 16.4746 7.71582L18.1265 8.10596C18.7075 8.23877 19.0728 8.70361 19.0728 9.29297V10.7705C19.0728 11.3682 18.7075 11.833 18.1265 11.9575L16.458 12.356C16.3916 12.5552 16.3086 12.7544 16.2256 12.9453L17.0972 14.3813C17.4292 14.8711 17.3711 15.4854 16.9561 15.9004L15.8936 16.9629C15.4868 17.3696 14.8892 17.4277 14.3911 17.1206L12.9468 16.2241C12.7559 16.3154 12.5483 16.3984 12.3325 16.4731L11.9341 18.1333C11.8096 18.7144 11.3447 19.0796 10.7471 19.0796H9.24463ZM9.9917 12.8706C11.5688 12.8706 12.8555 11.5757 12.8555 9.99854C12.8555 8.43799 11.5688 7.15137 9.9917 7.15137C8.42285 7.15137 7.13623 8.43799 7.13623 9.99854C7.13623 11.5757 8.42285 12.8706 9.9917 12.8706Z" fill="black"/>
</svg>
