<svg width="17" height="17" viewBox="0 0 17 17" fill="none" xmlns="http://www.w3.org/2000/svg">
<path d="M3.47168 10.1699C3.47168 8.7002 4.64062 7.18945 6.5752 6.47852L6.79395 3.2998C5.77539 2.71875 4.96875 2.08301 4.61328 1.63184C4.42871 1.38574 4.33301 1.13965 4.33301 0.920898C4.33301 0.469727 4.68164 0.134766 5.19434 0.134766H12.543C13.0557 0.134766 13.4043 0.469727 13.4043 0.920898C13.4043 1.13965 13.3086 1.38574 13.124 1.63184C12.7686 2.08301 11.9619 2.71875 10.9434 3.2998L11.1689 6.47852C13.0967 7.18945 14.2656 8.7002 14.2656 10.1699C14.2656 10.7852 13.8486 11.1953 13.1992 11.1953H9.54199V14.4287C9.54199 15.3926 9.05664 16.3633 8.87207 16.3633C8.68066 16.3633 8.19531 15.3926 8.19531 14.4287V11.1953H4.53809C3.88867 11.1953 3.47168 10.7852 3.47168 10.1699Z" fill="black" fill-opacity="1"/>
</svg>
