<svg width="22" height="22" viewBox="0 0 22 22" fill="none" xmlns="http://www.w3.org/2000/svg">
<path d="M11 20.4443C5.91113 20.4443 1.71875 16.252 1.71875 11.1543C1.71875 6.06543 5.90234 1.87305 11 1.87305C16.0889 1.87305 20.2812 6.06543 20.2812 11.1543C20.2812 16.252 16.0977 20.4443 11 20.4443ZM6.69336 11.1543C6.69336 11.752 7.12402 12.1914 7.71289 12.1914H9.96289V14.4414C9.96289 15.0303 10.4023 15.4609 11 15.4609C11.5977 15.4609 12.0371 15.0303 12.0371 14.4414V12.1914H14.2959C14.876 12.1914 15.3154 11.752 15.3154 11.1543C15.3154 10.5566 14.876 10.1172 14.2959 10.1172H12.0371V7.86719C12.0371 7.27832 11.5977 6.83887 11 6.83887C10.4023 6.83887 9.96289 7.27832 9.96289 7.86719V10.1172H7.71289C7.12402 10.1172 6.69336 10.5566 6.69336 11.1543Z" fill="white" />
</svg>
