<svg width="25" height="21" viewBox="0 0 25 21" fill="none" xmlns="http://www.w3.org/2000/svg">
    <path d="M6.11719 9.45898C3.99902 9.45898 2.24121 7.70117 2.24121 5.5918C2.24121 3.46484 3.99023 1.70703 6.11719 1.70703C8.22656 1.70703 9.98438 3.46484 9.98438 5.5918C9.98438 7.70117 8.22656 9.45898 6.11719 9.45898ZM5.65137 7.66602C5.85352 7.66602 6.02051 7.56934 6.13477 7.40234L8.00684 4.49316C8.09473 4.36133 8.12109 4.24707 8.12109 4.12402C8.12109 3.87793 7.90137 3.67578 7.6377 3.67578C7.46191 3.67578 7.3125 3.76367 7.19824 3.93945L5.63379 6.45312L4.95703 5.60938C4.84277 5.45117 4.71973 5.38086 4.54395 5.38086C4.28027 5.38086 4.06934 5.5918 4.06934 5.86426C4.06934 6.01367 4.10449 6.11914 4.20117 6.2334L5.18555 7.41113C5.31738 7.56934 5.45801 7.66602 5.65137 7.66602ZM12.7705 6.36523C12.3398 6.36523 12.0059 6.02246 12.0059 5.5918C12.0059 5.16113 12.3398 4.81836 12.7705 4.81836H21.6123C22.043 4.81836 22.3945 5.16113 22.3945 5.5918C22.3945 6.02246 22.043 6.36523 21.6123 6.36523H12.7705ZM6.11719 19.6191C3.99902 19.6191 2.24121 17.8613 2.24121 15.7432C2.24121 13.625 3.99023 11.8672 6.11719 11.8672C8.22656 11.8672 9.98438 13.6162 9.98438 15.7432C9.98438 17.8613 8.22656 19.6191 6.11719 19.6191ZM6.11719 18.125C7.40039 18.125 8.49902 17.0352 8.49902 15.7432C8.49902 14.4512 7.40039 13.3525 6.11719 13.3525C4.8252 13.3525 3.73535 14.4512 3.73535 15.7432C3.73535 17.0352 4.81641 18.125 6.11719 18.125ZM12.7705 16.5342C12.3398 16.5342 12.0059 16.1914 12.0059 15.7607C12.0059 15.3301 12.3398 14.9873 12.7705 14.9873H21.6123C22.043 14.9873 22.3945 15.3301 22.3945 15.7607C22.3945 16.1914 22.043 16.5342 21.6123 16.5342H12.7705Z" fill="black" style="fill:black;fill:black;fill-opacity:1;"/>
</svg>