<svg width="14" height="14" viewBox="0 0 14 14" fill="none" xmlns="http://www.w3.org/2000/svg">
<path d="M10.2485 4.65308C10.0165 4.52051 9.71816 4.52051 9.45301 4.65308L7.59695 5.74683L6.33748 6.44286L4.51456 7.53661C4.28255 7.66918 3.98426 7.66918 3.71911 7.53661L2.29392 6.67486C2.06191 6.54229 1.89619 6.27714 1.89619 5.97884V4.32164C1.89619 4.05649 2.02876 3.79134 2.29392 3.62562L3.71911 2.79702C3.95111 2.66445 4.24941 2.66445 4.51456 2.79702L5.93975 3.65877C6.17176 3.79134 6.33748 4.05649 6.33748 4.35479V5.44854L7.59695 4.71937V3.59248C7.59695 3.32733 7.46437 3.06217 7.19922 2.89645L4.5477 1.33869C4.3157 1.20611 4.0174 1.20611 3.75225 1.33869L1.03445 2.9296C0.769295 3.06217 0.636719 3.32733 0.636719 3.59248V6.70801C0.636719 6.97316 0.769295 7.23831 1.03445 7.40403L3.71911 8.9618C3.95111 9.09437 4.24941 9.09437 4.51456 8.9618L6.33748 7.90119L7.59695 7.17202L9.41986 6.11142C9.65187 5.97884 9.95016 5.97884 10.2153 6.11142L11.6405 6.94002C11.8725 7.07259 12.0382 7.33774 12.0382 7.63604V9.29323C12.0382 9.55839 11.9057 9.82354 11.6405 9.98926L10.2485 10.8179C10.0165 10.9504 9.71816 10.9504 9.45301 10.8179L8.02782 9.98926C7.79581 9.85668 7.63009 9.59153 7.63009 9.29323V8.23263L6.37062 8.9618V10.0555C6.37062 10.3207 6.5032 10.5858 6.76835 10.7516L9.45301 12.3093C9.68501 12.4419 9.98331 12.4419 10.2485 12.3093L12.9331 10.7516C13.1651 10.619 13.3308 10.3538 13.3308 10.0555V6.90687C13.3308 6.64172 13.1983 6.37657 12.9331 6.21085L10.2485 4.65308Z" fill="white" fill-opacity="0.38"/>
</svg>
