<svg width="25" height="21" viewBox="0 0 25 21" fill="none" xmlns="http://www.w3.org/2000/svg">
    <path d="M9.66797 10.4258C7.75195 10.4258 6.12598 8.71191 6.12598 6.53223C6.12598 4.3877 7.76074 2.70898 9.66797 2.70898C11.5752 2.70898 13.21 4.35254 13.21 6.51465C13.21 8.71191 11.5928 10.4258 9.66797 10.4258ZM18.8438 10.9795C18.5186 10.9795 18.2637 10.8389 18.0264 10.54L15.9521 8.00879C15.8027 7.82422 15.7236 7.63086 15.7236 7.41992C15.7236 6.98047 16.0664 6.6377 16.4971 6.6377C16.752 6.6377 16.9629 6.73438 17.1738 7.00684L18.8086 9.08984L22.2803 3.51758C22.4648 3.21875 22.7021 3.07812 22.9658 3.07812C23.3789 3.07812 23.7656 3.36816 23.7656 3.79883C23.7656 4.00098 23.6602 4.21191 23.5459 4.39648L19.6172 10.54C19.4326 10.8213 19.1602 10.9795 18.8438 10.9795ZM3.81445 18.5908C2.83008 18.5908 2.24121 18.125 2.24121 17.3516C2.24121 15.0928 5.10645 11.9814 9.66797 11.9814C14.2207 11.9814 17.0947 15.0928 17.0947 17.3516C17.0947 18.125 16.4971 18.5908 15.5127 18.5908H3.81445Z" fill="black" fill-opacity="0.38" style="fill:black;fill:black;fill-opacity:1;"/>
</svg>