<svg width="202" height="17" viewBox="0 0 202 17" fill="none" xmlns="http://www.w3.org/2000/svg">
<path d="M8.28516 15.126C4.42285 15.126 1.22363 11.9336 1.22363 8.06445C1.22363 4.20215 4.41602 1.00293 8.27832 1.00293C12.1475 1.00293 15.3467 4.20215 15.3467 8.06445C15.3467 11.9336 12.1475 15.126 8.28516 15.126ZM7.52637 11.4414C7.7793 11.4414 7.99805 11.3115 8.15527 11.0791L11.3545 6.08887C11.4502 5.93848 11.5322 5.76758 11.5322 5.61035C11.5322 5.25488 11.2246 5.01562 10.8828 5.01562C10.6641 5.01562 10.4727 5.13184 10.3291 5.37109L7.49902 9.89648L6.17969 8.22168C6.00879 8.00293 5.84473 7.9209 5.63281 7.9209C5.27734 7.9209 5.00391 8.20801 5.00391 8.55664C5.00391 8.72754 5.06543 8.8916 5.18848 9.04199L6.86328 11.0791C7.05469 11.3252 7.2666 11.4414 7.52637 11.4414Z" fill="#75FA37"/>
<path d="M193.5 15.126C189.638 15.126 186.438 11.9336 186.438 8.06445C186.438 4.20215 189.631 1.00293 193.493 1.00293C197.362 1.00293 200.562 4.20215 200.562 8.06445C200.562 11.9336 197.362 15.126 193.5 15.126ZM191.894 11.2568H195.503C195.845 11.2568 196.084 11.0449 196.084 10.7031C196.084 10.3613 195.852 10.1562 195.503 10.1562H193.186V10.1084L194.683 8.53613C195.353 7.85938 195.783 7.29199 195.783 6.5332C195.783 5.43945 194.881 4.70801 193.527 4.70801C192.475 4.70801 191.565 5.30273 191.326 6.10254C191.285 6.21875 191.271 6.31445 191.271 6.42383C191.271 6.74512 191.497 6.9502 191.839 6.9502C192.133 6.9502 192.276 6.7793 192.413 6.57422C192.598 6.19141 192.926 5.78125 193.541 5.78125C194.136 5.78125 194.525 6.12305 194.525 6.64258C194.525 7.10742 194.143 7.51074 193.705 7.94824L191.545 10.1836C191.367 10.3613 191.306 10.5322 191.306 10.7168C191.306 11.0449 191.531 11.2568 191.894 11.2568Z" fill="white"/>
<line x1="21.5" y1="8.5" x2="180.5" y2="8.5" stroke="white" stroke-opacity="0.38" stroke-linecap="round" stroke-dasharray="1 4"/>
</svg>
