<svg width="202" height="17" viewBox="0 0 202 17" fill="none" xmlns="http://www.w3.org/2000/svg">
<path d="M8.28516 15.126C4.42285 15.126 1.22363 11.9336 1.22363 8.06445C1.22363 4.20215 4.41602 1.00293 8.27832 1.00293C12.1475 1.00293 15.3467 4.20215 15.3467 8.06445C15.3467 11.9336 12.1475 15.126 8.28516 15.126ZM8.70215 11.4209C9.13281 11.4209 9.39258 11.1611 9.39258 10.6758V5.45312C9.39258 4.98828 9.10547 4.70801 8.64062 4.70801C8.33301 4.70801 8.10742 4.7832 7.76562 5.01562L6.53516 5.84961C6.34375 5.97949 6.26172 6.10938 6.26172 6.32812C6.26172 6.59473 6.45996 6.82031 6.72656 6.82031C6.85645 6.82031 6.93848 6.80664 7.12305 6.68359L7.9707 6.12305H8.01855V10.6758C8.01855 11.1611 8.27832 11.4209 8.70215 11.4209Z" fill="white"/>
<path d="M193.5 15.126C189.638 15.126 186.438 11.9336 186.438 8.06445C186.438 4.20215 189.631 1.00293 193.493 1.00293C197.362 1.00293 200.562 4.20215 200.562 8.06445C200.562 11.9336 197.362 15.126 193.5 15.126ZM193.5 13.7383C196.645 13.7383 199.174 11.209 199.174 8.06445C199.174 4.91992 196.638 2.39746 193.493 2.39746C190.349 2.39746 187.833 4.91992 187.833 8.06445C187.833 11.209 190.355 13.7383 193.5 13.7383ZM191.948 11.1338C191.606 11.1338 191.388 10.9287 191.388 10.6143C191.388 10.4434 191.449 10.2793 191.62 10.1152L193.698 7.94824C194.115 7.53125 194.491 7.1416 194.491 6.69043C194.491 6.18457 194.108 5.85645 193.534 5.85645C192.939 5.85645 192.618 6.25293 192.44 6.62891C192.317 6.82715 192.174 6.98438 191.894 6.98438C191.572 6.98438 191.36 6.79297 191.36 6.47852C191.36 6.38281 191.367 6.28711 191.401 6.17773C191.634 5.40527 192.509 4.83105 193.521 4.83105C194.819 4.83105 195.688 5.53516 195.688 6.58789C195.688 7.31934 195.277 7.85938 194.628 8.51562L193.172 10.0332V10.0879H195.421C195.749 10.0879 195.975 10.2793 195.975 10.6074C195.975 10.9287 195.749 11.1338 195.421 11.1338H191.948Z" fill="white" fill-opacity="0.12"/>
<line x1="21.5" y1="8.5" x2="180.5" y2="8.5" stroke="white" stroke-opacity="0.12" stroke-linecap="round" stroke-dasharray="1 4"/>
</svg>
