<svg width="32" height="29" viewBox="0 0 32 29" fill="none" xmlns="http://www.w3.org/2000/svg">
    <path d="M22.5554 8.44705L19.8975 5.78914L21.3397 4.37079C22.031 3.6795 22.8534 3.61991 23.5089 4.27544L24.081 4.84755C24.7365 5.51501 24.7008 6.31357 23.9976 7.01679L22.5554 8.44705ZM7.16811 23.8224L4.05728 25.0024C3.61629 25.1692 3.12761 24.7044 3.3064 24.2276L4.52212 21.1764L18.5983 7.07638L21.2443 9.73429L7.16811 23.8224ZM8.75332 24.9547L11.8403 21.8796H27.1799C28.0261 21.8796 28.7174 22.5709 28.7174 23.4172C28.7174 24.2634 28.0261 24.9547 27.1799 24.9547H8.75332Z" fill="white"/>
</svg>