<svg width="27" height="29" viewBox="0 0 27 29" fill="none" xmlns="http://www.w3.org/2000/svg">
    <path d="M3.44531 14.5391C3.44531 13.5664 4.24219 12.7695 5.22656 12.7695H11.7305V6.26562C11.7305 5.29297 12.5156 4.48438 13.5 4.48438C14.4844 4.48438 15.2812 5.29297 15.2812 6.26562V12.7695H21.7852C22.7578 12.7695 23.5547 13.5664 23.5547 14.5391C23.5547 15.5234 22.7578 16.3203 21.7852 16.3203H15.2812V22.8242C15.2812 23.7969 14.4844 24.6055 13.5 24.6055C12.5156 24.6055 11.7305 23.7969 11.7305 22.8242V16.3203H5.22656C4.24219 16.3203 3.44531 15.5234 3.44531 14.5391Z" fill="white"/>
</svg>