<svg width="18" height="18" viewBox="0 0 18 18" fill="none" xmlns="http://www.w3.org/2000/svg">
    <path d="M9.63184 3.07812C9.10547 3.07812 8.72266 3.46777 8.72266 3.9873V6.45508H8.55176C6.03613 6.45508 4.49805 5.73047 3.41113 3.70703C3.15137 3.21484 2.81641 3.10547 2.46094 3.10547C1.98926 3.10547 1.62695 3.54297 1.62695 4.38379C1.62695 9.34668 3.80762 12.3955 8.55176 12.3955H8.72266V14.8428C8.72266 15.3691 9.10547 15.793 9.64551 15.793C10.0078 15.793 10.2607 15.6426 10.6572 15.2803L16.0713 10.2285C16.3379 9.97559 16.4336 9.69531 16.4336 9.43555C16.4336 9.18945 16.3379 8.89551 16.0713 8.64258L10.6572 3.55664C10.2949 3.22852 10.001 3.07812 9.63184 3.07812Z" fill="black"/>
</svg>