<svg width="13" height="14" viewBox="0 0 13 14" fill="none" xmlns="http://www.w3.org/2000/svg">
    <path d="M1 7.42133C1 7.28071 1.05859 7.15766 1.16406 7.02875L6.63086 0.255315C7.05273 -0.26617 7.71484 0.073674 7.47461 0.712346L5.6875 5.51703H9.08594C9.34375 5.51703 9.53125 5.69281 9.53125 5.93891C9.53125 6.07367 9.47852 6.19672 9.37305 6.33149L9.11523 6.64789C7.04688 6.67133 5.33008 8.39985 5.33008 10.4858C5.33008 10.7436 5.35938 10.9956 5.40625 11.2358L3.90039 13.1049C3.47852 13.6206 2.81641 13.2807 3.05664 12.642L4.84375 7.84321H1.44531C1.1875 7.84321 1 7.66156 1 7.42133Z" fill="white"/>
    <path fill-rule="evenodd" clip-rule="evenodd" d="M9.13411 13.8542C7.30887 13.8542 5.80078 12.3511 5.80078 10.5176C5.80078 8.69058 7.30887 7.1875 9.13411 7.1875C10.9594 7.1875 12.4674 8.69058 12.4674 10.5176C12.4674 12.3381 10.9399 13.8542 9.13411 13.8542ZM9.12308 12.1658C9.12308 12.3373 9.24943 12.4659 9.42315 12.4659C9.54498 12.4659 9.64199 12.4162 9.76156 12.308L11.5484 10.6294C11.6364 10.5459 11.668 10.4489 11.668 10.3677C11.668 10.282 11.6364 10.1895 11.5484 10.106L9.76156 8.43874C9.63071 8.31917 9.54723 8.26953 9.42766 8.26953C9.24943 8.26953 9.12308 8.40941 9.12308 8.58313V9.39081H9.06668C7.50095 9.39081 6.78125 10.397 6.78125 12.035C6.78125 12.3125 6.90082 12.4569 7.05649 12.4569C7.17381 12.4569 7.28436 12.4208 7.37009 12.2583C7.72881 11.5905 8.23644 11.3514 9.06668 11.3514H9.12308V12.1658Z" fill="white"/>
</svg>