<svg width="15" height="14" viewBox="0 0 15 14" fill="none" xmlns="http://www.w3.org/2000/svg">
<path d="M1.04883 6.76953C1.04883 4.87109 1.99219 3.07812 3.42188 2.01172C3.73242 1.75391 4.11328 1.80664 4.30078 2.07617C4.50586 2.36328 4.41797 2.70312 4.14258 2.9375C2.98828 3.82227 2.24414 5.19922 2.23828 6.76953C2.23828 9.46484 4.40625 11.6328 7.10156 11.6328C9.79688 11.6328 11.959 9.46484 11.959 6.76953C11.959 4.49023 10.4121 2.5918 8.30273 2.07031V2.86133C8.30273 3.3125 7.97461 3.42969 7.61133 3.17188L5.64844 1.8125C5.34375 1.60156 5.34961 1.27344 5.64844 1.06836L7.61719 -0.291016C7.98047 -0.542969 8.30273 -0.425781 8.30273 0.0195312V0.845703C11.0566 1.4082 13.1543 3.86914 13.1543 6.76953C13.1543 10.0859 10.4121 12.8223 7.10156 12.8223C3.79102 12.8223 1.04883 10.0859 1.04883 6.76953Z" fill="white"/>
</svg>
