<svg width="28" height="26" viewBox="0 0 28 26" fill="none" xmlns="http://www.w3.org/2000/svg">
    <path d="M13.5195 24.3408C7.4502 24.3408 2.42285 19.3242 2.42285 13.2441C2.42285 7.1748 7.43945 2.14746 13.5088 2.14746C19.5889 2.14746 24.6162 7.1748 24.6162 13.2441C24.6162 19.3242 19.5889 24.3408 13.5195 24.3408ZM13.5195 22.1602C18.4609 22.1602 22.4355 18.1855 22.4355 13.2441C22.4355 8.30273 18.4502 4.33887 13.5088 4.33887C8.56738 4.33887 4.61426 8.30273 4.61426 13.2441C4.61426 18.1855 8.57812 22.1602 13.5195 22.1602ZM9.4375 14.2646C8.79297 14.2646 8.33105 13.8887 8.33105 13.2656C8.33105 12.6426 8.77148 12.2559 9.4375 12.2559H17.5908C18.2568 12.2559 18.6865 12.6426 18.6865 13.2656C18.6865 13.8887 18.2354 14.2646 17.5908 14.2646H9.4375Z" fill="white" style="fill:white;fill:white;fill-opacity:1;"/>
</svg>