<svg width="15" height="14" viewBox="0 0 15 14" fill="none" xmlns="http://www.w3.org/2000/svg">
<path d="M4.48438 12.8398C3.57617 12.8398 3.00195 12.3008 2.96094 11.3984L2.5625 2.94922H1.91211C1.63086 2.94922 1.39648 2.72656 1.39648 2.43359C1.39648 2.14648 1.63086 1.92383 1.91211 1.92383H4.51367V1.04492C4.51367 0.148438 5.08789 -0.384766 6.05469 -0.384766H8.28125C9.25391 -0.384766 9.82227 0.148438 9.82227 1.04492V1.92383H12.4297C12.7227 1.92383 12.9512 2.14648 12.9512 2.43359C12.9512 2.72656 12.7227 2.94922 12.4297 2.94922H11.7852L11.3867 11.3926C11.3457 12.2949 10.7656 12.8398 9.86914 12.8398H4.48438ZM5.5918 1.09766V1.92383H8.74414V1.09766C8.74414 0.792969 8.5332 0.599609 8.20508 0.599609H6.13086C5.80273 0.599609 5.5918 0.792969 5.5918 1.09766ZM5.375 11.0234C5.63281 11.0234 5.80273 10.8594 5.79102 10.6191L5.60938 4.25C5.60352 3.99805 5.42773 3.8457 5.1875 3.8457C4.92969 3.8457 4.76562 4.00391 4.77148 4.25L4.94727 10.625C4.95898 10.8711 5.12305 11.0234 5.375 11.0234ZM7.17383 11.0234C7.42578 11.0234 7.60156 10.8652 7.60156 10.625V4.25C7.60156 4.00391 7.42578 3.8457 7.17383 3.8457C6.92188 3.8457 6.74609 4.00391 6.74609 4.25V10.625C6.74609 10.8652 6.92188 11.0234 7.17383 11.0234ZM8.97266 11.0234C9.21875 11.0234 9.38281 10.8711 9.39453 10.625L9.57617 4.25C9.58203 4.00391 9.41797 3.8457 9.16016 3.8457C8.91406 3.8457 8.74414 4.00391 8.73828 4.25L8.55078 10.6191C8.54492 10.8652 8.71484 11.0234 8.97266 11.0234Z" fill="white"/>
</svg>
