<svg width="18" height="17" viewBox="0 0 18 17" fill="none" xmlns="http://www.w3.org/2000/svg">
    <path d="M9.63184 14.4219C9.10547 14.4219 8.72266 14.0322 8.72266 13.5127V11.0449H8.55176C6.03613 11.0449 4.49805 11.7695 3.41113 13.793C3.15137 14.2852 2.81641 14.3945 2.46094 14.3945C1.98926 14.3945 1.62695 13.957 1.62695 13.1162C1.62695 8.15332 3.80762 5.10449 8.55176 5.10449H8.72266V2.65723C8.72266 2.13086 9.10547 1.70703 9.64551 1.70703C10.0078 1.70703 10.2607 1.85742 10.6572 2.21973L16.0713 7.27148C16.3379 7.52441 16.4336 7.80469 16.4336 8.06445C16.4336 8.31055 16.3379 8.60449 16.0713 8.85742L10.6572 13.9434C10.2949 14.2715 10.001 14.4219 9.63184 14.4219Z" fill="white" fill-opacity="0.6"/>
</svg>