<svg width="32" height="29" viewBox="0 0 32 29" fill="none" xmlns="http://www.w3.org/2000/svg">
    <path d="M17.3588 25.7652C16.2503 25.7652 15.416 24.9189 15.416 23.8105V19.9726H15.2014C11.2444 19.9726 8.97978 21.4267 7.41841 24.2753C6.88206 25.3123 6.22652 25.6222 5.41604 25.6222C4.27182 25.6222 3.55669 24.5018 3.55669 22.2849C3.55669 13.8821 7.478 8.88805 15.2014 8.88805H15.416V5.02633C15.416 3.91788 16.2503 3.03588 17.3707 3.03588C18.0977 3.03588 18.6222 3.32193 19.3969 4.03707L28.8962 12.8332C29.3849 13.2861 29.5994 13.8701 29.5994 14.3946C29.5994 14.9071 29.373 15.5149 28.8962 15.9679L19.3969 24.8117C18.6937 25.4672 18.1096 25.7652 17.3588 25.7652Z" fill="white"/>
</svg>