<svg width="22" height="21" viewBox="0 0 22 21" fill="none" xmlns="http://www.w3.org/2000/svg">
    <path d="M12.1777 18.8281C11.501 18.8281 11.0088 18.3271 11.0088 17.6592V14.4863H10.7891C7.55469 14.4863 5.57715 15.418 4.17969 18.0195C3.8457 18.6523 3.41504 18.793 2.95801 18.793C2.35156 18.793 1.88574 18.2305 1.88574 17.1494C1.88574 10.7686 4.68945 6.84863 10.7891 6.84863H11.0088V3.70215C11.0088 3.02539 11.501 2.48047 12.1953 2.48047C12.6611 2.48047 12.9863 2.67383 13.4961 3.13965L20.457 9.63477C20.7998 9.95996 20.9229 10.3203 20.9229 10.6543C20.9229 10.9707 20.7998 11.3486 20.457 11.6738L13.4961 18.2129C13.0303 18.6348 12.6523 18.8281 12.1777 18.8281Z" fill="white"/>
</svg>