<svg width="29" height="29" viewBox="0 0 29 29" fill="none" xmlns="http://www.w3.org/2000/svg">
    <path d="M5.72266 26.3633C4.94922 26.3633 4.30469 25.7188 4.30469 24.9336V5.52734C4.30469 4.46094 4.79688 3.85156 5.66406 3.45312C6.70703 2.97266 7.67969 2.72656 9.37891 2.72656C13.5156 2.72656 16.7266 4.88281 20.7344 4.88281C22.4102 4.88281 23.418 4.49609 24.2266 4.49609C25.2109 4.49609 25.8906 5.16406 25.8906 6.14844V17.4805C25.8906 18.5938 25.4453 19.3789 24.5547 19.8008C23.6289 20.2344 22.5742 20.5039 20.8164 20.5039C16.6797 20.5039 13.5977 18.3477 9.46094 18.3477C8.3125 18.3477 7.49219 18.6055 7.14062 18.7109V24.9336C7.14062 25.7305 6.49609 26.3633 5.72266 26.3633Z" fill="white"/>
</svg>