<svg width="22" height="22" viewBox="0 0 22 22" fill="none" xmlns="http://www.w3.org/2000/svg">
<path d="M2.41699 11.0068C2.41699 6.27539 6.26855 2.42383 11 2.42383C11.5562 2.42383 12.0127 2.88037 12.0127 3.43652C12.0127 3.99268 11.5562 4.44922 11 4.44922C7.38916 4.44922 4.44238 7.3877 4.44238 11.0068C4.44238 14.6177 7.38916 17.5645 11 17.5645C14.6191 17.5645 17.5576 14.6177 17.5576 11.0068C17.5576 7.79443 15.2168 5.10498 12.1538 4.54883C12.436 4.2666 12.6104 3.86816 12.6104 3.43652C12.6104 3.09619 12.5024 2.78906 12.3281 2.53174C16.437 3.1709 19.583 6.72363 19.583 11.0068C19.583 15.7383 15.7314 19.5898 11 19.5898C6.26855 19.5898 2.41699 15.7383 2.41699 11.0068ZM7.58838 11.5215C7.58838 11.4136 7.64648 11.3057 7.72119 11.1978L11.938 5.95166C12.2949 5.52002 12.8594 5.82715 12.6685 6.3501L11.2988 10.0024H13.8638C14.0796 10.0024 14.2539 10.1602 14.2539 10.376C14.2539 10.4839 14.1958 10.5918 14.1211 10.6997L9.9043 15.9458C9.54736 16.3774 8.98291 16.0786 9.17383 15.5474L10.5435 11.895H7.97852C7.7627 11.895 7.58838 11.7373 7.58838 11.5215Z" fill="white"/>
</svg>
