<svg width="29" height="29" viewBox="0 0 29 29" fill="none" xmlns="http://www.w3.org/2000/svg">
    <path d="M24.1211 4.92969C25.3516 6.13672 25.6445 7.76562 25.6445 10.1445V18.9336C25.6445 21.3008 25.3516 22.9297 24.1211 24.1484C22.9023 25.3672 21.25 25.6836 18.8945 25.6836H10.1055C7.75 25.6836 6.09766 25.3672 4.87891 24.1484C3.64844 22.9414 3.35547 21.3008 3.35547 18.9336V10.1328C3.35547 7.77734 3.66016 6.14844 4.87891 4.92969C6.09766 3.71094 7.75 3.39453 10.0938 3.39453H18.8945C21.25 3.39453 22.9023 3.71094 24.1211 4.92969ZM8.74609 14.5391C8.74609 15.3359 9.33203 15.9102 10.1172 15.9102H13.1172V18.9102C13.1172 19.6953 13.6914 20.2812 14.4883 20.2812C15.2852 20.2812 15.8711 19.6953 15.8711 18.9102V15.9102H18.8828C19.668 15.9102 20.2422 15.3359 20.2422 14.5391C20.2422 13.7305 19.668 13.1445 18.8828 13.1445H15.8711V10.1445C15.8711 9.35938 15.2852 8.78516 14.4883 8.78516C13.6914 8.78516 13.1172 9.35938 13.1172 10.1445V13.1445H10.1172C9.32031 13.1445 8.74609 13.7305 8.74609 14.5391Z" fill="white"/>
</svg>