<svg width="28" height="26" viewBox="0 0 28 26" fill="none" xmlns="http://www.w3.org/2000/svg">
<path d="M2.9707 11.2891C2.9707 6.46582 6.8916 2.54492 11.7148 2.54492C16.5381 2.54492 20.459 6.46582 20.459 11.2891C20.459 13.1689 19.8467 14.9092 18.8262 16.3164L23.7354 21.2363C24.0254 21.5371 24.1758 21.9346 24.1758 22.3643C24.1758 23.2559 23.5205 23.9434 22.6074 23.9434C22.1885 23.9434 21.7695 23.8037 21.4688 23.4922L16.5273 18.5508C15.1523 19.4854 13.5088 20.0332 11.7148 20.0332C6.8916 20.0332 2.9707 16.1123 2.9707 11.2891ZM5.24805 11.2891C5.24805 14.8555 8.1377 17.7559 11.7148 17.7559C15.2812 17.7559 18.1816 14.8555 18.1816 11.2891C18.1816 7.72266 15.2812 4.82227 11.7148 4.82227C8.1377 4.82227 5.24805 7.72266 5.24805 11.2891Z" fill="white" style="fill:white;fill:white;fill-opacity:1;"/>
</svg>
