<svg width="10" height="21" viewBox="0 0 10 21" fill="none" xmlns="http://www.w3.org/2000/svg">
    <path d="M5.03613 17.9404L2.62793 12.0078C2.43457 11.542 2.24121 11.0762 2.24121 10.6367C2.24121 10.1973 2.43457 9.72266 2.62793 9.26562L5.03613 3.32422C5.19434 2.9375 5.53711 2.68262 5.93262 2.68262C6.57422 2.68262 7.03125 3.15723 7.03125 3.74609C7.03125 4.0625 6.85547 4.47559 6.73242 4.77441L4.35938 10.6367L6.73242 16.499C6.85547 16.7979 7.03125 17.2021 7.03125 17.5186C7.03125 18.1162 6.57422 18.582 5.93262 18.5908C5.53711 18.5908 5.19434 18.3271 5.03613 17.9404Z" fill="white"/>
</svg>