<svg width="31" height="29" viewBox="0 0 31 29" fill="none" xmlns="http://www.w3.org/2000/svg">
<path d="M14.3047 27.5938C13.2148 27.5938 12.3477 26.9023 12.1016 25.8594L11.668 23.9961L11.4688 23.9258L9.83984 24.9336C8.92578 25.4961 7.82422 25.3438 7.0625 24.5703L5.41016 22.9297C4.63672 22.1328 4.49609 21.043 5.07031 20.1523L6.07812 18.5352L6.00781 18.3477L4.15625 17.9141C3.125 17.6562 2.44531 16.7891 2.44531 15.7109V13.4141C2.44531 12.3359 3.11328 11.457 4.15625 11.1992L5.99609 10.7539L6.06641 10.5664L5.05859 8.94922C4.49609 8.05859 4.63672 6.96875 5.41016 6.16016L7.0625 4.51953C7.8125 3.74609 8.91406 3.60547 9.82812 4.15625L11.457 5.15234L11.668 5.08203L12.1016 3.21875C12.3477 2.1875 13.2148 1.48438 14.3047 1.48438H16.6953C17.7852 1.48438 18.6641 2.17578 18.8984 3.21875L19.332 5.08203L19.543 5.15234L21.1719 4.15625C22.0859 3.59375 23.1875 3.74609 23.9375 4.51953L25.5898 6.16016C26.375 6.96875 26.5156 8.05859 25.9414 8.94922L24.9336 10.5664L25.0156 10.7539L26.8438 11.1992C27.8867 11.457 28.5547 12.3359 28.5547 13.4141V15.7109C28.5547 16.7891 27.875 17.6562 26.8438 17.9141L24.9922 18.3477L24.9336 18.5352L25.9297 20.1523C26.4922 21.043 26.3633 22.1328 25.5898 22.9297L23.9375 24.5703C23.1758 25.3438 22.0742 25.4961 21.1602 24.9336L19.5312 23.9258L19.332 23.9961L18.8984 25.8594C18.6641 26.9023 17.7852 27.5938 16.6953 27.5938H14.3047ZM14.7734 24.9453H16.2266C16.4258 24.9453 16.5078 24.8516 16.543 24.6875L17.2227 21.8281C18.0898 21.6523 18.7812 21.3477 19.4844 20.8906L21.9688 22.4258C22.1094 22.5195 22.2383 22.5078 22.3789 22.3789L23.3867 21.3711C23.5273 21.2422 23.5156 21.1016 23.4336 20.9609L21.8984 18.4766C22.3086 17.8203 22.6367 17.0234 22.8008 16.25L25.6602 15.5703C25.8242 15.5352 25.918 15.4531 25.918 15.2539V13.8594C25.918 13.6484 25.8359 13.5664 25.6602 13.5312L22.8008 12.8516C22.6367 12.0547 22.2969 11.2578 21.9102 10.6133L23.4336 8.14062C23.5273 7.98828 23.5391 7.85938 23.4102 7.71875L22.3906 6.72266C22.25 6.59375 22.1328 6.58203 21.9688 6.67578L19.4844 8.1875C18.8164 7.77734 18.0547 7.4375 17.2227 7.26172L16.543 4.39062C16.5078 4.22656 16.4258 4.13281 16.2266 4.13281H14.7734C14.5859 4.13281 14.4922 4.22656 14.4688 4.39062L13.7891 7.25C12.957 7.4375 12.0781 7.80078 11.5039 8.1875L9.01953 6.66406C8.85547 6.57031 8.73828 6.58203 8.59766 6.71094L7.57812 7.70703C7.44922 7.83594 7.46094 7.97656 7.55469 8.11719L9.08984 10.6133C8.70312 11.2578 8.375 12.0547 8.19922 12.8633L5.33984 13.5312C5.17578 13.5664 5.08203 13.6484 5.08203 13.8594V15.2539C5.08203 15.4531 5.17578 15.5352 5.33984 15.5703L8.19922 16.2383C8.36328 17.0352 8.69141 17.7969 9.10156 18.4766L7.55469 20.9727C7.47266 21.1133 7.46094 21.2539 7.60156 21.3828L8.60938 22.3906C8.73828 22.5195 8.87891 22.5312 9.01953 22.4375L11.5156 20.8906C12.207 21.3477 12.9922 21.6758 13.7891 21.8281L14.4688 24.6875C14.4922 24.8516 14.5859 24.9453 14.7734 24.9453ZM15.5 18.957C13.0742 18.957 11.082 16.9766 11.082 14.5391C11.082 12.125 13.0742 10.1445 15.5 10.1445C17.9258 10.1445 19.9062 12.125 19.9062 14.5391C19.9062 16.9766 17.9258 18.957 15.5 18.957ZM15.5 16.6016C16.6016 16.6016 17.5273 15.6641 17.5273 14.5391C17.5273 13.4258 16.6016 12.5 15.5 12.5C14.375 12.5 13.4492 13.4258 13.4492 14.5391C13.4492 15.6758 14.375 16.6016 15.5 16.6016Z" fill="white"/>
</svg>
