<svg width="20" height="20" viewBox="0 0 20 20" fill="none" xmlns="http://www.w3.org/2000/svg">
    <path d="M9.19141 19.4883C8.66406 19.4883 8.27734 19.1807 8.16309 18.6709L7.72363 16.7988C7.41602 16.6934 7.12598 16.5791 6.8623 16.4561L5.23633 17.458C4.80566 17.7305 4.2959 17.6865 3.93555 17.3262L2.81055 16.2012C2.4502 15.8408 2.39746 15.3135 2.6875 14.8828L3.68066 13.2656C3.55762 12.9932 3.44336 12.7119 3.35547 12.4395L1.47461 11.9912C0.964844 11.877 0.657227 11.4902 0.657227 10.9717V9.38965C0.657227 8.87109 0.964844 8.48438 1.47461 8.37012L3.33789 7.92188C3.43457 7.60547 3.55762 7.32422 3.66309 7.08691L2.66992 5.43457C2.38867 4.99512 2.42383 4.50293 2.79297 4.13379L3.93555 3.00879C4.30469 2.66602 4.76172 2.61328 5.20117 2.85938L6.85352 3.87012C7.11719 3.73828 7.41602 3.62402 7.72363 3.51855L8.16309 1.64648C8.27734 1.12793 8.66406 0.820312 9.19141 0.820312H10.7998C11.3184 0.820312 11.7139 1.12793 11.8193 1.6377L12.2676 3.53613C12.584 3.6416 12.8652 3.75586 13.1201 3.87891L14.7812 2.85938C15.2207 2.61328 15.6777 2.6748 16.0469 3.00879L17.1895 4.13379C17.5586 4.50293 17.5938 4.99512 17.3125 5.43457L16.3193 7.08691C16.4248 7.32422 16.5479 7.60547 16.6533 7.92188L18.5166 8.37012C19.0264 8.48438 19.334 8.87109 19.334 9.38965V10.9717C19.334 11.4902 19.0264 11.877 18.5166 11.9912L16.6357 12.4395C16.5479 12.7119 16.4248 12.9932 16.3018 13.2656L17.2949 14.8828C17.585 15.3135 17.5322 15.8408 17.1719 16.2012L16.0469 17.3262C15.6865 17.6865 15.1855 17.7305 14.7549 17.458L13.1201 16.4561C12.8564 16.5791 12.5664 16.6934 12.2676 16.7988L11.8193 18.6709C11.7139 19.1807 11.3184 19.4883 10.7998 19.4883H9.19141ZM10 13.2305C11.6875 13.2305 13.0674 11.8418 13.0674 10.1455C13.0674 8.4668 11.6875 7.07812 10 7.07812C8.30371 7.07812 6.91504 8.4668 6.91504 10.1455C6.91504 11.8418 8.30371 13.2305 10 13.2305Z" fill="white"/>
</svg>