<svg width="22" height="22" viewBox="0 0 22 22" fill="none" xmlns="http://www.w3.org/2000/svg">
<path d="M10.1616 20.0132C9.46436 20.0132 8.93311 19.5898 8.77539 18.9341L8.43506 17.4648L8.21094 17.3818L6.93262 18.1704C6.35986 18.5356 5.6792 18.4443 5.18945 17.9546L4.02734 16.7925C3.5376 16.3027 3.44629 15.6221 3.81152 15.0493L4.6084 13.7793L4.52539 13.5718L3.06445 13.2314C2.40869 13.0654 1.98535 12.5259 1.98535 11.8452V10.21C1.98535 9.5293 2.40039 8.98975 3.06445 8.82373L4.50879 8.4751L4.6001 8.25928L3.80322 6.98926C3.43799 6.4165 3.5293 5.74414 4.01904 5.23779L5.18115 4.07568C5.6626 3.59424 6.34326 3.50293 6.92432 3.85986L8.20264 4.64014L8.43506 4.54883L8.77539 3.07959C8.93311 2.42383 9.46436 2.00049 10.1616 2.00049H11.8384C12.5273 2.00049 13.0669 2.42383 13.2246 3.07959L13.5649 4.54883L13.7974 4.64014L15.0757 3.85986C15.6484 3.50293 16.3291 3.59424 16.8105 4.07568L17.9727 5.23779C18.4624 5.74414 18.5537 6.4165 18.1885 6.98926L17.3999 8.25928L17.4829 8.4751L18.9355 8.82373C19.5913 8.98975 20.0146 9.5293 20.0146 10.21V11.8452C20.0146 12.5259 19.583 13.0654 18.9355 13.2314L17.4663 13.5718L17.3916 13.7793L18.1802 15.0493C18.5454 15.6221 18.4624 16.3027 17.9644 16.7925L16.8022 17.9546C16.3208 18.4443 15.6401 18.5356 15.0591 18.1704L13.7808 17.3818L13.5649 17.4648L13.2246 18.9341C13.0669 19.5898 12.5273 20.0132 11.8384 20.0132H10.1616ZM10.3608 18.5107H11.6392C11.7803 18.5107 11.8467 18.4526 11.8633 18.3198L12.3613 16.2778C12.9092 16.1533 13.3823 15.9458 13.7891 15.6885L15.582 16.7925C15.6816 16.8589 15.7812 16.8506 15.8892 16.751L16.769 15.8628C16.8604 15.7798 16.8604 15.6802 16.7939 15.5723L15.6982 13.7793C15.9224 13.3892 16.1465 12.8911 16.271 12.3682L18.3213 11.8784C18.4458 11.8535 18.5122 11.7871 18.5122 11.646V10.4009C18.5122 10.2515 18.4541 10.1934 18.3213 10.1602L16.2793 9.67871C16.1548 9.12256 15.9058 8.60791 15.7065 8.25098L16.8022 6.46631C16.877 6.3501 16.877 6.25049 16.7773 6.15918L15.8892 5.2876C15.7896 5.18799 15.7065 5.17969 15.582 5.24609L13.7974 6.3335C13.3906 6.10107 12.9009 5.87695 12.3613 5.75244L11.8633 3.69385C11.8467 3.56104 11.7803 3.50293 11.6392 3.50293H10.3608C10.2197 3.50293 10.1533 3.56934 10.1284 3.69385L9.63867 5.73584C9.11572 5.86865 8.56787 6.10107 8.19434 6.3252L6.40967 5.23779C6.28516 5.17139 6.20215 5.18799 6.09424 5.2793L5.21436 6.15088C5.11475 6.25049 5.11475 6.3501 5.18945 6.46631L6.28516 8.25098C6.08594 8.60791 5.84521 9.12256 5.7207 9.67871L3.67041 10.1602C3.5459 10.1934 3.48779 10.2515 3.48779 10.4009V11.646C3.48779 11.7871 3.5459 11.8535 3.67041 11.8784L5.7207 12.3682C5.84521 12.8911 6.06934 13.3892 6.30176 13.7793L5.19775 15.5723C5.12305 15.6802 5.13135 15.7798 5.22266 15.8711L6.10254 16.751C6.21045 16.8506 6.31006 16.8589 6.40967 16.7925L8.20264 15.6885C8.60938 15.9458 9.10742 16.1533 9.63867 16.2778L10.1284 18.3198C10.1533 18.4443 10.2197 18.5107 10.3608 18.5107ZM11 14.1611C9.26514 14.1611 7.8457 12.7417 7.8457 11.0068C7.8457 9.28857 9.27344 7.86914 11 7.86914C12.7266 7.86914 14.146 9.28857 14.146 11.0068C14.146 12.7417 12.7266 14.1611 11 14.1611ZM11 12.7417C11.9297 12.7417 12.7017 11.9531 12.7017 11.0068C12.7017 10.0688 11.9297 9.29688 11 9.29688C10.0537 9.29688 9.27344 10.0688 9.27344 11.0068C9.27344 11.9614 10.0537 12.7417 11 12.7417Z" fill="white"/>
</svg>
