<svg width="25" height="26" viewBox="0 0 25 26" fill="none" xmlns="http://www.w3.org/2000/svg">
    <path d="M12.4893 16.0801C11.9521 16.0801 11.501 15.6289 11.501 15.1025V4.28516L11.5869 2.68457L10.9102 3.46875L9.40625 5.08008C9.23438 5.27344 8.97656 5.37012 8.72949 5.37012C8.24609 5.37012 7.84863 5.01562 7.84863 4.51074C7.84863 4.25293 7.95605 4.05957 8.13867 3.87695L11.748 0.407227C11.9951 0.149414 12.2314 0.0634766 12.4893 0.0634766C12.7578 0.0634766 12.9941 0.149414 13.2412 0.407227L16.8506 3.87695C17.0332 4.05957 17.1299 4.25293 17.1299 4.51074C17.1299 5.01562 16.7324 5.37012 16.249 5.37012C16.002 5.37012 15.7549 5.27344 15.583 5.08008L14.0684 3.46875L13.4023 2.68457L13.4883 4.28516V15.1025C13.4883 15.6289 13.0371 16.0801 12.4893 16.0801ZM6.3125 24.6416C3.99219 24.6416 2.78906 23.4492 2.78906 21.1611V10.5801C2.78906 8.29199 3.99219 7.09961 6.3125 7.09961H9.42773V9.20508H6.44141C5.44238 9.20508 4.89453 9.7207 4.89453 10.7627V20.9785C4.89453 22.0205 5.44238 22.5361 6.44141 22.5361H18.5479C19.5361 22.5361 20.0947 22.0205 20.0947 20.9785V10.7627C20.0947 9.7207 19.5361 9.20508 18.5479 9.20508H15.5615V7.09961H18.6768C20.9971 7.09961 22.2002 8.29199 22.2002 10.5801V21.1611C22.2002 23.4492 20.9971 24.6416 18.6768 24.6416H6.3125Z" fill="white"/>
</svg>