<svg width="28" height="29" viewBox="0 0 28 29" fill="none" xmlns="http://www.w3.org/2000/svg">
    <path d="M14.0352 9.72266C13.2734 9.72266 12.6758 9.10156 12.6758 8.38672V4.73047L12.793 3.00781L12.1719 3.92188L10.7656 5.42188C10.5312 5.67969 10.2148 5.80859 9.875 5.80859C9.25391 5.80859 8.70312 5.35156 8.70312 4.68359C8.70312 4.34375 8.83203 4.09766 9.06641 3.86328L12.957 0.125C13.3086 -0.226562 13.6602 -0.355469 14.0352 -0.355469C14.3984 -0.355469 14.75 -0.226562 15.1016 0.125L18.9922 3.86328C19.2266 4.09766 19.3555 4.34375 19.3555 4.68359C19.3555 5.35156 18.793 5.80859 18.1719 5.80859C17.8438 5.80859 17.5273 5.67969 17.293 5.42188L15.875 3.92188L15.2656 3.01953L15.3828 4.73047V8.38672C15.3828 9.10156 14.7852 9.72266 14.0352 9.72266ZM7.21484 27.1133C4.54297 27.1133 3.07812 25.6602 3.07812 23V12.1484C3.07812 9.48828 4.54297 8.03516 7.21484 8.03516H12.3359V16.2969C12.3359 17.2109 13.1094 17.9609 14.0352 17.9609C14.9492 17.9609 15.7227 17.2109 15.7227 16.2969V8.03516H20.7852C23.4688 8.03516 24.9219 9.48828 24.9219 12.1484V23C24.9219 25.6484 23.4688 27.1133 20.7852 27.1133H7.21484Z" fill="white"/>
</svg>