<svg width="38" height="38" viewBox="0 0 38 38" fill="none" xmlns="http://www.w3.org/2000/svg">
    <rect x="0.5" y="0.5" width="37" height="37" rx="11.5" stroke="black" stroke-opacity="0.08"/>
    <path d="M13.6172 19.469C13.6172 19.3122 13.6825 19.1749 13.8002 19.0312L19.8978 11.4762C20.3683 10.8945 21.1068 11.2736 20.8389 11.9859L18.8456 17.345H22.6361C22.9237 17.345 23.1328 17.5411 23.1328 17.8156C23.1328 17.9659 23.074 18.1031 22.9564 18.2534L22.6688 18.6064C20.3618 18.6325 18.4469 20.5605 18.4469 22.8871C18.4469 23.1746 18.4796 23.4557 18.5319 23.7236L16.8522 25.8084C16.3817 26.3836 15.6432 26.0045 15.9111 25.2921L17.9044 19.9396H14.1139C13.8263 19.9396 13.6172 19.737 13.6172 19.469Z" fill="black"/>
    <path fill-rule="evenodd" clip-rule="evenodd" d="M22.6906 26.6429C20.6548 26.6429 18.9727 24.9664 18.9727 22.9214C18.9727 20.8835 20.6548 19.207 22.6906 19.207C24.7265 19.207 26.4086 20.8835 26.4086 22.9214C26.4086 24.952 24.7048 26.6429 22.6906 26.6429ZM22.6745 24.7599C22.6745 24.9512 22.8155 25.0946 23.0092 25.0946C23.1451 25.0946 23.2533 25.0392 23.3867 24.9185L25.3797 23.0462C25.4778 22.9531 25.5131 22.8449 25.5131 22.7543C25.5131 22.6587 25.4778 22.5555 25.3797 22.4624L23.3867 20.6028C23.2407 20.4694 23.1476 20.4141 23.0143 20.4141C22.8155 20.4141 22.6745 20.5701 22.6745 20.7638V21.6647H22.6116C20.8652 21.6647 20.0625 22.787 20.0625 24.614C20.0625 24.9235 20.1959 25.0845 20.3695 25.0845C20.5004 25.0845 20.6237 25.0443 20.7193 24.8631C21.1194 24.1182 21.6856 23.8515 22.6116 23.8515H22.6745V24.7599Z" fill="black"/>
</svg>