<svg width="31" height="29" viewBox="0 0 31 29" fill="none" xmlns="http://www.w3.org/2000/svg">
    <path d="M16.8359 25.7188C15.7461 25.7188 14.9258 24.8867 14.9258 23.7969V20.0234H14.7148C10.8242 20.0234 8.59766 21.4531 7.0625 24.2539C6.53516 25.2734 5.89062 25.5781 5.09375 25.5781C3.96875 25.5781 3.26562 24.4766 3.26562 22.2969C3.26562 14.0352 7.12109 9.125 14.7148 9.125H14.9258V5.32812C14.9258 4.23828 15.7461 3.37109 16.8477 3.37109C17.5625 3.37109 18.0781 3.65234 18.8398 4.35547L28.1797 13.0039C28.6602 13.4492 28.8711 14.0234 28.8711 14.5391C28.8711 15.043 28.6484 15.6406 28.1797 16.0859L18.8398 24.7812C18.1484 25.4258 17.5742 25.7188 16.8359 25.7188Z" fill="white"/>
</svg>