<svg width="17" height="11" viewBox="0 0 17 11" fill="none" xmlns="http://www.w3.org/2000/svg">
<path d="M8.24609 10.8496C3.50586 10.8496 0.195312 6.97656 0.195312 5.77539C0.195312 4.57422 3.51172 0.707031 8.24609 0.707031C13.0449 0.707031 16.291 4.57422 16.291 5.77539C16.291 6.97656 13.0508 10.8496 8.24609 10.8496ZM8.24609 9.72461C11.9844 9.72461 14.9668 6.5957 14.9668 5.77539C14.9668 5.08984 11.9844 1.83203 8.24609 1.83203C4.50195 1.83203 1.52539 5.08984 1.52539 5.77539C1.52539 6.5957 4.50195 9.72461 8.24609 9.72461ZM8.24609 8.93359C6.48242 8.93359 5.07617 7.49219 5.07617 5.77539C5.07617 4.01172 6.48242 2.62305 8.24609 2.62305C10.0039 2.62305 11.4102 4.01172 11.4102 5.77539C11.4102 7.49219 10.0039 8.93359 8.24609 8.93359ZM8.24609 6.79492C8.81445 6.79492 9.27148 6.33789 9.27148 5.77539C9.27148 5.21289 8.81445 4.75586 8.24609 4.75586C7.67773 4.75586 7.21484 5.21289 7.21484 5.77539C7.21484 6.33789 7.67773 6.79492 8.24609 6.79492Z" fill="black"/>
</svg>
