<svg width="33" height="25" viewBox="0 0 33 25" fill="none" xmlns="http://www.w3.org/2000/svg">
<path d="M1.17383 20.3096C0.658203 20.3096 0.239258 19.8691 0.239258 19.3643C0.239258 18.8486 0.658203 18.4189 1.17383 18.4189H8.54297C9.13379 17.0547 10.1113 15.6367 11.3896 14.3691C8.66113 12.3926 6.37305 9.37402 6.37305 5.81836C6.37305 2.71387 8.52148 0.361328 11.4004 0.361328C15.5146 0.361328 18.2754 4.75488 18.5654 10.4805C19.3066 10.3301 20.0693 10.2549 20.8643 10.2549C22.3252 10.2549 23.249 10.9854 23.249 12.1562C23.249 12.9082 22.8516 13.6602 22.8516 14.0146C22.8516 14.1328 22.916 14.1865 23.002 14.1865C23.7002 14.1865 26.5254 10.6953 28.4375 10.6953C30.6611 10.6953 29.6514 14.2295 30.7041 14.2295C31.0371 14.2295 31.3486 13.9502 31.7139 13.9502C32.208 13.9502 32.5195 14.3477 32.5195 14.8203C32.5195 15.1963 32.3154 15.4863 32.0254 15.6797C31.5742 15.9805 30.9727 16.1094 30.5 16.1094C27.7822 16.1094 28.6309 12.8223 27.9004 12.8223C27.084 12.8223 24.4092 16.5068 22.1748 16.5068C21.3154 16.5068 20.6816 15.959 20.6816 15.0996C20.6816 14.1328 21.1973 13.4131 21.1973 12.5215C21.1973 12.2744 21.0146 12.1348 20.6816 12.1348C19.9512 12.1348 19.2529 12.21 18.5762 12.3604C18.501 14.6055 18.1357 16.668 17.5342 18.4189H32.0361C32.5518 18.4189 32.9707 18.8486 32.9707 19.3643C32.9707 19.8691 32.5518 20.3096 32.0361 20.3096H16.7285C15.4287 22.791 13.4951 24.2949 11.0996 24.2949C8.9834 24.2949 7.91992 23.0059 7.91992 21.1152C7.91992 20.8574 7.94141 20.5889 7.98438 20.3096H1.17383ZM8.24219 5.81836C8.24219 9.09473 10.584 11.6191 12.7539 13.166C13.9141 12.2637 15.2461 11.501 16.707 10.9854C16.5781 6.09766 14.5049 2.23047 11.4004 2.23047C9.5957 2.23047 8.24219 3.77734 8.24219 5.81836ZM0.776367 16.1416C0.475586 15.8408 0.475586 15.3789 0.776367 15.0674L2.07617 13.7783L0.776367 12.4893C0.475586 12.1885 0.475586 11.7158 0.776367 11.4043C1.08789 11.1035 1.5498 11.1035 1.86133 11.4043L3.16113 12.6934L4.46094 11.4043C4.76172 11.1035 5.22363 11.0928 5.53516 11.4043C5.83594 11.7158 5.84668 12.1777 5.53516 12.4893L4.23535 13.7783L5.53516 15.0674C5.84668 15.3682 5.84668 15.8408 5.53516 16.1416C5.22363 16.4531 4.76172 16.4531 4.46094 16.1416L3.16113 14.8525L1.86133 16.1523C1.5498 16.4424 1.08789 16.4531 0.776367 16.1416ZM13.7959 15.8086C13.5166 15.6797 13.2373 15.5293 12.958 15.3789C11.9268 16.335 11.1211 17.4092 10.584 18.4189H15.5254C16.127 16.8936 16.5352 15.0137 16.6641 12.9619C15.8584 13.2949 15.0957 13.7246 14.4082 14.208C14.4834 14.251 14.5693 14.2832 14.6445 14.3262C14.999 14.5195 15.1279 14.8096 15.1279 15.1104C15.1279 15.5508 14.7627 15.9268 14.2686 15.9268C14.1182 15.9268 13.957 15.8945 13.7959 15.8086ZM9.86426 20.8359C9.86426 21.7812 10.3369 22.4258 11.3145 22.4258C12.5498 22.4258 13.667 21.6416 14.5479 20.3096H9.90723C9.875 20.4922 9.86426 20.6641 9.86426 20.8359Z" fill="white"/>
</svg>
