<svg width="17" height="17" viewBox="0 0 17 17" fill="none" xmlns="http://www.w3.org/2000/svg">
    <path d="M8.28516 15.126C4.42285 15.126 1.22363 11.9336 1.22363 8.06445C1.22363 4.20215 4.41602 1.00293 8.27832 1.00293C12.1475 1.00293 15.3467 4.20215 15.3467 8.06445C15.3467 11.9336 12.1475 15.126 8.28516 15.126ZM8.28516 9.24707C8.6748 9.24707 8.90039 9.02832 8.91406 8.61816L9.0166 5.17969C9.03027 4.7627 8.71582 4.46191 8.27832 4.46191C7.84082 4.46191 7.5332 4.75586 7.54688 5.17285L7.64941 8.61816C7.66309 9.02148 7.88867 9.24707 8.28516 9.24707ZM8.28516 11.5986C8.74316 11.5986 9.11914 11.2773 9.11914 10.8193C9.11914 10.375 8.75 10.04 8.28516 10.04C7.82715 10.04 7.45117 10.375 7.45117 10.8193C7.45117 11.2705 7.83398 11.5986 8.28516 11.5986Z" fill="black" fill-opacity="0.38"/>
</svg>