<svg width="24" height="14" viewBox="0 0 24 14" fill="none" xmlns="http://www.w3.org/2000/svg">
    <path d="M5.88867 6.74609C4.64062 6.74609 3.62695 5.65039 3.62695 4.29688C3.62695 2.97852 4.64062 1.89453 5.88867 1.89453C7.14258 1.89453 8.15625 2.9668 8.15625 4.29688C8.15625 5.64453 7.13672 6.74609 5.88867 6.74609ZM18.0352 6.76953C16.7871 6.76953 15.7734 5.67383 15.7734 4.32617C15.7734 3.00781 16.7871 1.91797 18.0352 1.91797C19.2891 1.91797 20.3027 2.99023 20.3027 4.32031C20.3027 5.66797 19.2891 6.76953 18.0352 6.76953ZM9.96094 6.86328C9.65625 6.86328 9.41016 6.61719 9.41016 6.3125C9.41016 6.00781 9.65625 5.76172 9.96094 5.76172C10.2598 5.76172 10.5117 6.00781 10.5117 6.3125C10.5117 6.61719 10.2598 6.86328 9.96094 6.86328ZM11.9648 6.86328C11.6602 6.86328 11.4141 6.61719 11.4141 6.3125C11.4141 6.00781 11.6602 5.76172 11.9648 5.76172C12.2695 5.76172 12.5156 6.00781 12.5156 6.3125C12.5156 6.61719 12.2695 6.86328 11.9648 6.86328ZM13.9629 6.86328C13.6641 6.86328 13.4121 6.61719 13.4121 6.3125C13.4121 6.00781 13.6641 5.76172 13.9629 5.76172C14.2676 5.76172 14.5137 6.00781 14.5137 6.3125C14.5137 6.61719 14.2676 6.86328 13.9629 6.86328ZM2.77734 11.6211C1.93359 11.6211 1.49414 11.3281 1.49414 10.7246C1.49414 9.34766 3.08789 7.41406 5.88281 7.41406C8.68359 7.41406 10.2773 9.34766 10.2773 10.7246C10.2773 11.3281 9.83789 11.6211 8.99414 11.6211H2.77734ZM14.9238 11.6445C14.0859 11.6445 13.6406 11.3516 13.6406 10.748C13.6406 9.37109 15.2402 7.4375 18.0352 7.4375C20.8301 7.4375 22.4238 9.37109 22.4238 10.748C22.4238 11.3516 21.9844 11.6445 21.1406 11.6445H14.9238Z" fill="white"/>
</svg>