<svg width="29" height="29" viewBox="0 0 29 29" fill="none" xmlns="http://www.w3.org/2000/svg">
<path d="M2.125 14.5391C2.125 11 3.84766 7.32031 6.41406 5.28125C7.23438 4.57812 8.17188 4.625 8.72266 5.28125C9.33203 5.99609 9.10938 6.89844 8.44141 7.56641C6.44922 9.30078 5.21875 11.7266 5.20703 14.5391C5.19531 19.6953 9.35547 23.832 14.5 23.832C19.6562 23.832 23.793 19.6953 23.793 14.5391C23.793 10.3086 21.0039 6.78125 17.1602 5.65625V7.09766C17.1602 8.11719 16.3516 8.36328 15.4844 7.76562L11.207 4.87109C10.5039 4.39062 10.4922 3.54688 11.207 3.07812L15.4844 0.183594C16.3633 -0.402344 17.1602 -0.144531 17.1602 0.851562V2.46875C22.6914 3.6875 26.875 8.65625 26.875 14.5391C26.875 21.3359 21.2969 26.9141 14.5 26.9141C7.71484 26.9141 2.125 21.3359 2.125 14.5391ZM17.3477 13.9883C16.1523 13.9883 15.1797 12.9336 15.1797 11.5977C15.1797 10.3203 16.1641 9.26562 17.3477 9.26562C18.5312 9.26562 19.5039 10.2969 19.5039 11.5977C19.5039 12.9336 18.5312 13.9883 17.3477 13.9883ZM11.1602 14.0938C10.1289 14.0938 9.27344 13.1797 9.27344 12.0195C9.27344 10.9062 10.1406 9.99219 11.1602 9.99219C12.2031 9.99219 13.0586 10.8945 13.0586 12.0195C13.0586 13.1797 12.2031 14.0938 11.1602 14.0938ZM8.27734 18.957C7.50391 18.957 7.23438 18.6055 7.23438 18.0078C7.23438 16.625 8.82812 14.9023 11.1602 14.9023C12.0742 14.9023 12.8359 15.1602 13.4102 15.5117C12.1445 16.5312 11.6055 18.125 12.1797 18.957H8.27734ZM14.0664 18.957C13.1406 18.957 12.8242 18.6523 12.8242 18.125C12.8242 16.7656 14.582 14.9141 17.3477 14.9141C20.1016 14.9141 21.8594 16.7656 21.8594 18.125C21.8594 18.6523 21.543 18.957 20.6055 18.957H14.0664Z" fill="white"/>
</svg>
