<svg width="16" height="16" viewBox="0 0 16 16" fill="none" xmlns="http://www.w3.org/2000/svg">
<path d="M8 15.29C4.04199 15.29 0.78125 12.0293 0.78125 8.06445C0.78125 4.10645 4.03516 0.845703 8 0.845703C11.958 0.845703 15.2188 4.10645 15.2188 8.06445C15.2188 12.0293 11.9648 15.29 8 15.29ZM10.4951 11.3525L12.2041 9.60254C12.293 9.5 12.3613 9.35645 12.3613 9.21973C12.3613 8.91211 12.1426 8.69336 11.8281 8.69336C11.6914 8.69336 11.5615 8.74121 11.459 8.84375L10.7686 9.56152L10.6318 9.71191V5.13184C10.6318 4.83105 10.3994 4.59863 10.0986 4.59863C9.78418 4.59863 9.55859 4.83105 9.55859 5.13184V9.34961L9.56543 9.71875L9.42871 9.56152L8.73145 8.84375C8.63574 8.74121 8.49902 8.69336 8.35547 8.69336C8.04785 8.69336 7.8291 8.90527 7.8291 9.21973C7.8291 9.35645 7.89062 9.49316 7.99316 9.60254L9.69531 11.3525C9.91406 11.5781 10.2764 11.5781 10.4951 11.3525ZM5.51172 4.77637L3.80273 6.5332C3.70703 6.63574 3.63867 6.7793 3.63867 6.91602C3.63867 7.22363 3.86426 7.44238 4.17188 7.44238C4.31543 7.44238 4.44531 7.3877 4.54102 7.28516L5.23828 6.56738L5.375 6.41016L5.36816 6.79297V10.9971C5.36816 11.2979 5.60742 11.5303 5.9082 11.5303C6.22266 11.5303 6.44824 11.2979 6.44824 10.9971V6.78613L6.43457 6.41016L6.57812 6.56738L7.26855 7.29199C7.37109 7.39453 7.50098 7.44238 7.65137 7.44238C7.95215 7.44238 8.17773 7.22363 8.17773 6.91602C8.17773 6.77246 8.10254 6.62891 8.00684 6.5332L6.30469 4.77637C6.08594 4.55762 5.7373 4.53711 5.51172 4.77637Z" fill="white"/>
</svg>
