<svg width="20" height="20" viewBox="0 0 20 20" fill="none" xmlns="http://www.w3.org/2000/svg">
<g id="Telegram_logo 1">
<g id="Group 161">
<path id="Vector" d="M7.97364 12.814L7.55854 17.2256C7.55854 17.2256 7.38478 18.5774 8.73626 17.2256C10.0877 15.8739 11.3814 14.8315 11.3814 14.8315" fill="#D3D3D3"/>
<path id="Vector_2" d="M5.14623 11.4927L0.698097 10.0434C0.698097 10.0434 0.166496 9.8277 0.337671 9.33862C0.372909 9.23777 0.443991 9.15195 0.656632 9.00447C1.64222 8.31749 18.8991 2.11492 18.8991 2.11492C18.8991 2.11492 19.3863 1.95074 19.6737 2.05994C19.7448 2.08195 19.8087 2.12244 19.859 2.17728C19.9093 2.23213 19.9442 2.29935 19.96 2.37207C19.991 2.50051 20.004 2.63266 19.9986 2.76469C19.9972 2.87891 19.9834 2.98478 19.9729 3.15079C19.8678 4.84659 16.7225 17.5029 16.7225 17.5029C16.7225 17.5029 16.5343 18.2435 15.8601 18.2689C15.6944 18.2743 15.5294 18.2462 15.3747 18.1864C15.2201 18.1266 15.0791 18.0363 14.9602 17.9208C13.6371 16.7827 9.06413 13.7094 8.05363 13.0336C8.03084 13.018 8.01164 12.9978 7.99734 12.9742C7.98303 12.9506 7.97395 12.9242 7.9707 12.8969C7.95658 12.8256 8.03404 12.7374 8.03404 12.7374C8.03404 12.7374 15.9968 5.65949 16.2087 4.91646C16.2251 4.8589 16.1631 4.83049 16.0799 4.85571C15.551 5.05027 6.38289 10.84 5.37102 11.479C5.29819 11.501 5.2212 11.5057 5.14623 11.4927Z" fill="white"/>
</g>
</g>
</svg>
