<svg width="17" height="17" viewBox="0 0 17 17" fill="none" xmlns="http://www.w3.org/2000/svg">
<path d="M8.44238 15.29C4.48438 15.29 1.22363 12.0293 1.22363 8.06445C1.22363 4.10645 4.47754 0.845703 8.44238 0.845703C12.4004 0.845703 15.6611 4.10645 15.6611 8.06445C15.6611 12.0293 12.4072 15.29 8.44238 15.29ZM6.28906 11.0039C6.52832 11.0039 6.71973 10.9219 6.87012 10.7715L8.44238 9.19238L10.0215 10.7715C10.1719 10.9219 10.3701 11.0039 10.6025 11.0039C11.0469 11.0039 11.3887 10.6553 11.3887 10.2109C11.3887 10.0059 11.3066 9.81445 11.1494 9.66406L9.56348 8.07812L11.1562 6.47852C11.3135 6.32812 11.3887 6.13672 11.3887 5.93164C11.3887 5.49414 11.0469 5.15234 10.6094 5.15234C10.377 5.15234 10.1992 5.2207 10.0352 5.38477L8.44238 6.96387L6.86328 5.38477C6.70605 5.23438 6.52832 5.15918 6.28906 5.15918C5.85156 5.15918 5.50977 5.49414 5.50977 5.94531C5.50977 6.14355 5.5918 6.33496 5.74219 6.48535L7.33496 8.07812L5.74219 9.6709C5.5918 9.81445 5.50977 10.0127 5.50977 10.2109C5.50977 10.6553 5.85156 11.0039 6.28906 11.0039Z" fill="#FA3737"/>
</svg>
