<svg width="17" height="17" viewBox="0 0 17 17" fill="none" xmlns="http://www.w3.org/2000/svg">
<path d="M8.44238 15.29C4.48438 15.29 1.22363 12.0293 1.22363 8.06445C1.22363 4.10645 4.47754 0.845703 8.44238 0.845703C12.4004 0.845703 15.6611 4.10645 15.6611 8.06445C15.6611 12.0293 12.4072 15.29 8.44238 15.29ZM7.69043 11.4961C7.98438 11.4961 8.25098 11.3457 8.42871 11.0859L11.6006 6.23242C11.7236 6.05469 11.792 5.87012 11.792 5.69922C11.792 5.27539 11.416 4.97461 11.0059 4.97461C10.7393 4.97461 10.5137 5.11816 10.3359 5.40527L7.66992 9.64355L6.48047 8.17383C6.2959 7.95508 6.10449 7.85938 5.8584 7.85938C5.44141 7.85938 5.09961 8.19434 5.09961 8.61816C5.09961 8.81641 5.16113 8.9873 5.31836 9.17871L6.9248 11.0928C7.14355 11.3594 7.38281 11.4961 7.69043 11.4961Z" fill="#75FA37"/>
</svg>
