<svg width="58" height="53" viewBox="0 0 58 53" fill="none" xmlns="http://www.w3.org/2000/svg">
<path d="M12.1777 23.9102C8.54688 23.9102 5.99023 21.1602 5.99023 16.9062C5.99023 11.2344 10.3301 7.17383 15.207 7.17383C16.3887 7.17383 17.291 7.86133 17.291 8.89258C17.291 9.79492 16.6035 10.5039 15.7227 10.5684C12.7148 10.7617 10.5449 12.5234 9.87891 15.123C10.6523 14.1992 11.7266 13.8125 12.9727 13.8125C15.6152 13.8125 17.6133 15.8105 17.6133 18.7324C17.6133 21.7832 15.1855 23.9102 12.1777 23.9102ZM26.0781 23.9102C22.4688 23.9102 19.8906 21.1602 19.8906 16.9062C19.8906 11.2344 24.2305 7.17383 29.1074 7.17383C30.3105 7.17383 31.2129 7.86133 31.2129 8.89258C31.2129 9.79492 30.5254 10.5039 29.623 10.5684C26.6152 10.7617 24.4668 12.5234 23.7793 15.123C24.5527 14.1992 25.6484 13.8125 26.8945 13.8125C29.5371 13.8125 31.5352 15.8105 31.5352 18.7324C31.5352 21.7832 29.1074 23.9102 26.0781 23.9102ZM37.7441 11.9004C36.4121 11.9004 35.3809 10.8477 35.3809 9.53711C35.3809 8.22656 36.4121 7.17383 37.7441 7.17383H49.668C50.9785 7.17383 52.0312 8.22656 52.0312 9.53711C52.0312 10.8477 50.9785 11.9004 49.668 11.9004H37.7441ZM37.7441 23.1582C36.4121 23.1582 35.3809 22.1055 35.3809 20.7949C35.3809 19.4844 36.4121 18.4316 37.7441 18.4316H49.668C50.9785 18.4316 52.0312 19.4844 52.0312 20.7949C52.0312 22.1055 50.9785 23.1582 49.668 23.1582H37.7441ZM8.31055 34.3945C7 34.3945 5.94727 33.3633 5.94727 32.0312C5.94727 30.7207 7 29.668 8.31055 29.668H49.668C50.9785 29.668 52.0312 30.7207 52.0312 32.0312C52.0312 33.3633 50.9785 34.3945 49.668 34.3945H8.31055ZM8.31055 45.6523C7 45.6523 5.94727 44.5996 5.94727 43.2891C5.94727 41.9785 7 40.9258 8.31055 40.9258H49.668C50.9785 40.9258 52.0312 41.9785 52.0312 43.2891C52.0312 44.5996 50.9785 45.6523 49.668 45.6523H8.31055Z" fill="white" style="fill:white;fill:white;fill-opacity:1;"/>
</svg>
