<svg width="20" height="21" viewBox="0 0 20 21" fill="none" xmlns="http://www.w3.org/2000/svg">
<path d="M10 12.5464C9.46045 12.5464 9.03711 12.1064 9.03711 11.6001V4.44482L9.12012 3.22461L8.68018 3.87207L7.68408 4.93457C7.51807 5.10889 7.29395 5.2085 7.05322 5.2085C6.61328 5.2085 6.22314 4.88477 6.22314 4.41162C6.22314 4.1709 6.31445 3.98828 6.48047 3.82227L9.23633 1.18262C9.48535 0.933594 9.73438 0.842285 10 0.842285C10.2573 0.842285 10.5063 0.933594 10.7554 1.18262L13.5112 3.82227C13.6772 3.98828 13.7686 4.1709 13.7686 4.41162C13.7686 4.88477 13.3701 5.2085 12.9385 5.2085C12.6978 5.2085 12.4736 5.10889 12.3076 4.93457L11.3032 3.87207L10.8716 3.22461L10.9546 4.44482V11.6001C10.9546 12.1064 10.5312 12.5464 10 12.5464ZM3.01904 20.9136C1.12646 20.9136 0.0888672 19.8843 0.0888672 18V13.6587C0.0888672 12.6792 0.155273 12.2061 0.586914 11.5752L2.99414 8.20508C4.03174 6.74414 4.57959 6.43701 6.12354 6.43701H7.49316V8.14697H6.12354C5.62549 8.14697 5.29346 8.27979 4.95312 8.74463L2.45459 12.3389C2.25537 12.6211 2.33008 12.7954 2.70361 12.7954H7.40186C7.9165 12.7954 8.13232 13.1025 8.13232 13.4512V13.4844C8.13232 14.3809 8.82129 15.3687 10 15.3687C11.1704 15.3687 11.8594 14.3809 11.8594 13.4844V13.4512C11.8594 13.1025 12.0752 12.7954 12.5898 12.7954H17.2881C17.6616 12.7954 17.7529 12.6377 17.5371 12.3389L15.0303 8.72803C14.6982 8.27979 14.3662 8.14697 13.8765 8.14697H12.4985V6.43701H13.8682C15.4121 6.43701 15.9683 6.74414 16.9893 8.19678L19.4048 11.5752C19.8364 12.2061 19.9028 12.6792 19.9028 13.6587V18C19.9028 19.876 18.8735 20.9136 16.9727 20.9136H3.01904Z" fill="black"/>
</svg>
