<svg width="17" height="18" viewBox="0 0 17 18" fill="none" xmlns="http://www.w3.org/2000/svg">
    <path d="M8.44238 2.86328C8.03223 2.86328 7.69727 2.53516 7.69727 2.125C7.69727 1.71484 8.03223 1.37988 8.44238 1.37988C8.8457 1.37988 9.18066 1.71484 9.18066 2.125C9.18066 2.53516 8.8457 2.86328 8.44238 2.86328ZM10.4316 3.18457C10.0215 3.18457 9.68652 2.85645 9.68652 2.44629C9.68652 2.03613 10.0215 1.70801 10.4316 1.70801C10.835 1.70801 11.1699 2.03613 11.1699 2.44629C11.1699 2.85645 10.835 3.18457 10.4316 3.18457ZM6.44629 3.18457C6.04297 3.18457 5.70801 2.85645 5.70801 2.44629C5.70801 2.03613 6.04297 1.70801 6.44629 1.70801C6.85645 1.70801 7.19141 2.03613 7.19141 2.44629C7.19141 2.85645 6.85645 3.18457 6.44629 3.18457ZM12.2363 4.10059C11.8262 4.10059 11.4912 3.76562 11.4912 3.35547C11.4912 2.95215 11.8262 2.61719 12.2363 2.61719C12.6396 2.61719 12.9746 2.95215 12.9746 3.35547C12.9746 3.76562 12.6396 4.10059 12.2363 4.10059ZM4.6416 4.10059C4.23828 4.10059 3.90332 3.76562 3.90332 3.35547C3.90332 2.95215 4.23828 2.61719 4.6416 2.61719C5.05176 2.61719 5.38672 2.95215 5.38672 3.35547C5.38672 3.76562 5.05176 4.10059 4.6416 4.10059ZM13.665 5.5293C13.2549 5.5293 12.9199 5.19434 12.9199 4.78418C12.9199 4.38086 13.2549 4.0459 13.665 4.0459C14.0684 4.0459 14.4033 4.38086 14.4033 4.78418C14.4033 5.19434 14.0684 5.5293 13.665 5.5293ZM3.21289 5.5293C2.80957 5.5293 2.47461 5.19434 2.47461 4.78418C2.47461 4.38086 2.80957 4.0459 3.21289 4.0459C3.62305 4.0459 3.95801 4.38086 3.95801 4.78418C3.95801 5.19434 3.62305 5.5293 3.21289 5.5293ZM14.5742 7.31348C14.1641 7.31348 13.8291 6.97852 13.8291 6.56836C13.8291 6.16504 14.1641 5.83008 14.5742 5.83008C14.9775 5.83008 15.3125 6.16504 15.3125 6.56836C15.3125 6.97852 14.9775 7.31348 14.5742 7.31348ZM2.31055 7.31348C1.90039 7.31348 1.56543 6.97852 1.56543 6.56836C1.56543 6.16504 1.90039 5.83008 2.31055 5.83008C2.71387 5.83008 3.04883 6.16504 3.04883 6.56836C3.04883 6.97852 2.71387 7.31348 2.31055 7.31348ZM14.916 9.30273C14.5059 9.30273 14.1709 8.97461 14.1709 8.56445C14.1709 8.1543 14.5059 7.82617 14.916 7.82617C15.3193 7.82617 15.6543 8.1543 15.6543 8.56445C15.6543 8.97461 15.3193 9.30273 14.916 9.30273ZM1.96191 9.30273C1.55859 9.30273 1.22363 8.97461 1.22363 8.56445C1.22363 8.1543 1.55859 7.82617 1.96191 7.82617C2.37207 7.82617 2.70703 8.1543 2.70703 8.56445C2.70703 8.97461 2.37207 9.30273 1.96191 9.30273ZM14.5742 11.2988C14.1641 11.2988 13.8291 10.9707 13.8291 10.5605C13.8291 10.1504 14.1641 9.81543 14.5742 9.81543C14.9775 9.81543 15.3125 10.1504 15.3125 10.5605C15.3125 10.9707 14.9775 11.2988 14.5742 11.2988ZM2.31055 11.2988C1.90039 11.2988 1.56543 10.9707 1.56543 10.5605C1.56543 10.1504 1.90039 9.81543 2.31055 9.81543C2.71387 9.81543 3.04883 10.1504 3.04883 10.5605C3.04883 10.9707 2.71387 11.2988 2.31055 11.2988ZM13.665 13.083C13.2549 13.083 12.9199 12.748 12.9199 12.3447C12.9199 11.9346 13.2549 11.5996 13.665 11.5996C14.0684 11.5996 14.4033 11.9346 14.4033 12.3447C14.4033 12.748 14.0684 13.083 13.665 13.083ZM3.21289 13.083C2.80957 13.083 2.47461 12.748 2.47461 12.3447C2.47461 11.9346 2.80957 11.5996 3.21289 11.5996C3.62305 11.5996 3.95801 11.9346 3.95801 12.3447C3.95801 12.748 3.62305 13.083 3.21289 13.083ZM12.2363 14.5117C11.8262 14.5117 11.4912 14.1768 11.4912 13.7734C11.4912 13.3633 11.8262 13.0283 12.2363 13.0283C12.6396 13.0283 12.9746 13.3633 12.9746 13.7734C12.9746 14.1768 12.6396 14.5117 12.2363 14.5117ZM4.6416 14.5117C4.23828 14.5117 3.90332 14.1768 3.90332 13.7734C3.90332 13.3633 4.23828 13.0283 4.6416 13.0283C5.05176 13.0283 5.38672 13.3633 5.38672 13.7734C5.38672 14.1768 5.05176 14.5117 4.6416 14.5117ZM10.4316 15.4209C10.0215 15.4209 9.68652 15.0928 9.68652 14.6826C9.68652 14.2725 10.0215 13.9443 10.4316 13.9443C10.835 13.9443 11.1699 14.2725 11.1699 14.6826C11.1699 15.0928 10.835 15.4209 10.4316 15.4209ZM6.44629 15.4209C6.04297 15.4209 5.70801 15.0928 5.70801 14.6826C5.70801 14.2725 6.04297 13.9443 6.44629 13.9443C6.85645 13.9443 7.19141 14.2725 7.19141 14.6826C7.19141 15.0928 6.85645 15.4209 6.44629 15.4209ZM8.44238 15.749C8.03223 15.749 7.69727 15.4141 7.69727 15.0039C7.69727 14.6006 8.03223 14.2656 8.44238 14.2656C8.8457 14.2656 9.18066 14.6006 9.18066 15.0039C9.18066 15.4141 8.8457 15.749 8.44238 15.749Z" fill="black"/>
</svg>