<svg width="29" height="29" viewBox="0 0 29 29" fill="none" xmlns="http://www.w3.org/2000/svg">
<path d="M8.08984 0.429688H20.8867C21.8594 0.429688 22.5273 1.0625 22.5273 1.94141C22.5273 2.36328 22.3516 2.83203 22 3.27734C21.4023 4.02734 20.0664 5.11719 18.3906 6.13672L18.7656 11.7148C21.9648 12.957 24.0156 15.5234 24.0156 18.125C24.0156 18.8867 23.6758 19.4727 23.1016 19.7891L10.5156 7.20312L10.5859 6.13672C8.89844 5.10547 7.55078 4.01562 6.95312 3.26562C6.61328 2.82031 6.4375 2.36328 6.4375 1.94141C6.4375 1.0625 7.11719 0.429688 8.08984 0.429688ZM2.53516 4.30859C2.17188 3.94531 2.16016 3.28906 2.53516 2.91406C2.91016 2.52734 3.55469 2.53906 3.94141 2.92578L25.7852 24.7578C26.1602 25.1328 26.1719 25.7422 25.7852 26.1406C25.4219 26.5156 24.7891 26.5273 24.3906 26.1406L2.53516 4.30859ZM4.96094 18.125C4.96094 16.0156 6.30859 13.9414 8.51172 12.5938L16.1875 20.2812H15.8594V25.7305C15.8594 27.1367 14.8633 29.1055 14.4883 29.1055C14.1133 29.1055 13.1172 27.1367 13.1172 25.7305V20.082H6.97656C5.75781 20.082 4.96094 19.2969 4.96094 18.125Z" fill="white"/>
</svg>
