<svg width="11" height="14" viewBox="0 0 11 14" fill="none" xmlns="http://www.w3.org/2000/svg">
<path d="M5.49316 0.22168C5.71191 0.22168 5.89648 0.310547 6.11523 0.488281L10.7295 4.2207C10.8867 4.35742 10.9893 4.55566 10.9893 4.80176C10.9893 5.25977 10.627 5.59473 10.1963 5.59473C10.0049 5.59473 9.80664 5.51953 9.61523 5.3623L5.5 2.0332L1.37109 5.3623C1.17969 5.51953 0.988281 5.59473 0.796875 5.59473C0.366211 5.59473 0.00390625 5.25977 0.00390625 4.80176C0.00390625 4.55566 0.0996094 4.35742 0.263672 4.2207L4.87109 0.488281C5.08984 0.317383 5.28125 0.22168 5.49316 0.22168ZM5.49316 13.9072C5.28125 13.9072 5.08984 13.8115 4.87109 13.6338L0.263672 9.9082C0.0996094 9.77148 0.00390625 9.57324 0.00390625 9.32715C0.00390625 8.86914 0.366211 8.53418 0.796875 8.53418C0.988281 8.53418 1.17969 8.60938 1.37109 8.75977L5.5 12.0889L9.61523 8.75977C9.80664 8.60938 10.0049 8.53418 10.1963 8.53418C10.627 8.53418 10.9893 8.86914 10.9893 9.32715C10.9893 9.57324 10.8867 9.77148 10.7295 9.9082L6.11523 13.6406C5.89648 13.8115 5.71191 13.9072 5.49316 13.9072Z" fill="white"/>
</svg>
