<svg width="19" height="21" viewBox="0 0 19 21" fill="none" xmlns="http://www.w3.org/2000/svg">
<path d="M9.29883 1.85645C9.58008 1.85645 9.81738 1.9707 10.0986 2.19922L16.0312 6.99805C16.2334 7.17383 16.3652 7.42871 16.3652 7.74512C16.3652 8.33398 15.8994 8.76465 15.3457 8.76465C15.0996 8.76465 14.8447 8.66797 14.5986 8.46582L9.30762 4.18555L3.99902 8.46582C3.75293 8.66797 3.50684 8.76465 3.26074 8.76465C2.70703 8.76465 2.24121 8.33398 2.24121 7.74512C2.24121 7.42871 2.36426 7.17383 2.5752 6.99805L8.49902 2.19922C8.78027 1.97949 9.02637 1.85645 9.29883 1.85645ZM9.29883 19.4521C9.02637 19.4521 8.78027 19.3291 8.49902 19.1006L2.5752 14.3105C2.36426 14.1348 2.24121 13.8799 2.24121 13.5635C2.24121 12.9746 2.70703 12.5439 3.26074 12.5439C3.50684 12.5439 3.75293 12.6406 3.99902 12.834L9.30762 17.1143L14.5986 12.834C14.8447 12.6406 15.0996 12.5439 15.3457 12.5439C15.8994 12.5439 16.3652 12.9746 16.3652 13.5635C16.3652 13.8799 16.2334 14.1348 16.0312 14.3105L10.0986 19.1094C9.81738 19.3291 9.58008 19.4521 9.29883 19.4521Z" fill="black" style="fill:black;fill-opacity:1;"/>
</svg>
