<svg width="13" height="13" viewBox="0 0 13 13" fill="none" xmlns="http://www.w3.org/2000/svg">
<path d="M6.10156 12.8223C2.77344 12.8223 0.0488281 10.0918 0.0488281 6.76953C0.0488281 5.32812 0.576172 3.99219 1.44336 2.94922C1.70117 2.61523 2.09961 2.58594 2.3457 2.83789C2.5918 3.08398 2.55664 3.40039 2.33984 3.69922C1.6543 4.53125 1.24414 5.60352 1.23828 6.76953C1.23828 9.45898 3.40039 11.627 6.10156 11.627C8.80273 11.627 10.959 9.45898 10.959 6.76953C10.959 4.2207 9.04297 2.14648 6.55273 1.91797V3.44141C6.55273 3.74023 6.34766 3.96875 6.04883 3.96875C5.75586 3.96875 5.55078 3.74023 5.55078 3.44141V1.2793C5.55078 0.927734 5.75 0.716797 6.10742 0.716797C9.42969 0.716797 12.1543 3.44727 12.1543 6.76953C12.1543 10.0918 9.42969 12.8223 6.10156 12.8223ZM7.04492 7.66602C6.54688 8.14648 5.86133 8.03516 5.46875 7.46094L3.41211 4.47266C3.17773 4.13281 3.51758 3.78711 3.86328 4.02148L6.85156 6.07812C7.42578 6.4707 7.52539 7.16211 7.04492 7.66602Z" fill="black" />
</svg>
