<svg width="32" height="29" viewBox="0 0 32 29" fill="none" xmlns="http://www.w3.org/2000/svg">
<path d="M6.50065 24.6329C3.21104 24.6329 1.38746 23.0119 1.38746 19.8653V9.12643C1.38746 5.96792 3.29448 4.15626 6.50065 4.15626H18.8009C22.0905 4.15626 23.9261 5.96792 23.9261 9.11451V10.3779L27.8712 7.0287C28.5625 6.44468 29.2061 6.05136 29.9093 6.05136C31.0655 6.05136 31.8998 6.86184 31.8998 8.14908V20.795C31.8998 22.0703 31.0655 22.8927 29.9093 22.8927C29.218 22.8927 28.5625 22.4994 27.8712 21.9154L23.9261 18.5543V19.6627C23.9261 22.8212 22.0905 24.6329 18.8009 24.6329H6.50065ZM6.98933 21.9273H18.3003C20.0167 21.9273 21.0298 20.9619 21.0298 19.2217V9.55551C21.0298 7.81535 20.0405 6.84992 18.3123 6.84992H6.98933C5.26109 6.84992 4.28374 7.75576 4.28374 9.55551V19.2217C4.28374 20.9619 5.26109 21.9273 6.98933 21.9273ZM28.777 19.4363C28.8605 19.4959 28.932 19.5554 29.0154 19.5554C29.1346 19.5554 29.2061 19.472 29.2061 19.329V9.6151C29.2061 9.47207 29.1346 9.38864 29.0154 9.38864C28.932 9.38864 28.8605 9.43632 28.777 9.50783L23.9261 13.4053V15.5269L28.777 19.4363Z" fill="white"/>
</svg>
