<svg width="69" height="53" viewBox="0 0 69 53" fill="none" xmlns="http://www.w3.org/2000/svg">
    <path d="M51.8164 46.1035L14.584 8.93555C13.8965 8.24805 13.8965 7.06641 14.584 6.37891C15.293 5.66992 16.4746 5.66992 17.1621 6.37891L54.373 43.5469C55.082 44.2559 55.1035 45.3516 54.373 46.1035C53.6641 46.834 52.5254 46.8125 51.8164 46.1035ZM34.5 7.625C52.5684 7.625 64.2988 22.1055 64.2988 26.5312C64.2988 29.0234 60.4961 34.8027 53.8574 39.3145L49.6895 35.125C54.502 31.9668 57.4668 28.0996 57.4668 26.5312C57.4668 24.1035 47.498 13.0391 34.5 13.0391C32.4375 13.0391 30.5254 13.3184 28.6777 13.791L24.166 9.2793C27.3242 8.24805 30.7402 7.625 34.5 7.625ZM34.5 45.4375C16.7109 45.4375 4.70117 30.9355 4.70117 26.5312C4.70117 23.9961 8.67578 18.1309 15.4863 13.6191L19.7188 17.8516C14.6484 21.1172 11.5332 25.1777 11.5332 26.5312C11.5332 29.4531 21.502 40.0234 34.5 40.0234C36.7129 40.0234 38.7754 39.7012 40.752 39.1855L45.2422 43.6973C41.998 44.793 38.4102 45.4375 34.5 45.4375ZM44.6836 29.6895L31.3418 16.3262C32.3301 15.9609 33.3828 15.7676 34.5215 15.7676C40.4941 15.7676 45.2852 20.5371 45.2852 26.5098C45.2852 27.627 45.0918 28.7012 44.6836 29.6895ZM34.5 37.2949C28.5059 37.2949 23.7148 32.3965 23.7148 26.5312C23.7148 25.2422 23.9727 24.0391 24.4238 22.9648L38.0449 36.5645C36.9492 37.0371 35.7676 37.2949 34.5 37.2949Z" fill="white" fill-opacity="0.6"/>
</svg>