<svg width="24" height="26" viewBox="0 0 24 26" fill="none" xmlns="http://www.w3.org/2000/svg">
<path d="M17.3174 15.876L9.79785 8.37793H10.0557C10.1094 8.37793 10.1738 8.3457 10.2168 8.30273L14.3848 4.4248C14.9756 3.87695 15.3623 3.64062 15.9102 3.64062C16.7266 3.64062 17.3174 4.28516 17.3174 5.08008V15.876ZM21.0664 23.9004L2.26758 5.13379C1.94531 4.80078 1.94531 4.24219 2.26758 3.91992C2.60059 3.58691 3.14844 3.58691 3.48145 3.91992L22.2695 22.6973C22.6025 23.0303 22.6025 23.5674 22.2695 23.9004C21.9473 24.2334 21.3994 24.2334 21.0664 23.9004ZM6.55371 17.7988C4.98535 17.7988 4.17969 16.9717 4.17969 15.3066V11.2246C4.17969 10.4404 4.3623 9.83887 4.72754 9.44141L17.21 21.9238C17.0059 22.5576 16.5332 22.8584 15.9209 22.8584C15.373 22.8584 14.9326 22.6436 14.3848 22.1279L9.83008 17.8848C9.76562 17.8203 9.69043 17.7988 9.58301 17.7988H6.55371Z" fill="white"/>
</svg>
