<svg width="32" height="26" viewBox="0 0 32 26" fill="none" xmlns="http://www.w3.org/2000/svg">
<path d="M15.3125 22.8584C14.7539 22.8584 14.3027 22.6436 13.7656 22.1279L9.27539 17.8848C9.21094 17.8203 9.125 17.7988 9.02832 17.7988H5.97754C4.40918 17.7988 3.56055 16.918 3.56055 15.2637V11.2676C3.56055 9.60254 4.40918 8.73242 5.97754 8.73242H9.02832C9.125 8.73242 9.21094 8.7002 9.27539 8.64648L13.7656 4.4248C14.3672 3.87695 14.7432 3.64062 15.291 3.64062C16.1074 3.64062 16.6875 4.28516 16.6875 5.08008V21.4834C16.6875 22.2783 16.1074 22.8584 15.3125 22.8584ZM24.8086 20.8818C24.3037 20.5596 24.2393 19.9365 24.6045 19.3779C25.7324 17.6914 26.4092 15.5107 26.4092 13.2441C26.4092 10.9668 25.7539 8.78613 24.6045 7.11035C24.2285 6.55176 24.3037 5.92871 24.8086 5.60645C25.292 5.29492 25.8828 5.41309 26.2158 5.90723C27.623 7.8623 28.4287 10.5264 28.4287 13.2441C28.4287 15.9619 27.623 18.6045 26.2158 20.5811C25.8828 21.0752 25.292 21.1826 24.8086 20.8818ZM20.5225 18.0137C20.0068 17.6592 19.9102 17.0469 20.3184 16.4346C20.9092 15.5752 21.2529 14.4365 21.2529 13.2441C21.2529 12.041 20.9199 10.9023 20.3184 10.0537C19.9102 9.45215 20.0068 8.8291 20.5225 8.48535C20.9736 8.17383 21.5752 8.28125 21.8975 8.74316C22.7568 9.91406 23.2725 11.5469 23.2725 13.2441C23.2725 14.9414 22.7568 16.585 21.8975 17.7344C21.5752 18.207 20.9736 18.3037 20.5225 18.0137Z" fill="white"/>
</svg>
