<svg width="18" height="16" viewBox="0 0 18 16" fill="none" xmlns="http://www.w3.org/2000/svg">
	<path d="M2.5835 15.9673C1.13086 15.9673 0.226074 14.9214 0.226074 13.6182C0.226074 13.2197 0.333984 12.813 0.558105 12.4229L6.98291 1.2168C7.42285 0.436523 8.20312 0.0380859 9 0.0380859C9.78857 0.0380859 10.5688 0.436523 11.0171 1.2168L17.4419 12.4229C17.6577 12.8047 17.7739 13.2197 17.7739 13.6182C17.7739 14.9214 16.8608 15.9673 15.4165 15.9673H2.5835ZM2.72461 14.4067H15.2671C15.7817 14.4067 16.1138 14 16.1138 13.5435C16.1138 13.4023 16.0806 13.228 15.9976 13.0786L9.71387 2.08008C9.55615 1.80615 9.27393 1.68994 9 1.68994C8.72607 1.68994 8.43555 1.80615 8.27783 2.08008L1.99414 13.062C1.91113 13.2197 1.88623 13.4023 1.88623 13.5435C1.88623 14 2.20166 14.4067 2.72461 14.4067ZM9 10.2314C8.53516 10.2314 8.27783 9.96582 8.26123 9.50098L8.14502 5.4502C8.12842 4.96875 8.48535 4.62842 8.9917 4.62842C9.49805 4.62842 9.86328 4.97705 9.84668 5.4585L9.72217 9.49268C9.71387 9.97412 9.44824 10.2314 9 10.2314ZM9 12.979C8.46875 12.979 8.02881 12.5889 8.02881 12.0659C8.02881 11.5513 8.46875 11.1611 9 11.1611C9.53955 11.1611 9.97119 11.543 9.97119 12.0659C9.97119 12.5889 9.53125 12.979 9 12.979Z" fill="white" fill-opacity="0.6"/>
	</svg>
	