<svg width="15" height="14" viewBox="0 0 15 14" fill="none" xmlns="http://www.w3.org/2000/svg">
<path d="M7.10156 12.8223C3.79102 12.8223 1.04883 10.0859 1.04883 6.76953C1.04883 3.45898 3.78516 0.716797 7.0957 0.716797C10.4121 0.716797 13.1543 3.45898 13.1543 6.76953C13.1543 10.0859 10.4121 12.8223 7.10156 12.8223ZM3.57422 3.08398C3.86719 3.2832 4.21875 3.45312 4.62891 3.58203C4.89258 2.86719 5.24414 2.28125 5.66016 1.86523C4.86914 2.09961 4.16016 2.52734 3.57422 3.08398ZM8.54883 1.87109C8.95898 2.28125 9.31055 2.86719 9.57422 3.58789C9.98438 3.45312 10.3359 3.28906 10.623 3.08398C10.043 2.52734 9.33398 2.10547 8.54883 1.87109ZM7.51172 2.05859V3.91602C7.95703 3.89844 8.37305 3.85742 8.75977 3.78711C8.44336 2.92578 7.99805 2.29297 7.51172 2.05859ZM5.44336 3.78711C5.83008 3.85742 6.24609 3.89844 6.69141 3.91602V2.05859C6.20508 2.29297 5.76562 2.92578 5.44336 3.78711ZM2.00391 6.35938H4.11328C4.14258 5.63867 4.24219 4.95898 4.39453 4.34961C3.85547 4.17969 3.39258 3.95117 3.03516 3.6875C2.46094 4.44336 2.08594 5.36328 2.00391 6.35938ZM10.0898 6.35938H12.1992C12.1172 5.36328 11.7422 4.44336 11.1621 3.6875C10.8105 3.95703 10.3477 4.17969 9.80859 4.34961C9.96094 4.95898 10.0605 5.63867 10.0898 6.35938ZM4.95117 6.35938H6.69141V4.73633C6.16992 4.71289 5.67188 4.6543 5.20312 4.56055C5.06836 5.11133 4.98047 5.7207 4.95117 6.35938ZM7.51172 6.35938H9.25195C9.22266 5.7207 9.13477 5.11133 9 4.56055C8.53125 4.6543 8.0332 4.71289 7.51172 4.73633V6.35938ZM2.00391 7.17969C2.08594 8.18164 2.4668 9.10742 3.05273 9.86914C3.4043 9.60547 3.86133 9.38281 4.39453 9.21289C4.24219 8.59766 4.14258 7.91211 4.11328 7.17969H2.00391ZM4.95117 7.17969C4.97461 7.82422 5.06836 8.44531 5.20898 9.00195C5.67188 8.91406 6.17578 8.85547 6.69141 8.83203V7.17969H4.95117ZM7.51172 8.83203C8.0332 8.85547 8.53125 8.91406 8.99414 9.00195C9.13477 8.44531 9.22852 7.82422 9.25195 7.17969H7.51172V8.83203ZM9.80859 9.21289C10.3418 9.38281 10.7988 9.60547 11.1504 9.86914C11.7363 9.10742 12.1172 8.18164 12.1992 7.17969H10.0898C10.0605 7.91211 9.9668 8.59766 9.80859 9.21289ZM7.51172 9.65234V11.4805C7.99219 11.252 8.43164 10.625 8.74805 9.78125C8.36719 9.71094 7.95117 9.66992 7.51172 9.65234ZM5.45508 9.78125C5.77148 10.625 6.21094 11.252 6.69141 11.4805V9.65234C6.25195 9.66992 5.83594 9.71094 5.45508 9.78125ZM3.5918 10.4727C4.17188 11.0176 4.875 11.4336 5.64844 11.668C5.24414 11.2578 4.89844 10.6836 4.63477 9.98047C4.23047 10.1094 3.87891 10.2734 3.5918 10.4727ZM9.56836 9.98047C9.30469 10.6836 8.95898 11.2578 8.55469 11.668C9.32812 11.4336 10.0312 11.0176 10.6113 10.4727C10.3242 10.2734 9.97266 10.1094 9.56836 9.98047Z" fill="white" fill-opacity="1"/>
</svg>
